<svg width="783" height="77" viewBox="0 0 783 77" fill="none" xmlns="http://www.w3.org/2000/svg">
<path d="M8.9 75H0.5V5H48.2V12.7H8.9V35.4H45.2V43.1H8.9V75ZM87.3516 76.1C67.3516 76.1 53.6516 61.9 53.6516 39.8C53.6516 19 66.3516 3.9 87.3516 3.9C107.552 3.9 121.252 18.1 121.252 39.8C121.252 60.8 108.552 76.1 87.3516 76.1ZM87.3516 68.4C102.952 68.4 112.652 57.3 112.652 39.8C112.652 22.5 102.852 11.6 87.3516 11.6C71.9516 11.6 62.2516 22.5 62.2516 39.8C62.2516 57.3 71.9516 68.4 87.3516 68.4ZM139.474 75H131.074V5H162.974C176.174 5 185.274 12.9 185.274 24.3C185.274 32.6 179.674 39.6 171.174 42.3C174.874 43.3 177.474 45.7 178.774 49.2L188.474 75H179.474L170.474 50.7C169.374 47.7 166.974 46.1 163.674 46.1H139.474V75ZM139.474 12.7V38.6H163.374C172.074 38.6 176.774 32.6 176.774 25.1C176.774 16.9 170.974 12.7 163.374 12.7H139.474ZM204.713 75H196.313V5H206.813L231.513 65L256.113 5H266.713V75H258.313V19.6L235.513 75H227.413L204.713 19.8V75ZM282.715 75H274.015L302.815 5H311.315L340.215 75H331.515L323.315 55H290.915L282.715 75ZM307.115 15.7L294.115 47.4H320.115L307.115 15.7ZM393.053 76.1C375.453 76.1 363.353 67 362.453 53.8H371.253C372.253 62.8 380.753 68.5 393.053 68.5C403.753 68.5 409.353 64.1 409.353 56.8C409.353 49.7 403.153 47 396.453 44.9L384.353 41.1C378.753 39.3 364.653 36.3 364.653 22.6C364.653 11.3 373.953 3.9 388.453 3.9C404.453 3.9 414.353 12 415.453 26.9H406.753C406.053 17 399.153 11.5 388.053 11.5C379.253 11.5 373.053 15.5 373.053 22.2C373.053 29.9 381.053 31.5 387.053 33.4L398.353 36.9C407.253 39.7 417.953 43.2 417.953 56.4C417.953 68.7 408.553 76.1 393.053 76.1ZM451.565 75H443.165V12.7H418.965V5H475.765V12.7H451.565V75ZM511.034 76.1C492.934 76.1 483.134 64.8 483.134 51.5V5H491.534V51.3C491.534 62.4 500.334 68.3 511.034 68.3C521.734 68.3 530.534 62.4 530.534 51.3V5H538.934V51.5C538.934 64.8 529.034 76.2 511.034 76.1ZM576.016 75H551.316V5H576.016C596.116 5 610.116 19.2 610.116 39.6C610.116 60.5 596.116 75 576.016 75ZM559.716 12.7V67.3H576.516C591.016 67.3 601.216 55.9 601.216 39.6C601.216 24.5 591.016 12.7 576.516 12.7H559.716ZM628.275 75H619.875V5H628.275V75ZM671.766 76.1C651.766 76.1 638.066 61.9 638.066 39.8C638.066 19 650.766 3.9 671.766 3.9C691.966 3.9 705.666 18.1 705.666 39.8C705.666 60.8 692.966 76.1 671.766 76.1ZM671.766 68.4C687.366 68.4 697.066 57.3 697.066 39.8C697.066 22.5 687.266 11.6 671.766 11.6C656.366 11.6 646.666 22.5 646.666 39.8C646.666 57.3 656.366 68.4 671.766 68.4ZM756.249 54.1C741.049 54.1 729.549 43.2 729.549 27.4C729.549 12.2 740.449 0.799996 756.249 0.799996C771.449 0.799996 782.849 11.7 782.849 27.4C782.849 42.6 771.949 54.1 756.249 54.1ZM756.249 48.7C768.049 48.7 776.949 40 776.949 27.4C776.949 15.3 768.449 6.2 756.249 6.2C744.349 6.2 735.449 14.9 735.449 27.4C735.449 39.5 743.949 48.7 756.249 48.7ZM751.149 39.5H746.149V15.3H759.249C764.149 15.3 767.549 18.3 767.549 22.5C767.549 25.6 765.549 28 762.649 29C764.249 29.3 765.349 30.1 765.949 32L768.349 39.5H763.249L761.249 33.1C760.949 32 760.149 31.4 758.849 31.4H751.149V39.5ZM751.149 19.8V27.1H759.349C761.549 27.1 762.649 25.3 762.649 23.4C762.649 21.6 761.549 19.8 759.349 19.8H751.149Z" fill="white"/>
</svg>
