<svg width="169" height="33" viewBox="0 0 169 33" fill="none" xmlns="http://www.w3.org/2000/svg">
<path d="M4.136 27H1.716V11.204H11.308V13.316H4.136V18.464H10.252V20.576H4.136V27ZM19.6888 27.33C15.1128 27.33 11.6588 23.744 11.6588 19.08C11.6588 14.416 15.1128 10.874 19.6888 10.874C24.2648 10.874 27.7188 14.416 27.7188 19.08C27.7188 23.744 24.2648 27.33 19.6888 27.33ZM19.6888 25.152C23.0328 25.152 25.2108 22.468 25.2108 19.08C25.2108 15.692 23.0328 13.052 19.6888 13.052C16.3448 13.052 14.1668 15.692 14.1668 19.08C14.1668 22.468 16.3448 25.152 19.6888 25.152ZM31.5415 27H29.1215V11.204H35.0175C38.6475 11.204 40.8255 12.986 40.8255 16.132C40.8255 18.398 39.3955 20.136 36.9975 20.708L41.2875 27H38.3835L34.4455 21.06H31.5415V27ZM31.5415 13.228V19.036H34.8635C37.1075 19.036 38.3835 18.046 38.3835 16.132C38.3835 14.24 37.1075 13.228 34.8635 13.228H31.5415ZM49.7394 27L44.7454 14.922V27H42.5234V11.204H45.4934L50.7954 24.03L56.0754 11.204H59.0674V27H56.8234V14.9L51.8074 27H49.7394ZM72.2504 27L70.8204 23.084H64.0004L62.5484 27H60.1064L66.1564 11.204H68.8184L74.8244 27H72.2504ZM67.4324 13.844L64.7264 21.126H70.0944L67.4324 13.844ZM90.9492 22.38C90.9492 25.13 88.7492 27.22 84.9212 27.22C81.1152 27.22 78.8052 25.13 78.6072 21.984H81.0712C81.1812 23.986 82.4572 25.284 84.8772 25.284C86.8792 25.284 88.3752 24.338 88.3752 22.71C88.3752 21.39 87.5172 20.73 85.6912 20.334L83.4032 19.894C81.1812 19.454 79.1572 18.332 79.1572 15.648C79.1572 12.986 81.4892 10.984 84.7672 10.984C88.0452 10.984 90.5312 12.986 90.7292 16.132H88.2652C88.1332 14.24 86.7692 12.92 84.7892 12.92C82.7432 12.92 81.6212 14.13 81.6212 15.494C81.6212 16.99 82.9192 17.518 84.3932 17.826L86.7252 18.288C89.4312 18.838 90.9492 20.026 90.9492 22.38ZM98.3622 27H95.9422V13.382H90.7942V11.204H103.51V13.382H98.3622V27ZM116.715 11.204V21.324C116.715 24.954 114.383 27.33 110.599 27.33C106.815 27.33 104.505 24.954 104.505 21.324V11.204H106.925V21.39C106.925 23.678 108.267 25.152 110.599 25.152C112.953 25.152 114.295 23.678 114.295 21.39V11.204H116.715ZM123.976 27H118.982V11.204H123.976C129.014 11.204 131.918 14.416 131.918 19.036C131.918 23.59 128.904 27 123.976 27ZM121.402 13.294V24.91H123.866C127.496 24.91 129.454 22.666 129.454 19.036C129.454 15.472 127.518 13.294 123.866 13.294H121.402ZM135.771 27H133.351V11.204H135.771V27ZM145.201 27.33C140.625 27.33 137.171 23.744 137.171 19.08C137.171 14.416 140.625 10.874 145.201 10.874C149.777 10.874 153.231 14.416 153.231 19.08C153.231 23.744 149.777 27.33 145.201 27.33ZM145.201 25.152C148.545 25.152 150.723 22.468 150.723 19.08C150.723 15.692 148.545 13.052 145.201 13.052C141.857 13.052 139.679 15.692 139.679 19.08C139.679 22.468 141.857 25.152 145.201 25.152Z" fill="white"/>
<path d="M163.288 18.144C160.056 18.144 157.624 15.664 157.624 12.592C157.624 9.504 160.056 7.024 163.288 7.024C166.536 7.024 168.968 9.504 168.968 12.592C168.968 15.664 166.536 18.144 163.288 18.144ZM163.288 17.248C166.024 17.248 167.928 15.168 167.928 12.592C167.928 10 166.024 7.92 163.288 7.92C160.568 7.92 158.664 10 158.664 12.592C158.664 15.168 160.568 17.248 163.288 17.248ZM164.504 15.408L163.176 13.36H162.296V15.408H161.24V9.776H163.416C164.76 9.776 165.576 10.416 165.576 11.568C165.576 12.4 165.032 12.992 164.264 13.216L165.768 15.408H164.504ZM163.352 10.64H162.296V12.496H163.352C164.136 12.496 164.536 12.16 164.536 11.568C164.536 10.992 164.136 10.64 163.352 10.64Z" fill="white"/>
</svg>
