<svg width="111" height="21" viewBox="0 0 111 21" fill="none" xmlns="http://www.w3.org/2000/svg">
<g clip-path="url(#clip0_4019_71)">
<path d="M62.3 15.7279H64.6743V6.94513H62.3V15.7279ZM62.3 5.57551H64.6743V3.48682H62.3V5.57551Z" fill="#0B0B0B"/>
<path d="M66.2044 18.6043H68.5787V14.735H68.6133C69.1194 15.4884 69.9402 15.9849 71.1968 15.9849C73.5014 15.9849 75.0727 14.1872 75.0727 11.3452C75.0727 8.60593 73.5538 6.70557 71.1795 6.70557C69.9575 6.70557 69.1194 7.27058 68.5435 8.04097H68.4911V6.94525H66.2044V18.6043ZM70.6907 14.0502C69.2767 14.0502 68.5262 13.0059 68.5262 11.4137C68.5262 9.83861 69.1194 8.58885 70.6036 8.58885C72.0701 8.58885 72.6633 9.75302 72.6633 11.4137C72.6633 13.0744 71.8954 14.0502 70.6907 14.0502Z" fill="#0B0B0B"/>
<path d="M79.8085 15.9849C82.0433 15.9849 83.5794 14.9234 83.5794 13.16C83.5794 11.1056 81.9211 10.6946 80.4195 10.3865C79.145 10.1297 77.9581 10.0612 77.9581 9.30791C77.9581 8.67444 78.5692 8.33204 79.4943 8.33204C80.5071 8.33204 81.1181 8.67444 81.2225 9.61605H83.3697C83.1955 7.85266 81.8859 6.70557 79.5295 6.70557C77.4867 6.70557 75.8807 7.61298 75.8807 9.51334C75.8807 11.4308 77.452 11.8588 79.058 12.167C80.28 12.4067 81.4144 12.4923 81.4144 13.3312C81.4144 13.9475 80.8212 14.3413 79.7739 14.3413C78.7087 14.3413 77.9755 13.8961 77.8186 12.8861H75.619C75.7585 14.7522 77.2076 15.9849 79.8085 15.9849Z" fill="#0B0B0B"/>
<path d="M92.5934 15.7281V6.94531H90.2191V12.013C90.2191 13.1771 89.5383 13.9989 88.4212 13.9989C87.4084 13.9989 86.9374 13.434 86.9374 12.4068V6.94531H84.5805V12.8005C84.5805 14.718 85.6976 15.9678 87.688 15.9678C88.9451 15.9678 89.6432 15.5055 90.2542 14.7009H90.3066V15.7281H92.5934Z" fill="#0B0B0B"/>
<path d="M94.129 15.728H96.5033V10.6262C96.5033 9.46196 97.1495 8.70869 98.1098 8.70869C98.9825 8.70869 99.4886 9.22227 99.4886 10.2153V15.728H101.863V10.6262C101.863 9.46196 102.474 8.70869 103.469 8.70869C104.342 8.70869 104.848 9.22227 104.848 10.2153V15.728H107.222V9.82148C107.222 7.904 106.157 6.70557 104.272 6.70557C103.137 6.70557 102.194 7.28765 101.583 8.2464H101.549C101.112 7.32191 100.204 6.70557 99.0695 6.70557C97.8302 6.70557 96.9575 7.32191 96.4687 8.12655H96.4162V6.94525H94.129V15.728Z" fill="#0B0B0B"/>
<path d="M0.419647 15.7279H2.79385V3.48682H0.419647V15.7279Z" fill="#0B0B0B"/>
<path d="M8.59914 15.9849C11.3749 15.9849 13.2777 13.9647 13.2777 11.3452C13.2777 8.72577 11.3749 6.70557 8.59914 6.70557C5.82338 6.70557 3.92053 8.72577 3.92053 11.3452C3.92053 13.9647 5.82338 15.9849 8.59914 15.9849ZM8.59914 14.2043C7.13272 14.2043 6.32965 13.0572 6.32965 11.3452C6.32965 9.63318 7.13272 8.46901 8.59914 8.46901C10.0481 8.46901 10.8686 9.63318 10.8686 11.3452C10.8686 13.0572 10.0481 14.2043 8.59914 14.2043Z" fill="#0B0B0B"/>
<path d="M18.3267 18.7241C19.6535 18.7241 20.8057 18.416 21.5563 17.7311C22.2197 17.1319 22.6212 16.293 22.6212 15.0604V6.94525H20.3343V7.86979H20.2994C19.7582 7.13361 18.9377 6.70557 17.8204 6.70557C15.551 6.70557 13.9449 8.38337 13.9449 11.0028C13.9449 13.6565 15.9001 15.1973 17.8903 15.1973C19.025 15.1973 19.7059 14.7522 20.2296 14.1701H20.2819V15.1288C20.2819 16.3273 19.636 16.9607 18.2918 16.9607C17.192 16.9607 16.6857 16.5327 16.4937 15.9849H14.1369C14.3813 17.6969 15.8827 18.7241 18.3267 18.7241ZM18.2918 13.3312C17.0698 13.3312 16.2668 12.458 16.2668 10.9686C16.2668 9.49621 17.0698 8.57172 18.2743 8.57172C19.7059 8.57172 20.4041 9.66744 20.4041 10.9515C20.4041 12.2526 19.7931 13.3312 18.2918 13.3312Z" fill="#0B0B0B"/>
<path d="M28.3921 15.9849C31.1678 15.9849 33.0707 13.9647 33.0707 11.3452C33.0707 8.72577 31.1678 6.70557 28.3921 6.70557C25.6164 6.70557 23.7135 8.72577 23.7135 11.3452C23.7135 13.9647 25.6164 15.9849 28.3921 15.9849ZM28.3921 14.2043C26.9257 14.2043 26.1227 13.0572 26.1227 11.3452C26.1227 9.63318 26.9257 8.46901 28.3921 8.46901C29.8411 8.46901 30.6616 9.63318 30.6616 11.3452C30.6616 13.0572 29.8411 14.2043 28.3921 14.2043Z" fill="#0B0B0B"/>
<path d="M108.085 5.50339C108.085 5.10942 108.411 4.79004 108.813 4.79004H110.267C110.669 4.79004 110.995 5.10942 110.995 5.50339C110.995 5.89736 110.669 6.21674 110.267 6.21674H108.813C108.411 6.21674 108.085 5.89736 108.085 5.50339Z" fill="#0B0B0B"/>
<path fill-rule="evenodd" clip-rule="evenodd" d="M47.4692 0.985352C53.0931 0.985352 57.6528 5.45665 57.6528 10.9723C57.6528 16.4879 53.0931 20.9592 47.4692 20.9592C41.845 20.9592 37.2857 16.4879 37.2857 10.9723C37.2857 5.45665 41.845 0.985352 47.4692 0.985352ZM47.1011 1.73267C45.9393 1.89301 44.8331 2.8085 43.9743 4.33966C43.7253 4.78379 43.5005 5.27446 43.3047 5.80426C44.4723 5.5165 45.755 5.34685 47.1011 5.32061V1.73267ZM42.444 6.04412C42.6876 5.2945 42.9855 4.60481 43.3293 3.99174C43.755 3.2327 44.2602 2.57724 44.8294 2.07381C41.7342 2.95539 39.2945 5.34803 38.3955 8.38351C38.9089 7.82529 39.5772 7.32984 40.3512 6.91239C40.9764 6.57518 41.6796 6.28296 42.444 6.04412ZM42.1994 6.88817C41.906 8.03327 41.733 9.29117 41.7062 10.6113H38.0477C38.2111 9.47193 39.1447 8.38706 40.706 7.54496C41.1589 7.30068 41.6592 7.08027 42.1994 6.88817ZM42.4425 10.6113C42.4729 9.17063 42.6845 7.8181 43.0344 6.62307C44.2529 6.27992 45.6321 6.07249 47.1011 6.04268V7.60208C46.5531 8.97798 45.4353 10.074 44.0323 10.6113H42.4425ZM41.7062 11.3332H38.0477C38.2111 12.4726 39.1447 13.5574 40.706 14.3996C41.1589 14.6439 41.6592 14.8643 42.1994 15.0564C41.906 13.9113 41.733 12.6534 41.7062 11.3332ZM43.0344 15.3215C42.6845 14.1264 42.4729 12.7739 42.4425 11.3332H44.0323C45.4353 11.8705 46.5531 12.9666 47.1011 14.3425V15.9019C45.6321 15.872 44.2529 15.6646 43.0344 15.3215ZM42.444 15.9004C41.6796 15.6616 40.9764 15.3694 40.3512 15.0321C39.5772 14.6147 38.9089 14.1192 38.3955 13.561C39.2945 16.5965 41.7342 18.9892 44.8294 19.8707C44.2602 19.3673 43.755 18.7118 43.3293 17.9528C42.9855 17.3397 42.6876 16.65 42.444 15.9004ZM47.1011 20.2119C45.9393 20.0515 44.8331 19.136 43.9743 17.6049C43.7253 17.1608 43.5005 16.6701 43.3047 16.1403C44.4723 16.428 45.755 16.5977 47.1011 16.6239V20.2119ZM50.1089 19.8707C50.6781 19.3673 51.1832 18.7118 51.6089 17.9528C51.9526 17.3397 52.251 16.65 52.4944 15.9004C53.2586 15.6616 53.9618 15.3694 54.5871 15.0321C55.361 14.6147 56.0296 14.1192 56.5428 13.561C55.6436 16.5965 53.2041 18.9892 50.1089 19.8707ZM51.6339 16.1403C51.4378 16.6701 51.2128 17.1608 50.9638 17.6049C50.1052 19.136 48.999 20.0515 47.8372 20.2119V16.6239C49.1833 16.5977 50.466 16.428 51.6339 16.1403ZM52.7388 15.0564C53.279 14.8643 53.7795 14.6439 54.2322 14.3996C55.7938 13.5575 56.7271 12.4726 56.8906 11.3332H53.2321C53.2052 12.6534 53.032 13.9113 52.7388 15.0564ZM52.4959 11.3332C52.4653 12.7739 52.254 14.1264 51.9037 15.3215C50.6854 15.6646 49.3062 15.872 47.8372 15.9019V14.3436C48.3851 12.9672 49.5031 11.8706 50.9064 11.3332H52.4959ZM53.2321 10.6113H56.8906C56.7271 9.47193 55.7938 8.38706 54.2322 7.54496C53.7795 7.30068 53.279 7.08027 52.7388 6.88817C53.032 8.03327 53.2052 9.29117 53.2321 10.6113ZM51.9037 6.62307C52.254 7.8181 52.4653 9.17063 52.4959 10.6113H50.9065C49.5031 10.0739 48.3851 8.97733 47.8372 7.60093V6.04268C49.3062 6.07249 50.6854 6.27992 51.9037 6.62307ZM52.4944 6.04412C53.2586 6.28296 53.9618 6.57518 54.5871 6.91239C55.361 7.32984 56.0296 7.82529 56.5428 8.38351C55.6436 5.34803 53.2041 2.95539 50.1089 2.07381C50.6781 2.57724 51.1832 3.2327 51.6089 3.99174C51.9526 4.60481 52.251 5.2945 52.4944 6.04412ZM47.8372 1.73267C48.999 1.89301 50.1052 2.8085 50.9638 4.33966C51.2128 4.7838 51.4378 5.27446 51.6339 5.80426C50.466 5.5165 49.1833 5.34685 47.8372 5.32061V1.73267Z" fill="#0B0B0B"/>
</g>
<defs>
<clipPath id="clip0_4019_71">
<rect width="111" height="19.9738" fill="white" transform="translate(0 0.985352)"/>
</clipPath>
</defs>
</svg>
