<svg width="110" height="30" viewBox="0 0 110 30" fill="none" xmlns="http://www.w3.org/2000/svg">
<path d="M37.3583 21.1065C36.8627 21.1332 36.3724 20.9933 35.9667 20.7093C35.7972 20.5845 35.6607 20.4206 35.5692 20.2317C35.4777 20.0428 35.434 19.8347 35.4417 19.6253V11.9545C35.4377 11.922 35.4411 11.889 35.4518 11.8581C35.4625 11.8271 35.4802 11.7991 35.5035 11.7759C35.5268 11.7527 35.5551 11.7352 35.5862 11.7246C35.6174 11.7139 35.6507 11.7105 35.6833 11.7145H37.0833C37.2417 11.7145 37.3167 11.7972 37.3167 11.9545V19.0295C37.3167 19.3439 37.4583 19.5012 37.75 19.5012C37.8737 19.5062 37.9973 19.4923 38.1167 19.4598C38.2833 19.4598 38.375 19.5094 38.3833 19.6584L38.5083 20.6927C38.5143 20.7229 38.5137 20.754 38.5067 20.7839C38.4996 20.8138 38.4861 20.8419 38.4671 20.8662C38.4482 20.8905 38.4242 20.9105 38.3968 20.9248C38.3694 20.9392 38.3392 20.9475 38.3083 20.9493C38.0017 21.0499 37.6812 21.1029 37.3583 21.1065Z" fill="#0B0B0B"/>
<path d="M45.2333 20.221C44.5299 20.7982 43.6458 21.1139 42.7333 21.1139C41.8208 21.1139 40.9368 20.7982 40.2333 20.221C39.6151 19.6013 39.2682 18.7641 39.2682 17.8917C39.2682 17.0192 39.6151 16.1821 40.2333 15.5623C40.9382 14.9881 41.8217 14.6743 42.7333 14.6743C43.645 14.6743 44.5285 14.9881 45.2333 15.5623C45.8374 16.1878 46.1747 17.0209 46.1747 17.8875C46.1747 18.7542 45.8374 19.5873 45.2333 20.2128V20.221ZM41.55 19.1288C41.8765 19.4224 42.3012 19.585 42.7417 19.585C43.1822 19.585 43.6069 19.4224 43.9333 19.1288C44.2288 18.7915 44.3915 18.3594 44.3915 17.9124C44.3915 17.4653 44.2288 17.0333 43.9333 16.696C43.6069 16.4024 43.1822 16.2397 42.7417 16.2397C42.3012 16.2397 41.8765 16.4024 41.55 16.696C41.2546 17.0333 41.0918 17.4653 41.0918 17.9124C41.0918 18.3594 41.2546 18.7915 41.55 19.1288Z" fill="#0B0B0B"/>
<path d="M53.8833 14.8838C54.0417 14.8838 54.1167 14.9665 54.1167 15.1238V21.0568C54.1313 21.4573 54.0557 21.8559 53.8957 22.2238C53.7357 22.5917 53.4953 22.9195 53.1917 23.1835C52.5178 23.754 51.6513 24.0497 50.7667 24.011C49.9677 24.0389 49.1792 23.8222 48.5083 23.3904C48.2218 23.2036 47.9771 22.9602 47.7893 22.6756C47.6015 22.3908 47.4747 22.0708 47.4167 21.7354C47.4167 21.5699 47.4167 21.4954 47.6417 21.4954H49.0417C49.1011 21.4974 49.1587 21.5165 49.2075 21.5503C49.2563 21.584 49.2943 21.631 49.3167 21.6857C49.4075 21.937 49.5885 22.1463 49.825 22.2732C50.1133 22.421 50.4341 22.4949 50.7583 22.4884C50.954 22.4991 51.1498 22.4708 51.3344 22.4055C51.519 22.3402 51.6886 22.2389 51.8333 22.1077C51.9656 21.9706 52.0684 21.8081 52.1358 21.6304C52.2031 21.4526 52.2334 21.2631 52.225 21.0734V20.5521C51.7237 20.9182 51.1137 21.1075 50.4917 21.0899C50.0563 21.1057 49.6223 21.0339 49.2156 20.8789C48.8089 20.7239 48.438 20.4889 48.125 20.188C47.5242 19.5708 47.1884 18.746 47.1884 17.8876C47.1884 17.0292 47.5242 16.2044 48.125 15.5871C48.4395 15.2889 48.8109 15.0562 49.2173 14.9027C49.6238 14.7492 50.0571 14.6781 50.4917 14.6935C51.1317 14.6767 51.7582 14.8782 52.2667 15.2644V15.132C52.2628 15.1003 52.2662 15.0681 52.2764 15.0379C52.2867 15.0077 52.3036 14.98 52.3259 14.957C52.3482 14.934 52.3755 14.9163 52.4056 14.905C52.4357 14.8938 52.468 14.8894 52.5 14.8921L53.8833 14.8838ZM50.65 19.617C50.8647 19.6236 51.0783 19.5833 51.2755 19.4989C51.4728 19.4146 51.649 19.2882 51.7917 19.1288C52.0688 18.7736 52.2191 18.3369 52.2191 17.8876C52.2191 17.4382 52.0688 17.0017 51.7917 16.6463C51.6495 16.4891 51.4743 16.3646 51.2786 16.2817C51.0828 16.1987 50.8711 16.1594 50.6583 16.1664C50.4412 16.1596 50.2252 16.1997 50.0252 16.2841C49.8252 16.3684 49.646 16.4948 49.5 16.6546C49.1931 16.9945 49.0317 17.4397 49.05 17.8958C49.035 18.3475 49.1928 18.788 49.4917 19.1288C49.638 19.2882 49.8172 19.4144 50.0172 19.4986C50.2171 19.5828 50.4329 19.6232 50.65 19.617Z" fill="#0B0B0B"/>
<path d="M61.3083 20.2211C60.6035 20.7953 59.72 21.1091 58.8083 21.1091C57.8967 21.1091 57.0132 20.7953 56.3083 20.2211C55.7037 19.5942 55.3662 18.7597 55.3662 17.8917C55.3662 17.0238 55.7037 16.1892 56.3083 15.5623C57.0138 14.9896 57.8971 14.6768 58.8083 14.6768C59.7196 14.6768 60.6028 14.9896 61.3083 15.5623C61.9124 16.1878 62.2497 17.0209 62.2497 17.8876C62.2497 18.7542 61.9124 19.5873 61.3083 20.2128V20.2211ZM57.6167 19.1288C57.7764 19.2797 57.9647 19.3977 58.1707 19.4758C58.3767 19.5539 58.5962 19.5907 58.8167 19.5839C59.0357 19.5896 59.2537 19.5523 59.4582 19.4742C59.6627 19.3961 59.8496 19.2787 60.0083 19.1288C60.299 18.7892 60.4586 18.3581 60.4586 17.9124C60.4586 17.4667 60.299 17.0356 60.0083 16.696C59.8496 16.5461 59.6627 16.4287 59.4582 16.3507C59.2537 16.2726 59.0357 16.2352 58.8167 16.2409C58.5962 16.2342 58.3767 16.2709 58.1707 16.349C57.9647 16.4271 57.7764 16.5451 57.6167 16.696C57.3261 17.0356 57.1665 17.4667 57.1665 17.9124C57.1665 18.3581 57.3261 18.7892 57.6167 19.1288Z" fill="#0B0B0B"/>
<path d="M65.2583 13.4774C65.0381 13.6688 64.7552 13.7743 64.4625 13.7743C64.1697 13.7743 63.887 13.6688 63.6667 13.4774C63.5668 13.3838 63.4872 13.2709 63.4328 13.1457C63.3785 13.0205 63.3504 12.8855 63.3504 12.7492C63.3504 12.6128 63.3785 12.4779 63.4328 12.3526C63.4872 12.2274 63.5668 12.1146 63.6667 12.021C63.8892 11.8343 64.1712 11.7319 64.4625 11.7319C64.7538 11.7319 65.0357 11.8343 65.2583 12.021C65.3582 12.1146 65.4378 12.2274 65.4922 12.3526C65.5466 12.4779 65.5746 12.6128 65.5746 12.7492C65.5746 12.8855 65.5466 13.0205 65.4922 13.1457C65.4378 13.2709 65.3582 13.3838 65.2583 13.4774ZM65.4333 21.1068C64.938 21.1309 64.4486 20.9913 64.0417 20.7096C63.8747 20.583 63.7406 20.4185 63.6508 20.2299C63.5609 20.0413 63.5177 19.8341 63.525 19.6256V15.1241C63.521 15.0916 63.5244 15.0586 63.5352 15.0277C63.5458 14.9967 63.5635 14.9687 63.5868 14.9455C63.6102 14.9223 63.6384 14.9048 63.6696 14.8942C63.7007 14.8835 63.734 14.8801 63.7666 14.8841H65.1667C65.325 14.8841 65.4 14.9668 65.4 15.1241V19.0298C65.4 19.3442 65.5417 19.5015 65.825 19.5015C65.9514 19.506 66.0777 19.492 66.2 19.4601C66.3667 19.4601 66.4583 19.5097 66.4667 19.6587L66.5917 20.693C66.5977 20.7232 66.5971 20.7543 66.59 20.7842C66.5829 20.8141 66.5694 20.8422 66.5504 20.8665C66.5315 20.8908 66.5075 20.9108 66.4802 20.9252C66.4527 20.9395 66.4226 20.9478 66.3917 20.9496C66.0823 21.0508 65.7591 21.1038 65.4333 21.1068Z" fill="#0B0B0B"/>
<path d="M71.7416 14.6852C72.179 14.668 72.6152 14.7383 73.0246 14.8918C73.4341 15.0454 73.8083 15.279 74.125 15.5789C74.7143 16.2069 75.042 17.0333 75.042 17.8917C75.042 18.75 74.7143 19.5765 74.125 20.2045C73.8098 20.5071 73.4361 20.743 73.0264 20.898C72.6167 21.0531 72.1797 21.124 71.7416 21.1065C71.1176 21.1203 70.5061 20.9315 70 20.5686V23.5558C70 23.7131 69.9166 23.7875 69.7583 23.7875H68.3583C68.3264 23.7935 68.2935 23.7916 68.2624 23.7821C68.2314 23.7725 68.2031 23.7556 68.1801 23.7327C68.1572 23.7099 68.1401 23.6819 68.1306 23.6511C68.1209 23.6203 68.1191 23.5876 68.125 23.5558V16.7704C68.1348 16.7041 68.1288 16.6364 68.1077 16.5727C68.0864 16.509 68.0504 16.4511 68.0027 16.4037C67.9549 16.3563 67.8967 16.3206 67.8325 16.2995C67.7684 16.2784 67.7002 16.2725 67.6333 16.2822H67.3583C67.175 16.2822 67.0833 16.216 67.0833 16.0836V15.1072C67.079 15.0468 67.0956 14.9867 67.1306 14.9371C67.1654 14.8873 67.2164 14.851 67.275 14.8341C67.5632 14.7301 67.8683 14.6796 68.175 14.6852C68.4808 14.6583 68.7877 14.7227 69.0565 14.8701C69.3251 15.0176 69.5435 15.2413 69.6833 15.5127C69.9517 15.2431 70.2727 15.0306 70.6266 14.8883C70.9806 14.7461 71.36 14.6769 71.7416 14.6852ZM70.4416 19.1288C70.5902 19.283 70.7687 19.4057 70.9664 19.4896C71.1641 19.5734 71.3767 19.6166 71.5917 19.6166C71.8066 19.6166 72.0193 19.5734 72.2169 19.4896C72.4146 19.4057 72.5931 19.283 72.7416 19.1288C73.0546 18.7821 73.2191 18.3279 73.2 17.8627C73.2218 17.3972 73.057 16.9419 72.7416 16.5967C72.5931 16.4425 72.4146 16.3198 72.2169 16.236C72.0193 16.1521 71.8066 16.1089 71.5917 16.1089C71.3767 16.1089 71.1641 16.1521 70.9664 16.236C70.7687 16.3198 70.5902 16.4425 70.4416 16.5967C70.1385 16.948 69.9806 17.4004 70 17.8627C69.9831 18.3247 70.1406 18.7763 70.4416 19.1288Z" fill="#0B0B0B"/>
<path d="M78.975 21.1066C78.2269 21.1372 77.4852 20.9595 76.8333 20.5936C76.5718 20.4372 76.3492 20.2243 76.1817 19.9707C76.0144 19.7172 75.9068 19.4295 75.8667 19.1289C75.8667 18.9634 75.925 18.8807 76.1083 18.8807H77.3333C77.3916 18.883 77.4482 18.9011 77.4967 18.9333C77.5452 18.9654 77.5838 19.0102 77.6083 19.0627C77.7833 19.5096 78.2417 19.733 78.975 19.733C79.2308 19.7447 79.4855 19.6934 79.7167 19.5841C79.7965 19.5483 79.8649 19.4917 79.9148 19.4203C79.9647 19.3489 79.9942 19.2653 80 19.1786C80 18.9634 79.8667 18.8145 79.6 18.7152C79.2837 18.6107 78.9568 18.5413 78.625 18.5083C78.2321 18.4641 77.8424 18.395 77.4583 18.3014C77.0848 18.2175 76.7453 18.0244 76.4833 17.747C76.3291 17.5585 76.2156 17.3405 76.1498 17.1066C76.084 16.8726 76.0674 16.6277 76.101 16.3871C76.1347 16.1465 76.2177 15.9153 76.3452 15.708C76.4726 15.5007 76.6416 15.3216 76.8417 15.1818C77.4423 14.8019 78.1471 14.6168 78.8583 14.6522C79.547 14.6291 80.2283 14.7983 80.825 15.1404C81.0655 15.2757 81.2725 15.4625 81.4311 15.6873C81.5897 15.912 81.6957 16.169 81.7417 16.4396C81.7417 16.6051 81.6667 16.6878 81.5167 16.6878H80.2833C80.2314 16.6909 80.1798 16.6783 80.1352 16.6518C80.0906 16.6252 80.0551 16.5858 80.0333 16.5389C79.9509 16.343 79.7957 16.1859 79.6 16.1003C79.3792 15.9856 79.1325 15.9286 78.8833 15.9348C78.6391 15.9217 78.3954 15.9701 78.175 16.0755C78.0973 16.1053 78.0305 16.1574 77.9829 16.2253C77.9354 16.2931 77.9094 16.3736 77.9083 16.4562C77.9137 16.5694 77.9554 16.6778 78.0274 16.7657C78.0994 16.8536 78.1978 16.9162 78.3083 16.9444C78.6283 17.0642 78.9611 17.1474 79.3 17.1926C79.6898 17.2436 80.0764 17.3154 80.4583 17.4078C80.8318 17.4918 81.1714 17.6848 81.4333 17.9622C81.5735 18.115 81.6817 18.2938 81.7517 18.4885C81.8218 18.683 81.8524 18.8895 81.8417 19.0958C81.8488 19.3819 81.7813 19.6649 81.6454 19.9173C81.5096 20.1696 81.3102 20.3827 81.0667 20.5357C80.4441 20.9326 79.7145 21.1317 78.975 21.1066Z" fill="#0B0B0B"/>
<path d="M90.65 20.6928C90.655 20.7221 90.6533 20.7522 90.6467 20.781C90.6392 20.81 90.6267 20.8371 90.6083 20.8611C90.5908 20.885 90.5683 20.9051 90.5425 20.9202C90.5167 20.9354 90.4883 20.9452 90.4583 20.9493C90.1542 21.0479 89.8367 21.1009 89.5167 21.1065C89.2 21.1391 88.88 21.0899 88.5883 20.9638C88.2958 20.8377 88.0417 20.6389 87.85 20.3866C87.2617 20.8891 86.5 21.147 85.725 21.1065C85.365 21.123 85.0058 21.0645 84.67 20.9348C84.3342 20.8051 84.0292 20.6071 83.775 20.3535C83.5225 20.0878 83.3268 19.7742 83.1993 19.4315C83.0719 19.0888 83.0155 18.7242 83.0333 18.3592V15.1238C83.0333 14.9665 83.1083 14.8838 83.2667 14.8838H84.6667C84.825 14.8838 84.9 14.9665 84.9 15.1238V18.111C84.885 18.4832 85.0125 18.8471 85.2583 19.1288C85.3808 19.2579 85.53 19.3593 85.695 19.4264C85.86 19.4936 86.0383 19.5247 86.2167 19.5177C86.3992 19.5257 86.5817 19.4976 86.7533 19.4351C86.925 19.3726 87.0825 19.2769 87.2167 19.1536C87.3433 19.0237 87.4425 18.8693 87.5067 18.6999C87.5717 18.5305 87.6 18.3498 87.5917 18.1689V15.1238C87.5917 14.9665 87.6667 14.8838 87.825 14.8838H89.2417C89.4 14.8838 89.475 14.9665 89.475 15.1238V19.0212C89.475 19.3439 89.6167 19.5012 89.8917 19.5012C90.0208 19.5061 90.15 19.4922 90.275 19.4598C90.3067 19.451 90.34 19.4495 90.3717 19.4552C90.4042 19.461 90.4342 19.4739 90.4608 19.493C90.4875 19.5121 90.5092 19.5369 90.525 19.5655C90.54 19.5942 90.5483 19.626 90.55 19.6584L90.65 20.6928Z" fill="#0B0B0B"/>
<path d="M103.892 20.6929C103.899 20.7225 103.9 20.7535 103.894 20.7834C103.888 20.8133 103.875 20.8416 103.857 20.8661C103.838 20.8906 103.815 20.9108 103.788 20.9252C103.761 20.9396 103.731 20.9479 103.7 20.9494C103.39 21.0495 103.068 21.1025 102.742 21.1066C102.246 21.132 101.757 20.9923 101.35 20.7094C101.174 20.5883 101.032 20.426 100.934 20.2369C100.837 20.0479 100.788 19.8378 100.792 19.6254V17.6808C100.809 17.3098 100.684 16.9459 100.442 16.663C100.325 16.5337 100.18 16.4317 100.019 16.3645C99.8575 16.2973 99.6833 16.2664 99.5083 16.2741C99.3508 16.2682 99.1942 16.2979 99.0492 16.361C98.905 16.424 98.7775 16.5189 98.675 16.6382C98.455 16.9155 98.3425 17.262 98.3583 17.6146V20.6681C98.3583 20.8253 98.2833 20.908 98.125 20.908H96.7167C96.6842 20.9121 96.6508 20.9086 96.62 20.898C96.5883 20.8873 96.56 20.8698 96.5367 20.8466C96.5133 20.8235 96.4958 20.7954 96.485 20.7645C96.4742 20.7335 96.4708 20.7006 96.475 20.6681V17.6808C96.4933 17.3138 96.3775 16.9526 96.15 16.663C96.0483 16.5414 95.9208 16.4435 95.7767 16.3763C95.6333 16.3091 95.4758 16.2742 95.3167 16.2741C95.1467 16.2673 94.9775 16.2962 94.8192 16.359C94.6608 16.4217 94.5183 16.5169 94.4 16.6382C94.1617 16.9066 94.0392 17.2573 94.0583 17.6146V20.6681C94.0625 20.7006 94.0592 20.7335 94.0483 20.7645C94.0375 20.7954 94.02 20.8235 93.9967 20.8466C93.9733 20.8698 93.945 20.8873 93.9142 20.898C93.8825 20.9086 93.8492 20.9121 93.8167 20.908H92.4583C92.3 20.908 92.225 20.8253 92.225 20.6681V16.7706C92.235 16.7042 92.2292 16.6365 92.2075 16.5728C92.1867 16.5092 92.1508 16.4513 92.1025 16.4039C92.055 16.3564 91.9967 16.3208 91.9325 16.2997C91.8683 16.2786 91.8 16.2727 91.7333 16.2824H91.4583C91.275 16.2824 91.1833 16.2162 91.1833 16.0838V15.1074C91.1792 15.0469 91.1958 14.9869 91.2308 14.9372C91.2658 14.8875 91.3167 14.8512 91.375 14.8343C91.6633 14.7303 91.9683 14.6798 92.275 14.6853C92.5692 14.6604 92.865 14.7187 93.1275 14.8534C93.39 14.9881 93.6083 15.1937 93.7583 15.4466C94.0392 15.1821 94.3725 14.9778 94.7367 14.8469C95.1008 14.7159 95.4883 14.6609 95.875 14.6853C96.2508 14.6671 96.625 14.737 96.9683 14.8895C97.3117 15.0419 97.6133 15.2724 97.85 15.5625C98.1258 15.2648 98.465 15.0318 98.8425 14.88C99.22 14.7284 99.6267 14.6619 100.033 14.6853C100.397 14.6685 100.76 14.7266 101.1 14.8563C101.44 14.9859 101.749 15.1841 102.008 15.4383C102.262 15.7036 102.458 16.0171 102.585 16.3599C102.713 16.7027 102.769 17.0677 102.75 17.4326V19.0296C102.75 19.3441 102.892 19.5013 103.158 19.5013C103.288 19.5073 103.417 19.4934 103.542 19.4599C103.714 19.4599 103.806 19.5261 103.817 19.6585L103.892 20.6929Z" fill="#0B0B0B"/>
<path d="M6.17501 13.8081C6.78982 11.3543 8.2137 9.17528 10.2199 7.61807C12.2262 6.06082 14.6994 5.21484 17.2458 5.21484C19.7923 5.21484 22.2655 6.06082 24.2718 7.61807C26.278 9.17528 27.7018 11.3543 28.3167 13.8081H27.3167C25.6298 13.7834 23.9774 14.284 22.5917 15.2396C22.5117 15.2971 22.4282 15.3497 22.3417 15.3968H22.225C22.1385 15.3497 22.055 15.2971 21.975 15.2396C20.577 14.3061 18.9305 13.8076 17.2458 13.8076C15.5612 13.8076 13.9147 14.3061 12.5167 15.2396C12.4367 15.2971 12.3532 15.3497 12.2667 15.3968H12.15C12.0635 15.3497 11.98 15.2971 11.9 15.2396C10.5143 14.284 8.86193 13.7834 7.17501 13.8081H6.17501ZM25.5167 18.9964C26.03 18.5995 26.6663 18.3918 27.3167 18.4089H28.6583V15.7526H27.3167C26.171 15.7389 25.0516 16.093 24.125 16.7622C23.6036 17.1439 22.9728 17.3499 22.325 17.3499C21.6772 17.3499 21.0464 17.1439 20.525 16.7622C19.5749 16.1055 18.4451 15.7534 17.2875 15.7534C16.1299 15.7534 15.0001 16.1055 14.05 16.7622C13.5286 17.1439 12.8978 17.3499 12.25 17.3499C11.6022 17.3499 10.9714 17.1439 10.45 16.7622C9.51201 16.0844 8.37651 15.7299 7.21668 15.7526H5.83334V18.4089H7.17501C7.82543 18.3918 8.46168 18.5995 8.97501 18.9964C9.92334 19.6536 11.0519 20.0059 12.2083 20.0059C13.3648 20.0059 14.4933 19.6536 15.4417 18.9964C15.9557 18.6007 16.5914 18.3932 17.2417 18.4089C17.8923 18.3903 18.529 18.5982 19.0417 18.9964C19.9918 19.6532 21.1216 20.0052 22.2792 20.0052C23.4368 20.0052 24.5666 19.6532 25.5167 18.9964ZM25.5167 23.7462C26.03 23.3492 26.6663 23.1415 27.3167 23.1587H28.6583V20.5024H27.3167C26.171 20.4887 25.0516 20.8428 24.125 21.512C23.6036 21.8937 22.9728 22.0996 22.325 22.0996C21.6772 22.0996 21.0464 21.8937 20.525 21.512C19.5749 20.8553 18.4451 20.5033 17.2875 20.5033C16.1299 20.5033 15.0001 20.8553 14.05 21.512C13.5286 21.8937 12.8978 22.0996 12.25 22.0996C11.6022 22.0996 10.9714 21.8937 10.45 21.512C9.51201 20.8342 8.37651 20.4797 7.21668 20.5024H5.83334V23.1587H7.17501C7.82543 23.1415 8.46168 23.3492 8.97501 23.7462C9.92334 24.4034 11.0519 24.7557 12.2083 24.7557C13.3648 24.7557 14.4933 24.4034 15.4417 23.7462C15.9557 23.3505 16.5914 23.1429 17.2417 23.1587C17.8923 23.1401 18.529 23.348 19.0417 23.7462C19.9918 24.4029 21.1216 24.755 22.2792 24.755C23.4368 24.755 24.5666 24.4029 25.5167 23.7462Z" fill="#0B0B0B"/>
</svg>
