<svg width="29" height="32" viewBox="0 0 29 32" fill="none" xmlns="http://www.w3.org/2000/svg">
<path d="M22.9856 15.667V16.3336C22.9856 16.7018 22.7164 17.0003 22.3843 17.0003H15.4678L15.4678 24.667C15.4678 25.0351 15.1985 25.3336 14.8663 25.3336H14.265C13.9328 25.3336 13.6635 25.0351 13.6635 24.667V17.0003H6.74706C6.4149 17.0003 6.14563 16.7018 6.14563 16.3336V15.667C6.14563 15.2988 6.4149 15.0003 6.74706 15.0003H13.6635V7.33365C13.6635 6.96546 13.9328 6.66699 14.265 6.66699H14.8663C15.1985 6.66699 15.4678 6.96546 15.4678 7.33365V15.0003L22.3843 15.0003C22.7164 15.0003 22.9856 15.2988 22.9856 15.667Z" fill="#F95524"/>
</svg>
