<svg width="110" height="27" viewBox="0 0 110 27" fill="none" xmlns="http://www.w3.org/2000/svg">
<g clip-path="url(#clip0_4019_31)">
<path d="M32.265 19.3252H40.0907V17.0453H35.0464V8.45752H32.265V19.3252Z" fill="#0B0B0B"/>
<path d="M44.7273 17.8051C43.6115 17.8051 43.0301 16.8627 43.0301 15.4492C43.0301 14.0356 43.6115 13.078 44.7273 13.078C45.843 13.078 46.4401 14.0356 46.4401 15.4492C46.4401 16.8627 45.843 17.8051 44.7273 17.8051ZM44.743 19.5683C47.3358 19.5683 49.033 17.7899 49.033 15.4492C49.033 13.1084 47.3358 11.3301 44.743 11.3301C42.1658 11.3301 40.4373 13.1084 40.4373 15.4492C40.4373 17.7899 42.1658 19.5683 44.743 19.5683Z" fill="#0B0B0B"/>
<path d="M53.521 22.0155C54.7153 22.0155 55.7681 21.7571 56.4753 21.1491C57.1196 20.5867 57.5438 19.7355 57.5438 18.5652V11.5429H55.0924V12.3789H55.061C54.5896 11.7253 53.8667 11.3149 52.7981 11.3149C50.8024 11.3149 49.4196 12.9261 49.4196 15.206C49.4196 17.5924 51.101 18.8995 52.9081 18.8995C53.8824 18.8995 54.4953 18.5196 54.9667 18.0028H55.0296V18.7779C55.0296 19.7203 54.5738 20.2675 53.4896 20.2675C52.641 20.2675 52.2167 19.9179 52.0753 19.5075H49.5924C49.8438 21.1339 51.3053 22.0155 53.521 22.0155ZM53.5053 17.0604C52.5467 17.0604 51.9181 16.3004 51.9181 15.13C51.9181 13.9445 52.5467 13.1845 53.5053 13.1845C54.5738 13.1845 55.1396 14.0661 55.1396 15.1148C55.1396 16.2092 54.621 17.0604 53.5053 17.0604Z" fill="#0B0B0B"/>
<path d="M62.5844 17.8051C61.4687 17.8051 60.8873 16.8627 60.8873 15.4492C60.8873 14.0356 61.4687 13.078 62.5844 13.078C63.7001 13.078 64.2973 14.0356 64.2973 15.4492C64.2973 16.8627 63.7001 17.8051 62.5844 17.8051ZM62.6001 19.5683C65.193 19.5683 66.8898 17.7899 66.8898 15.4492C66.8898 13.1084 65.193 11.3301 62.6001 11.3301C60.023 11.3301 58.2944 13.1084 58.2944 15.4492C58.2944 17.7899 60.023 19.5683 62.6001 19.5683Z" fill="#0B0B0B"/>
<path d="M67.6382 19.3252H70.1996V11.543H67.6382V19.3252ZM67.6382 10.4639H70.1996V8.45752H67.6382V10.4639Z" fill="#0B0B0B"/>
<path d="M71.3108 21.8939H73.8722V18.5196H73.9036C74.4065 19.1731 75.1451 19.5683 76.1822 19.5683C78.2879 19.5683 79.6865 17.9572 79.6865 15.434C79.6865 13.0933 78.3822 11.3149 76.2451 11.3149C75.1451 11.3149 74.3594 11.7861 73.8094 12.4853H73.7622V11.5429H71.3108V21.8939ZM75.5222 17.6532C74.4222 17.6532 73.7936 16.7868 73.7936 15.5252C73.7936 14.2637 74.3594 13.3061 75.4751 13.3061C76.5751 13.3061 77.0936 14.1877 77.0936 15.5252C77.0936 16.8476 76.4965 17.6532 75.5222 17.6532Z" fill="#0B0B0B"/>
<path d="M83.8566 19.5683C85.9624 19.5683 87.5181 18.6867 87.5181 16.9844C87.5181 14.9932 85.8524 14.6437 84.4381 14.4157C83.4166 14.2333 82.5052 14.1573 82.5052 13.6101C82.5052 13.1237 82.9924 12.8957 83.6209 12.8957C84.3281 12.8957 84.8152 13.1085 84.9095 13.8077H87.2666C87.1409 12.2725 85.9152 11.3149 83.6366 11.3149C81.7352 11.3149 80.1638 12.1661 80.1638 13.8077C80.1638 15.6316 81.6566 15.9964 83.0552 16.2244C84.1238 16.4068 85.0981 16.4828 85.0981 17.182C85.0981 17.6836 84.6109 17.9572 83.8409 17.9572C82.9924 17.9572 82.4581 17.5772 82.3638 16.802H79.9438C80.0224 18.5196 81.4995 19.5683 83.8566 19.5683Z" fill="#0B0B0B"/>
<path d="M90.9975 19.5532C92.1132 19.5532 92.8204 19.1276 93.4018 18.3676H93.4489V19.3252H95.9004V11.543H93.3389V15.8901C93.3389 16.8172 92.8047 17.4556 91.9247 17.4556C91.1075 17.4556 90.7147 16.9844 90.7147 16.1332V11.543H88.1689V16.65C88.1689 18.3828 89.1432 19.5532 90.9975 19.5532Z" fill="#0B0B0B"/>
<path d="M97.0148 19.3251H99.5762V14.9628C99.5762 14.0357 100.048 13.3821 100.849 13.3821C101.619 13.3821 101.98 13.8685 101.98 14.7045V19.3251H104.542V14.9628C104.542 14.0357 104.998 13.3821 105.815 13.3821C106.585 13.3821 106.946 13.8685 106.946 14.7045V19.3251H109.508V14.2637C109.508 12.5157 108.596 11.3149 106.773 11.3149C105.736 11.3149 104.872 11.7405 104.243 12.6829H104.212C103.803 11.8469 103.002 11.3149 101.949 11.3149C100.786 11.3149 100.016 11.8469 99.5133 12.6525H99.4662V11.5429H97.0148V19.3251Z" fill="#0B0B0B"/>
<path d="M16.6374 2.24116L14.0623 1.57373L11.8921 9.40758L9.93288 2.33513L7.35764 3.00256L9.47449 10.6438L4.20192 5.54398L2.31674 7.36742L8.10007 12.9614L0.89785 11.0947L0.207825 13.5856L8.07716 15.6251C7.98706 15.2492 7.9394 14.8576 7.9394 14.4552C7.9394 11.6068 10.3267 9.2977 13.2715 9.2977C16.2164 9.2977 18.6036 11.6068 18.6036 14.4552C18.6036 14.855 18.5566 15.2442 18.4676 15.6179L25.6193 17.4714L26.3093 14.9806L18.4087 12.9329L25.6114 11.0662L24.9214 8.57534L17.0211 10.6229L22.2936 5.52304L20.4084 3.6996L14.7053 9.21594L16.6374 2.24116Z" fill="#0B0B0B"/>
<path d="M18.4606 15.647C18.2398 16.5498 17.7737 17.3609 17.1341 18.0108L22.3152 23.0223L24.2004 21.1988L18.4606 15.647Z" fill="#0B0B0B"/>
<path d="M17.0817 18.063C16.4344 18.7024 15.6164 19.1797 14.6991 19.4256L16.5844 26.2312L19.1596 25.5637L17.0817 18.063Z" fill="#0B0B0B"/>
<path d="M14.6029 19.4507C14.1773 19.5565 13.7312 19.6127 13.2715 19.6127C12.779 19.6127 12.3021 19.5481 11.8493 19.4272L9.96228 26.2391L12.5375 26.9065L14.6029 19.4507Z" fill="#0B0B0B"/>
<path d="M11.7583 19.4023C10.855 19.1441 10.0515 18.6608 9.41746 18.0195L4.22357 23.0433L6.10876 24.8668L11.7583 19.4023Z" fill="#0B0B0B"/>
<path d="M9.3741 17.9752C8.7509 17.3298 8.29695 16.5295 8.08088 15.6406L0.905762 17.5002L1.59578 19.9911L9.3741 17.9752Z" fill="#0B0B0B"/>
</g>
<defs>
<clipPath id="clip0_4019_31">
<rect width="110" height="25.966" fill="white" transform="translate(0 0.989258)"/>
</clipPath>
</defs>
</svg>
