<svg width="106" height="28" viewBox="0 0 106 28" fill="none" xmlns="http://www.w3.org/2000/svg">
<path d="M12.2216 5.46124V1.96582H1.62164V25.9814H12.2216V22.486C10.0502 22.486 7.96772 21.5891 6.43233 19.9927C4.89692 18.3964 4.03433 16.2313 4.03433 13.9736C4.03433 11.716 4.89692 9.55081 6.43233 7.95446C7.96772 6.35808 10.0502 5.46124 12.2216 5.46124Z" fill="#0B0B0B"/>
<path d="M12.2216 5.46143V22.4862C14.393 22.4862 16.4755 21.5893 18.011 19.9929C19.5464 18.3965 20.4089 16.2314 20.4089 13.9738C20.4089 11.7162 19.5464 9.55099 18.011 7.95465C16.4755 6.35827 14.393 5.46143 12.2216 5.46143Z" fill="#0B0B0B"/>
<path d="M26.3576 7.6001H28.7307V19.4845H26.3576V7.6001Z" fill="#0B0B0B"/>
<path d="M30.0597 15.413C30.0597 14.558 30.3039 13.7222 30.7613 13.0116C31.2187 12.301 31.8687 11.7476 32.6289 11.4215C33.3892 11.0955 34.2254 11.0114 35.0317 11.18C35.8379 11.3486 36.5778 11.7623 37.1577 12.3686C37.7375 12.975 38.1312 13.7466 38.2888 14.5859C38.4463 15.4251 38.3607 16.294 38.0427 17.0826C37.7247 17.8711 37.1888 18.5437 36.5027 19.0152C35.8166 19.4867 35.0113 19.7357 34.189 19.7309C33.6435 19.7353 33.1027 19.6265 32.5982 19.4107C32.0938 19.195 31.6358 18.8767 31.2512 18.4746C30.8666 18.0724 30.5631 17.5944 30.3585 17.0687C30.1539 16.543 30.0523 15.9801 30.0597 15.413ZM36.0084 15.413C35.999 15.0444 35.8853 14.6868 35.6816 14.385C35.4778 14.0832 35.193 13.8505 34.8627 13.7161C34.5324 13.5817 34.1714 13.5515 33.8248 13.6294C33.478 13.7072 33.1611 13.8896 32.9136 14.1537C32.6661 14.4178 32.499 14.7519 32.4332 15.1143C32.3673 15.4767 32.4057 15.8511 32.5435 16.1909C32.6813 16.5306 32.9124 16.8207 33.2079 17.0246C33.5034 17.2286 33.8501 17.3374 34.2048 17.3375C34.4463 17.3425 34.6861 17.2955 34.9094 17.1996C35.1326 17.1038 35.3344 16.9611 35.5022 16.7805C35.6699 16.5999 35.8001 16.3851 35.8845 16.1499C35.9689 15.9146 36.0057 15.6638 35.9925 15.413H36.0084Z" fill="#0B0B0B"/>
<path d="M47.7079 11.3419V19.0812C47.7079 21.8117 45.6512 22.9714 43.5707 22.9714C42.8369 23.034 42.1008 22.8824 41.4454 22.5337C40.79 22.1849 40.2411 21.6529 39.8607 20.9975L41.8621 19.7967C42.0242 20.1367 42.2822 20.4172 42.6016 20.6008C42.921 20.7845 43.2867 20.8626 43.6498 20.8248C43.8812 20.8544 44.116 20.8305 44.3374 20.7549C44.5589 20.6791 44.7615 20.5535 44.9308 20.3869C45.1001 20.2203 45.2319 20.0169 45.3168 19.7911C45.4017 19.5654 45.4375 19.323 45.4218 19.0812V18.3327C45.1456 18.6809 44.7952 18.9572 44.3984 19.14C44.0015 19.3227 43.5692 19.4068 43.1356 19.3855C42.0866 19.3855 41.0807 18.9522 40.3389 18.181C39.5971 17.4099 39.1804 16.3639 39.1804 15.2732C39.1804 14.1826 39.5971 13.1366 40.3389 12.3654C41.0807 11.5942 42.0866 11.161 43.1356 11.161C43.5692 11.1397 44.0015 11.2237 44.3984 11.4065C44.7952 11.5892 45.1456 11.8655 45.4218 12.2137V11.3912L47.7079 11.3419ZM45.4218 15.2485C45.4375 14.8551 45.3397 14.4656 45.1409 14.1304C44.9422 13.7952 44.6515 13.5294 44.3062 13.3673C43.961 13.2052 43.5771 13.1542 43.2038 13.2209C42.8305 13.2875 42.4848 13.4687 42.2113 13.7411C41.9378 14.0136 41.749 14.365 41.6691 14.75C41.5892 15.135 41.6219 15.5359 41.7629 15.9014C41.9041 16.2669 42.1471 16.5802 42.4607 16.8009C42.7745 17.0217 43.1445 17.1398 43.5233 17.1402C43.7705 17.1587 44.0186 17.1231 44.2517 17.0357C44.4848 16.9483 44.6977 16.811 44.8766 16.6327C45.0555 16.4545 45.1965 16.2392 45.2904 16.0008C45.3843 15.7623 45.429 15.506 45.4218 15.2485Z" fill="#0B0B0B"/>
<path d="M49.0448 15.4131C49.0448 14.5587 49.2886 13.7236 49.7452 13.0134C50.2019 12.3031 50.851 11.7497 51.6103 11.4231C52.3696 11.0965 53.205 11.0115 54.0109 11.1788C54.8167 11.3461 55.5566 11.7581 56.1372 12.3628C56.7177 12.9675 57.1126 13.7377 57.2719 14.5758C57.4313 15.4139 57.3479 16.2824 57.0323 17.0712C56.7168 17.8601 56.1832 18.5338 55.4993 19.0073C54.8153 19.4808 54.0116 19.7326 53.1898 19.731C52.6434 19.7365 52.1013 19.6285 51.5955 19.4133C51.0897 19.1982 50.6303 18.8802 50.2442 18.4781C49.8581 18.0759 49.5532 17.5976 49.3472 17.0713C49.1413 16.545 49.0384 15.9813 49.0448 15.4131ZM54.9934 15.4131C54.9841 15.0442 54.8702 14.6862 54.6661 14.3842C54.462 14.0823 54.1767 13.8496 53.8459 13.7155C53.5152 13.5813 53.1538 13.5516 52.8069 13.6302C52.46 13.7087 52.1431 13.8919 51.8959 14.1568C51.6487 14.4217 51.4822 14.7566 51.4173 15.1195C51.3524 15.4824 51.3919 15.8571 51.5309 16.1967C51.6699 16.5363 51.9022 16.8257 52.1987 17.0287C52.4952 17.2316 52.8427 17.3391 53.1978 17.3376C53.4393 17.3426 53.6791 17.2956 53.9023 17.1997C54.1256 17.1039 54.3274 16.9612 54.4951 16.7806C54.6629 16.6 54.7931 16.3852 54.8775 16.15C54.9619 15.9147 54.9987 15.6639 54.9855 15.4131H54.9934Z" fill="#0B0B0B"/>
<path d="M58.4344 9.1627C58.4344 8.87319 58.517 8.59011 58.6718 8.34937C58.8265 8.10861 59.0464 7.92098 59.3036 7.81017C59.561 7.69937 59.8441 7.67037 60.1172 7.72686C60.3903 7.78335 60.6412 7.92278 60.8382 8.12752C61.0351 8.33227 61.1692 8.59315 61.2235 8.87706C61.2779 9.16105 61.2499 9.45541 61.1434 9.72295C61.0368 9.99041 60.8563 10.2191 60.6248 10.3799C60.3932 10.5408 60.121 10.6267 59.8425 10.6267C59.4703 10.6224 59.1146 10.4668 58.8514 10.1931C58.5882 9.91952 58.4386 9.54966 58.4344 9.1627ZM58.6639 11.3422H61.037V19.4845H58.6639V11.3422Z" fill="#0B0B0B"/>
<path d="M71.194 15.413C71.2206 15.9545 71.144 16.4962 70.9684 17.0067C70.793 17.5173 70.5221 17.9868 70.1714 18.3881C69.8206 18.7894 69.3971 19.1146 68.925 19.3451C68.453 19.5755 67.9418 19.7066 67.4208 19.7309C66.9787 19.7615 66.5356 19.6879 66.1247 19.5156C65.7138 19.3432 65.3456 19.0766 65.0476 18.7357V22.7575H62.6745V11.3419H65.0476V12.1067C65.346 11.7668 65.7145 11.5015 66.1254 11.3306C66.5364 11.1596 66.9792 11.0876 67.4208 11.1198C67.9397 11.1441 68.4489 11.2744 68.9193 11.5033C69.3898 11.7322 69.8123 12.0553 70.1626 12.4539C70.513 12.8525 70.7844 13.319 70.9614 13.8268C71.1384 14.3345 71.2175 14.8735 71.194 15.413ZM68.8209 15.413C68.8116 15.031 68.694 14.6604 68.4829 14.3476C68.2719 14.0348 67.9766 13.7937 67.6343 13.6546C67.2921 13.5154 66.9179 13.4845 66.5587 13.5655C66.1995 13.6465 65.8714 13.836 65.6154 14.1102C65.3593 14.3843 65.1868 14.7309 65.1195 15.1066C65.0521 15.4822 65.0928 15.8701 65.2366 16.2218C65.3804 16.5734 65.6208 16.8731 65.9277 17.0833C66.2347 17.2935 66.5944 17.4048 66.962 17.4033C67.2137 17.4144 67.4648 17.3701 67.6989 17.2732C67.933 17.1763 68.1448 17.0291 68.3203 16.8412C68.4959 16.6533 68.6311 16.4288 68.7174 16.1827C68.8038 15.9366 68.839 15.6743 68.8209 15.413Z" fill="#0B0B0B"/>
<path d="M78.4162 17.0414C78.4162 18.9166 76.8342 19.7144 75.1571 19.7144C74.4731 19.7784 73.7864 19.6276 73.1857 19.2816C72.585 18.9356 72.0979 18.4103 71.7873 17.7734L73.8282 16.5726C73.909 16.8661 74.0843 17.1218 74.3248 17.297C74.5653 17.4722 74.8563 17.5561 75.1492 17.5349C75.7109 17.5349 75.9957 17.354 75.9957 17.025C75.9957 16.1285 72.1433 16.6055 72.1433 13.7845C72.1433 12.008 73.583 11.1198 75.2125 11.1198C75.8319 11.0909 76.4473 11.2371 76.9932 11.5426C77.5392 11.8482 77.9954 12.3017 78.3134 12.8552L76.2725 13.9737C76.1823 13.7615 76.035 13.5811 75.8484 13.4541C75.6616 13.3271 75.4435 13.2591 75.2204 13.2582C74.8091 13.2582 74.5639 13.4227 74.5639 13.7105C74.5639 14.6481 78.4162 14.0313 78.4162 17.0414Z" fill="#0B0B0B"/>
<path d="M87.0149 11.3418V19.4841H84.6418V18.7192C84.372 19.0578 84.0295 19.3257 83.6427 19.5014C83.2551 19.6772 82.8335 19.7557 82.411 19.7308C80.8289 19.7308 79.4763 18.5547 79.4763 16.3588V11.3418H81.8494V15.9887C81.8304 16.1829 81.8526 16.3791 81.9143 16.5636C81.976 16.7481 82.0748 16.9165 82.2046 17.0573C82.3351 17.1981 82.4933 17.3078 82.6681 17.3789C82.8429 17.45 83.0304 17.4807 83.2179 17.4691C84.0722 17.4691 84.6734 16.9427 84.6734 15.8242V11.3418H87.0149Z" fill="#0B0B0B"/>
<path d="M100.463 14.484V19.4845H98.0895V14.6979C98.0895 13.8754 97.7178 13.3655 96.9663 13.3655C96.2148 13.3655 95.7401 13.933 95.7401 14.8952V19.4845H93.367V14.6979C93.367 13.8754 92.9952 13.3655 92.2437 13.3655C91.4922 13.3655 91.0176 13.933 91.0176 14.8952V19.4845H88.6445V11.3422H91.0176V12.0907C91.2636 11.7601 91.584 11.4982 91.9518 11.3288C92.3189 11.1593 92.7215 11.0876 93.1218 11.1202C93.5228 11.0984 93.9231 11.1856 94.2822 11.373C94.6414 11.5604 94.9475 11.8418 95.1706 12.1894C95.4316 11.8262 95.7765 11.5377 96.1736 11.3507C96.57 11.1637 97.0066 11.0844 97.4409 11.1202C99.2919 11.1202 100.463 12.4526 100.463 14.484Z" fill="#0B0B0B"/>
<path d="M102.456 11.2926C103.417 11.2926 104.196 10.4825 104.196 9.48322C104.196 8.48394 103.417 7.67383 102.456 7.67383C101.495 7.67383 100.716 8.48394 100.716 9.48322C100.716 10.4825 101.495 11.2926 102.456 11.2926Z" fill="#0B0B0B"/>
</svg>
