<svg width="256" height="256" viewBox="0 0 256 256" fill="none" xmlns="http://www.w3.org/2000/svg">
<rect width="256" height="256" rx="26" fill="black"/>
<path d="M47.4645 173V81.3636H108.138V97.3374H66.8388V119.173H104.111V135.146H66.8388V173H47.4645ZM187.443 107.718C187.085 104.109 185.548 101.305 182.834 99.3061C180.119 97.3075 176.436 96.3082 171.782 96.3082C168.62 96.3082 165.95 96.7557 163.773 97.6506C161.595 98.5156 159.925 99.7237 158.762 101.275C157.628 102.826 157.061 104.586 157.061 106.555C157.002 108.195 157.345 109.627 158.09 110.85C158.866 112.073 159.925 113.132 161.267 114.027C162.61 114.892 164.161 115.653 165.921 116.309C167.681 116.935 169.56 117.472 171.558 117.92L179.791 119.888C183.788 120.783 187.458 121.977 190.798 123.468C194.139 124.96 197.033 126.794 199.479 128.972C201.925 131.149 203.819 133.714 205.161 136.668C206.534 139.621 207.235 143.006 207.264 146.825C207.235 152.433 205.803 157.295 202.969 161.411C200.165 165.498 196.108 168.675 190.798 170.942C185.519 173.179 179.15 174.298 171.693 174.298C164.295 174.298 157.852 173.164 152.363 170.897C146.904 168.63 142.639 165.274 139.566 160.83C136.524 156.355 134.928 150.822 134.779 144.229H153.526C153.735 147.302 154.615 149.867 156.166 151.925C157.747 153.954 159.85 155.49 162.475 156.534C165.13 157.548 168.128 158.055 171.469 158.055C174.75 158.055 177.599 157.578 180.015 156.624C182.461 155.669 184.355 154.342 185.698 152.641C187.04 150.941 187.711 148.987 187.711 146.78C187.711 144.722 187.1 142.991 185.877 141.589C184.683 140.187 182.923 138.994 180.597 138.01C178.3 137.026 175.481 136.131 172.14 135.325L162.162 132.82C154.436 130.94 148.336 128.002 143.862 124.005C139.387 120.008 137.165 114.624 137.195 107.852C137.165 102.304 138.641 97.4567 141.624 93.3104C144.637 89.1641 148.769 85.9276 154.019 83.6009C159.269 81.2741 165.235 80.1108 171.916 80.1108C178.717 80.1108 184.654 81.2741 189.725 83.6009C194.825 85.9276 198.793 89.1641 201.627 93.3104C204.46 97.4567 205.922 102.259 206.012 107.718H187.443Z" fill="#F95524"/>
</svg>
