<svg xmlns="http://www.w3.org/2000/svg" width="451" height="198" viewBox="0 0 451 198" fill="none"><path d="M81.1431 145.046H55.4001C54.9039 145.046 54.5456 144.605 54.6283 144.123L58.68 121.618H57.4121C57.04 121.618 56.7093 121.894 56.6404 122.266C52.947 141.532 45.2985 146.975 33.5157 146.975C16.9922 146.975 10.2808 133.525 10.2808 107.796V45.3674C10.2808 21.3607 20.0791 8.68213 46.1943 8.68213C72.1303 8.68213 81.9149 21.3607 81.9149 45.3674V58.5972C81.9149 59.0245 81.5566 59.3828 81.1294 59.3828H54.0771C53.6499 59.3828 53.2915 59.0245 53.2915 58.5972V53.0435C53.2915 39.4002 51.376 36.1478 46.1805 36.1478C40.985 36.1478 39.0695 39.414 39.0695 53.0435V64.5507C39.0695 64.9779 39.4278 65.3362 39.855 65.3362H81.3085C81.7495 65.3362 82.094 65.6945 82.094 66.1217L81.9011 144.26C81.9011 144.688 81.5428 145.046 81.1156 145.046H81.1431ZM39.097 100.106C39.097 115.665 40.6267 119.51 45.4363 119.51C48.7024 119.51 51.3898 115.858 51.3898 99.155V91.1068C51.3898 90.6796 51.0315 90.3213 50.6042 90.3213H39.8825C39.4553 90.3213 39.097 90.6796 39.097 91.1068V100.12V100.106Z" fill="#D6D9EA"></path><path d="M89.4254 10.5978H116.671C117.098 10.5978 117.456 10.9561 117.456 11.3833V102.6C117.456 116.244 119.372 119.51 124.567 119.51C129.749 119.51 131.678 116.244 131.678 102.6V11.3833C131.678 10.9561 132.037 10.5978 132.464 10.5978H159.709C160.136 10.5978 160.495 10.9561 160.495 11.3833V110.29C160.495 134.297 150.503 146.975 124.581 146.975C98.4521 146.975 88.6675 134.297 88.6675 110.29V11.3833C88.6675 10.9561 89.0258 10.5978 89.453 10.5978H89.4254Z" fill="#D6D9EA"></path><path d="M222.702 38.0635H199.109C198.682 38.0635 198.324 38.4218 198.324 38.849V63.214C198.324 63.6412 198.682 63.9995 199.109 63.9995H219.822C220.249 63.9995 220.608 64.3578 220.608 64.785V88.1853C220.608 88.6125 220.249 88.9708 219.822 88.9708H199.109C198.682 88.9708 198.324 89.3291 198.324 89.7564V116.809C198.324 117.236 198.682 117.594 199.109 117.594H222.702C223.13 117.594 223.488 117.952 223.488 118.38V144.274C223.488 144.702 223.13 145.06 222.702 145.06H168.377C167.95 145.06 167.592 144.702 167.592 144.274V11.3833C167.592 10.9561 167.95 10.5978 168.377 10.5978H222.702C223.13 10.5978 223.488 10.9561 223.488 11.3833V37.278C223.488 37.7052 223.13 38.0635 222.702 38.0635Z" fill="#D6D9EA"></path><path d="M301.655 107.782C301.655 135.441 296.087 146.962 279.564 146.962C268.167 146.962 259.788 141.518 255.888 124.154C255.805 123.796 255.488 123.534 255.13 123.534H253.834L257.142 144.137C257.224 144.619 256.852 145.046 256.37 145.046H230.613C230.186 145.046 229.828 144.688 229.828 144.261V11.3833C229.828 10.9561 230.186 10.5978 230.613 10.5978H264.956C285.228 10.5978 301.655 27.0248 301.655 47.2968V107.782ZM272.838 56.8885C272.838 41.3296 270.923 38.0635 265.727 38.0635H261.331C260.904 38.0635 260.546 38.4218 260.546 38.849V99.1413C260.546 115.858 263.04 119.496 266.499 119.496C271.102 119.496 272.838 115.651 272.838 100.092V56.8747V56.8885Z" fill="#D6D9EA"></path><path d="M363.49 38.0635H339.897C339.47 38.0635 339.111 38.4218 339.111 38.849V63.214C339.111 63.6412 339.47 63.9995 339.897 63.9995H360.61C361.037 63.9995 361.395 64.3578 361.395 64.785V88.1853C361.395 88.6125 361.037 88.9708 360.61 88.9708H339.897C339.47 88.9708 339.111 89.3291 339.111 89.7564V116.809C339.111 117.236 339.47 117.594 339.897 117.594H363.49C363.917 117.594 364.275 117.952 364.275 118.38V144.274C364.275 144.702 363.917 145.06 363.49 145.06H309.165C308.738 145.06 308.379 144.702 308.379 144.274V11.3833C308.379 10.9561 308.738 10.5978 309.165 10.5978H363.49C363.917 10.5978 364.275 10.9561 364.275 11.3833V37.278C364.275 37.7052 363.917 38.0635 363.49 38.0635Z" fill="#D6D9EA"></path><path d="M404.227 119.496C408.458 119.496 410.759 115.844 410.759 106.238V104.323C410.759 91.0655 401.925 86.2697 391.548 79.5445C380.22 72.0476 368.878 63.9856 368.878 43.438V41.5225C368.878 22.8904 378.677 8.68213 404.792 8.68213C430.728 8.68213 440.705 21.3607 440.705 45.3674V58.5972C440.705 59.0245 440.347 59.3828 439.92 59.3828H412.675C412.248 59.3828 411.889 59.0245 411.889 58.5972V53.0435C411.889 39.4002 409.202 36.1478 404.02 36.1478C400.368 36.1478 398.646 38.8352 398.646 43.2589V45.1745C398.646 54.2011 408.251 60.3474 418.435 67.2655C430.149 75.3275 440.719 83.2103 440.719 105.866V109.711C440.719 133.718 430.728 146.975 404.806 146.975C378.691 146.975 368.892 133.718 368.892 109.711V101.263C368.892 93.7528 369.65 90.4729 370.036 89.3153C370.146 88.9845 370.436 88.7778 370.78 88.7778H398.053C398.549 88.7778 398.921 89.2326 398.825 89.7149C398.439 91.5616 397.708 96.2747 397.708 105.108C397.708 114.714 399.817 119.51 404.241 119.51L404.227 119.496Z" fill="#D6D9EA"></path><path d="M294.593 115.95L148.339 145.44C144.047 146.306 141.269 150.487 142.134 154.779L149.095 189.298C149.96 193.59 154.141 196.368 158.433 195.503L304.688 166.013C308.98 165.147 311.758 160.966 310.892 156.674L303.932 122.154C303.066 117.862 298.885 115.085 294.593 115.95Z" fill="#2942F2"></path><path d="M156.881 196.34C152.869 196.34 149.255 193.51 148.431 189.429L141.465 154.915C140.531 150.257 143.553 145.696 148.211 144.762L294.455 115.263C299.113 114.328 303.675 117.351 304.609 122.009L311.575 156.523C312.028 158.776 311.575 161.084 310.311 162.994C309.033 164.918 307.096 166.223 304.842 166.676L158.598 196.175C158.021 196.285 157.458 196.34 156.894 196.34H156.881ZM296.159 116.472C295.692 116.472 295.211 116.513 294.73 116.609L148.486 146.108C144.57 146.891 142.028 150.725 142.811 154.64L149.777 189.154C150.561 193.07 154.394 195.612 158.31 194.829L304.554 165.33C306.45 164.945 308.085 163.846 309.157 162.238C310.228 160.631 310.613 158.694 310.228 156.798L303.262 122.284C302.575 118.849 299.539 116.472 296.159 116.472Z" fill="#D6D9EA"></path><path d="M184.538 171.361C184.085 174.494 182.148 177.022 178.507 177.75C173.025 178.863 168.491 175.016 167.103 168.174L167.075 168.05C165.701 161.235 168.353 155.918 174.055 154.764C178.053 153.953 180.911 155.588 182.945 159.408L181.777 159.971C179.853 156.468 177.435 155.3 174.302 155.932C169.549 156.894 167.24 161.441 168.504 167.748L168.532 167.872C169.796 174.151 173.67 177.489 178.397 176.541C182.299 175.758 184.621 172.419 183.59 167.281L183.439 166.525L176.844 167.858L176.611 166.69L184.593 165.082L186.737 175.703L185.473 175.964L184.552 171.375L184.538 171.361Z" fill="#D6D9EA"></path><path d="M196.574 163.338L190.557 164.547L192.576 174.522L191.189 174.81L186.709 152.621L194.253 151.096C198.91 150.161 201.878 152.263 202.592 155.808C203.266 159.174 201.411 161.757 198.045 162.898L206.646 171.691L205.066 172.007L196.588 163.324L196.574 163.338ZM190.309 163.379L196.492 162.128C200.229 161.373 201.672 158.872 201.109 156.056C200.545 153.266 198.251 151.521 194.514 152.277L188.331 153.527L190.323 163.379H190.309Z" fill="#D6D9EA"></path><path d="M206.178 160.301L206.151 160.177C204.777 153.39 207.525 148.031 213.131 146.891C218.736 145.764 223.353 149.639 224.713 156.426L224.741 156.55C226.114 163.337 223.367 168.696 217.761 169.836C212.155 170.977 207.539 167.088 206.178 160.301ZM223.325 156.839L223.298 156.715C222.048 150.505 218.063 147.111 213.378 148.059C208.693 149.007 206.329 153.665 207.58 159.875L207.607 159.999C208.858 166.209 212.842 169.603 217.527 168.655C222.212 167.707 224.576 163.049 223.325 156.839Z" fill="#D6D9EA"></path><path d="M226.843 162.335C225.867 157.484 228.547 149.392 231.226 144.006L226.225 145.023C223.504 145.572 222.886 146.946 223.106 148.059C223.216 148.595 223.559 148.993 224.274 149.241C224.562 149.351 224.933 149.543 225.016 149.955C225.112 150.395 224.782 150.766 224.342 150.848C223.642 150.986 222.652 150.299 222.405 149.062C222.062 147.345 223.133 144.363 227.283 143.525L229.687 143.044C231.624 142.659 231.982 142.288 232.16 142.247C232.325 142.22 232.435 142.288 232.462 142.453C232.49 142.55 232.435 142.659 232.366 142.797C229.591 148.334 227.393 156.234 228.382 161.153C228.904 163.75 230.031 165.728 232.311 165.275C233.768 164.986 235.169 163.75 236.392 161.95C236.007 161.043 235.705 160.04 235.499 158.968C233.988 151.453 235.073 141.972 238.329 141.313C239.813 141.011 240.72 142.179 241.201 144.555C242.094 148.966 240.431 155.918 237.711 160.919C238.549 162.637 239.772 163.763 241.352 163.447C245.694 162.568 249.431 153.115 248.084 146.493C247.246 142.302 245.172 141.574 244.952 140.461C244.856 139.98 245.13 139.568 245.584 139.486C246.944 139.211 248.332 141.863 248.909 144.72C250.544 152.84 246.147 164.079 240.83 165.151C238.989 165.522 237.656 164.437 236.694 162.651C235.183 164.973 233.438 166.635 231.666 166.992C228.849 167.556 227.406 165.151 226.843 162.362V162.335ZM237.409 160.205C239.676 155.891 241.008 149.749 240.129 145.407C239.703 143.319 239.099 142.288 238.096 142.495C235.911 142.934 235.21 150.464 236.639 157.526C236.832 158.474 237.079 159.381 237.409 160.205Z" fill="#D6D9EA"></path><path d="M256.259 139.843L260.491 160.823L259.103 161.098L254.872 140.118L247.493 141.601L247.246 140.392L263.404 137.136L263.651 138.345L256.273 139.829L256.259 139.843Z" fill="#D6D9EA"></path><path d="M266 136.628L267.388 136.339L269.449 146.575L282.185 144.006L280.124 133.77L281.526 133.481L286.005 155.671L284.603 155.946L282.433 145.201L269.696 147.771L271.867 158.515L270.465 158.79L265.986 136.6L266 136.628Z" fill="#D6D9EA"></path></svg>