<svg width="254" height="331" viewBox="0 0 254 331" fill="none" xmlns="http://www.w3.org/2000/svg">
<path d="M184.382 6.59701C192.782 -0.102868 201.482 -3.00332 210.882 4.19662C221.182 11.9966 219.281 21.497 214.281 31.597C197.581 65.197 180.881 98.7974 164.281 132.497C162.182 136.697 160.382 141.098 157.682 146.997C183.482 146.997 207.281 147.297 231.081 146.897C241.881 146.797 252.581 148.897 253.581 160.297C254.181 167.797 249.681 178.597 243.781 183.497C186.482 230.597 128.282 276.597 70.4817 322.997C61.7817 329.997 52.8814 333.997 42.7815 326.297C31.7816 317.797 34.7818 307.897 39.9816 297.497C56.4816 264.397 72.8815 231.197 89.2815 197.897C91.3814 193.697 93.182 189.297 95.882 183.397C69.6821 183.397 45.3818 183.197 21.1818 183.397C10.6819 183.597 0.98128 180.697 0.081257 170.097C-0.618733 162.897 3.28158 152.297 8.78145 147.797C66.8815 100.197 125.782 53.597 184.382 6.59701Z" fill="white"/>
</svg>
