<svg width="170" height="66" viewBox="0 0 170 66" fill="none" xmlns="http://www.w3.org/2000/svg">
<path fill-rule="evenodd" clip-rule="evenodd" d="M117.174 52.1359C111.338 52.1359 106.569 50.0235 103.261 46.4523C99.9573 42.8851 98.1396 37.8923 98.1396 32.1715C98.1396 26.4509 99.9573 21.4708 103.262 17.9166C106.57 14.3586 111.338 12.2598 117.174 12.2598C122.983 12.2598 127.752 14.3588 131.066 17.9163C134.377 21.4701 136.209 26.4501 136.209 32.1715C136.209 37.893 134.377 42.8858 131.067 46.4526C127.753 50.0231 122.984 52.1359 117.174 52.1359ZM126.26 41.879C128.178 39.3709 129.067 35.9162 129.067 32.1715C129.067 28.4538 128.178 25.0123 126.26 22.5106C124.355 20.0251 121.404 18.4263 117.174 18.4263C112.944 18.4263 109.979 20.0254 108.061 22.5116C106.13 25.0136 105.228 28.455 105.228 32.1715C105.228 35.915 106.13 39.3695 108.062 41.8779C109.98 44.3704 112.944 45.9694 117.174 45.9694C121.404 45.9694 124.355 44.3706 126.26 41.879ZM72.0625 13.0462H79.2042V45.2355H98.1431V51.3494H72.0625V13.0462ZM44.1747 42.4895H59.0732L62.15 51.3494H69.4583L55.2555 13.0462H48.0457L33.7887 51.3494H41.0979L44.1747 42.4895ZM57.0977 36.4804L51.6754 20.3095L46.2048 36.4804H57.0977ZM7.14181 13.0462V28.5641H24.2436V13.0462H31.3855V51.3494H24.2436V34.7306H7.14181V51.3494H0V13.0462H7.14181Z" fill="black"/>
<path d="M152.402 15.7188H154.431V18.8381H157.193V15.7188H159.222V23.6842H157.193V20.4757H154.431V23.6842H152.402V15.7188Z" fill="black"/>
<path fill-rule="evenodd" clip-rule="evenodd" d="M164.922 23.5903C167.269 22.3616 168.142 20.9644 168.142 19.8776C168.142 18.7907 167.269 17.3935 164.922 16.1648C162.655 14.9775 159.4 14.1901 155.707 14.1901C152.014 14.1901 148.759 14.9775 146.491 16.1648C144.144 17.3935 143.272 18.7907 143.272 19.8776C143.272 20.9644 144.144 22.3616 146.491 23.5903C148.759 24.7777 152.014 25.5651 155.707 25.5651C159.4 25.5651 162.655 24.7777 164.922 23.5903ZM155.707 27.3151C163.552 27.3151 169.912 23.9852 169.912 19.8776C169.912 15.7699 163.552 12.4401 155.707 12.4401C147.861 12.4401 141.501 15.7699 141.501 19.8776C141.501 23.9852 147.861 27.3151 155.707 27.3151Z" fill="black"/>
</svg>
