<svg width="216" height="66" viewBox="0 0 216 66" fill="none" xmlns="http://www.w3.org/2000/svg">
<g clip-path="url(#clip0_162_11)">
<mask id="mask0_162_11" style="mask-type:luminance" maskUnits="userSpaceOnUse" x="0" y="16" width="216" height="35">
<path d="M216 16H0V50.1053H216V16Z" fill="white"/>
</mask>
<g mask="url(#mask0_162_11)">
<path d="M27.4966 20.3214V40.3243H16.0542L9.30417 47.0743L5.27097 43.0411V40.3243H3.21335L0.249481 36.3732V15.9591H23.1333L27.4966 20.3214ZM2.64401 18.6212V34.8097H6.83444V40.4894L13.0083 34.8097H21.9809V18.6212H2.64401Z" fill="black"/>
<path d="M189.258 41.5683C181.847 41.5683 176.454 36.9249 176.454 29.092V28.7168C176.454 20.9777 181.942 15.959 189.071 15.959C195.403 15.959 201.031 19.6644 201.031 28.4353V30.3115H183.349C183.536 34.3921 185.74 36.7373 189.446 36.7373C192.589 36.7373 194.137 35.3771 194.559 33.3133H200.984C200.187 38.6134 195.966 41.5683 189.258 41.5683ZM183.442 26.1371H194.418C194.183 22.4317 192.307 20.6493 189.071 20.6493C186.022 20.6493 183.958 22.6662 183.442 26.1371Z" fill="black"/>
<path d="M159.956 50.1048C152.029 50.1048 148.417 46.634 147.761 41.5683H154.515C154.937 43.7259 156.485 45.133 159.956 45.133C164.084 45.133 166.147 42.9755 166.147 39.1293V35.424C164.787 37.816 161.879 39.9736 158.267 39.9736C152.31 39.9736 147.573 35.5178 147.573 28.2477V27.9194C147.573 20.8839 152.264 15.959 158.361 15.959C162.348 15.959 164.74 17.6944 166.147 20.1803V16.5218H172.901V39.1293C172.854 46.3994 168.023 50.1048 159.956 50.1048ZM160.284 34.8611C163.849 34.8611 166.335 32.3283 166.335 28.1539V27.8256C166.335 23.6512 164.13 21.1184 160.425 21.1184C156.626 21.1184 154.515 23.8388 154.515 27.8725V28.2477C154.515 32.3283 156.907 34.8611 160.284 34.8611Z" fill="black"/>
<path d="M130.151 41.5683C125.695 41.5683 121.943 39.4108 121.943 34.2514C121.943 28.5291 127.196 26.3716 134.701 26.3716H137.468V25.3866C137.468 22.4786 136.576 20.8839 133.481 20.8839C130.808 20.8839 129.588 22.2441 129.306 24.3548H122.881C123.303 18.5387 127.899 15.959 133.903 15.959C139.907 15.959 144.175 18.398 144.175 25.0583V41.0524H137.562V38.0975C136.155 40.0674 133.997 41.5683 130.151 41.5683ZM132.167 36.8311C135.169 36.8311 137.468 35.1894 137.468 32.469V30.4053H134.841C130.901 30.4053 128.603 31.2496 128.603 33.8761C128.603 35.6585 129.681 36.8311 132.167 36.8311Z" fill="black"/>
<path d="M105.539 50.1048C97.6119 50.1048 94.0005 46.634 93.3437 41.5683H100.098C100.52 43.7259 102.068 45.133 105.539 45.133C109.666 45.133 111.73 42.9755 111.73 39.1293V35.424C110.37 37.816 107.461 39.9736 103.85 39.9736C97.8929 39.9736 93.1561 35.5178 93.1561 28.2477V27.9194C93.1561 20.8839 97.8462 15.959 103.944 15.959C107.931 15.959 110.322 17.6944 111.73 20.1803V16.5218H118.484V39.1293C118.437 46.3994 113.606 50.1048 105.539 50.1048ZM105.867 34.8611C109.431 34.8611 111.917 32.3283 111.917 28.1539V27.8256C111.917 23.6512 109.713 21.1184 106.007 21.1184C102.208 21.1184 100.098 23.8388 100.098 27.8725V28.2477C100.098 32.3283 102.49 34.8611 105.867 34.8611Z" fill="black"/>
<path d="M66.7383 41.0524V16.5218H73.5392V20.4148C74.7588 17.9758 77.4322 15.959 81.5129 15.959C86.3438 15.959 89.7682 18.867 89.7682 25.4335V41.0524H82.9668V26.4185C82.9668 23.0883 81.6537 21.4936 78.6518 21.4936C75.744 21.4936 73.5392 23.276 73.5392 26.8875V41.0524H66.7383Z" fill="black"/>
<path d="M51.4517 41.5683C44.041 41.5683 38.6471 36.9249 38.6471 29.092V28.7168C38.6471 20.9777 44.1348 15.959 51.2641 15.959C57.5961 15.959 63.2249 19.6644 63.2249 28.4353V30.3115H45.5419C45.7295 34.3921 47.934 36.7373 51.6394 36.7373C54.7819 36.7373 56.3297 35.3771 56.7519 33.3133H63.1775C62.3803 38.6134 58.159 41.5683 51.4517 41.5683ZM45.6357 26.1371H56.6112C56.3767 22.4317 54.5005 20.6493 51.2641 20.6493C48.2154 20.6493 46.1516 22.6662 45.6357 26.1371Z" fill="black"/>
<path d="M210.572 24.9812C208.607 24.9812 207.582 23.8087 207.582 22.0351V21.9179C207.582 20.1297 208.842 18.9571 210.527 18.9571C212.008 18.9571 213.078 19.6606 213.195 21.1557H211.598C211.509 20.5401 211.173 20.2029 210.527 20.2029C209.721 20.2029 209.223 20.8039 209.223 21.9179V22.0205C209.223 23.1197 209.692 23.7207 210.557 23.7207C211.187 23.7207 211.641 23.3983 211.729 22.7093H213.254C213.152 24.2044 212.067 24.9812 210.572 24.9812ZM210.498 26.7401C213.049 26.7401 215.204 24.8054 215.204 21.9472C215.204 19.133 213.107 17.1982 210.527 17.1982C207.904 17.1982 205.808 19.1476 205.808 21.9765C205.808 24.8347 207.977 26.7401 210.498 26.7401ZM210.498 27.4437C207.435 27.4437 204.973 25.0692 204.973 21.9765C204.973 18.9278 207.42 16.4946 210.527 16.4946C213.664 16.4946 216.054 18.9131 216.054 21.9472C216.054 25.0545 213.591 27.4437 210.498 27.4437Z" fill="black"/>
<path fill-rule="evenodd" clip-rule="evenodd" d="M213.426 21.3687H211.413L211.387 21.1859C211.347 20.9087 211.256 20.7229 211.128 20.6055C211.001 20.4898 210.813 20.416 210.528 20.416C210.183 20.416 209.922 20.5415 209.741 20.7736C209.555 21.0129 209.436 21.3891 209.436 21.9179V22.0205C209.436 22.5443 209.549 22.9155 209.734 23.1515C209.912 23.3792 210.179 23.5078 210.557 23.5078C210.837 23.5078 211.056 23.4365 211.212 23.3087C211.366 23.1828 211.48 22.9837 211.518 22.6825L211.542 22.4965H213.482L213.466 22.724C213.412 23.5237 213.091 24.1491 212.569 24.5716C212.051 24.9909 211.354 25.1943 210.572 25.1943C209.547 25.1943 208.739 24.8874 208.188 24.322C207.637 23.7577 207.369 22.9623 207.369 22.0352V21.9179C207.369 20.9719 207.703 20.1753 208.273 19.6151C208.843 19.0555 209.635 18.7442 210.528 18.7442C211.299 18.7442 211.988 18.9273 212.504 19.3276C213.024 19.7318 213.345 20.3399 213.408 21.1391L213.426 21.3687ZM213.232 22.9224C213.045 24.2782 211.994 24.9813 210.572 24.9813C208.608 24.9813 207.582 23.8087 207.582 22.0352V21.9179C207.582 20.1297 208.842 18.9571 210.528 18.9571C211.936 18.9571 212.973 19.5938 213.171 20.9428C213.182 21.0119 213.19 21.0829 213.195 21.1558H211.598C211.51 20.5401 211.173 20.203 210.528 20.203C209.722 20.203 209.223 20.804 209.223 21.9179V22.0205C209.223 23.1198 209.693 23.7208 210.557 23.7208C211.188 23.7208 211.642 23.3983 211.729 22.7094H213.254C213.249 22.7821 213.242 22.8531 213.232 22.9224ZM210.498 26.5272C212.935 26.5272 214.99 24.6839 214.99 21.9472C214.99 19.2533 212.993 17.4112 210.528 17.4112C208.019 17.4112 206.021 19.2679 206.021 21.9766C206.021 24.7115 208.09 26.5272 210.498 26.5272ZM210.498 27.6567C207.321 27.6567 204.76 25.1906 204.76 21.9766C204.76 18.808 207.305 16.2817 210.528 16.2817C213.781 16.2817 216.267 18.7944 216.267 21.9472C216.267 25.1756 213.706 27.6567 210.498 27.6567ZM215.204 21.9472C215.204 24.8055 213.049 26.7402 210.498 26.7402C207.977 26.7402 205.808 24.8348 205.808 21.9766C205.808 19.1477 207.904 17.1983 210.528 17.1983C213.108 17.1983 215.204 19.133 215.204 21.9472ZM204.973 21.9766C204.973 25.0693 207.435 27.4438 210.498 27.4438C213.591 27.4438 216.054 25.0546 216.054 21.9472C216.054 18.9132 213.665 16.4947 210.528 16.4947C207.42 16.4947 204.973 18.9278 204.973 21.9766Z" fill="black"/>
</g>
</g>
<defs>
<clipPath id="clip0_162_11">
<rect width="216" height="34.1053" fill="white" transform="translate(0 16)"/>
</clipPath>
</defs>
</svg>
