<svg width="62" height="67" viewBox="0 0 62 67" fill="none" xmlns="http://www.w3.org/2000/svg">
<path d="M55.089 31.1275C39.3068 33.2533 33.6242 16.7025 32.7556 8.16155C32.7556 8.16155 30.7914 20.4918 25.6834 25.813C20.3956 31.3215 7.81663 33.4051 7.81663 33.4051C7.81663 33.4051 20.4415 35.8367 25.3112 40.6176C30.1808 45.3985 32.7556 57.8895 32.7556 57.8895C32.7556 57.8895 35.1751 41.5434 45.9695 36.442C53.6001 32.8356 62.5334 36.442 61.9751 46.1218C61.4168 55.8017 44.2945 67 32.7556 67C14.135 67 9.33335e-05 50.2974 3.25035e-10 32.8356C-7.77773e-05 15.374 13.9584 0 32.7556 0C40.3356 0 49.6753 3.5324 55.089 9.30025C67.1862 21.0679 60.6723 30.3754 55.089 31.1275Z" fill="black"/>
</svg>
