<svg width="185" height="66" viewBox="0 0 185 66" fill="none" xmlns="http://www.w3.org/2000/svg">
<g clip-path="url(#clip0_162_2)">
<mask id="mask0_162_2" style="mask-type:luminance" maskUnits="userSpaceOnUse" x="0" y="6" width="185" height="54">
<path d="M185 6H0V60H185V6Z" fill="white"/>
</mask>
<g mask="url(#mask0_162_2)">
<path fill-rule="evenodd" clip-rule="evenodd" d="M4.06604 13.3694C-1.6516 19.2776 -0.698663 24.5506 2.98604 26.7106C4.06604 27.3459 5.46369 27.6 6.86134 27.6C9.33899 27.6 11.6896 26.8376 11.626 26.2659C11.3719 22.3271 13.8496 10.9553 29.1602 10.9553C47.0119 10.9553 44.2802 31.6659 26.4919 30.9035C28.0802 27.3459 29.9861 23.4071 32.3366 18.96C33.3531 17.1176 29.3508 14.9577 26.4284 14.9577C25.2213 14.9577 24.2049 15.3388 23.7602 16.1647C19.5672 23.9788 11.5625 39.3529 11.5625 48.3106C10.0378 47.4212 9.02134 46.2776 8.70369 44.8165C8.64016 44.4353 8.25899 44.1176 7.68722 44.1176C6.79781 44.1176 5.52722 44.9435 4.63781 47.5482C3.17663 51.9953 4.44722 60 18.9319 60C45.4237 60 49.3625 38.5271 40.0872 33.5082C44.6614 32.3647 48.6002 29.8871 49.9978 25.1224C54.6355 9.11294 35.4496 6 28.6519 6C20.3931 6 9.72017 7.46118 4.06604 13.3694ZM25.0308 34.3976C29.859 34.0165 37.5461 34.4612 34.9414 41.7671C32.9719 47.3576 26.3649 49.8988 20.2661 50.0894C20.8378 47.04 22.1084 41.64 25.0308 34.3976ZM60.0926 23.28C59.1396 25.5671 57.3608 29.8235 56.7255 31.1576C54.3749 36.3671 52.342 38.0824 50.7537 38.0824C47.7043 38.0824 46.3702 31.9835 48.2126 32.1741C52.9137 30.9035 54.8196 26.9012 56.7255 22.2635C55.0102 21.6918 53.8031 20.04 53.8031 18.1341C53.8031 15.72 55.8361 13.7506 58.2502 13.7506C60.6643 13.7506 61.8078 15.72 61.8078 18.1341C61.8078 19.0235 61.6808 19.7859 61.4267 20.4847C62.3796 21.2471 64.222 22.1365 67.5255 21.6918C68.1608 21.3741 68.9232 21.1835 69.8126 21.1835C72.7984 21.1835 76.4196 22.9624 75.6573 24.8047C73.4337 29.8235 68.0337 42.4659 72.5443 42.4659C76.4744 42.4659 79.344 37.7776 80.8393 34.5218C83.1073 27.588 88.5424 21.0565 96.1733 21.0565C98.0156 21.0565 102.526 21.4377 104.114 24.6777C104.324 24.258 104.496 23.8576 104.65 23.4976C104.775 23.2038 104.89 22.9366 105.004 22.7082C105.512 21.6282 106.783 21.1835 108.244 21.1835C111.23 21.1835 114.978 22.9624 114.152 24.8047C111.929 29.8235 106.465 42.4659 111.039 42.4659C115.178 42.4659 118.056 37.4199 119.496 34.1623C118.912 33.0397 118.651 31.7052 118.88 30.0777C119.325 26.9012 122.565 18.1977 136.287 18.1977C151.217 18.1977 141.687 34.4612 137.812 34.1435C133.937 33.8259 133.428 29.3788 135.207 29.633C136.986 29.8235 140.607 24.6141 135.525 24.6141C133.365 24.6141 129.617 26.0753 128.155 28.2353C125.901 31.8251 128.758 33.3505 132.16 35.1667C136.043 37.2397 140.636 39.6914 139.146 46.0235C137.621 52.2494 132.348 55.6165 126.44 55.6165C118.499 55.6165 117.419 51.36 117.991 47.6753C118.626 43.2282 122.184 41.5765 123.391 41.5765C124.064 41.5765 123.839 42.2591 123.543 43.1578C122.973 44.8888 122.139 47.4212 126.948 47.4212C130.125 47.4212 131.713 46.4682 131.967 44.6894C132.326 42.2579 129.645 40.9681 126.61 39.508C124.718 38.5976 122.688 37.6211 121.172 36.2604C121.155 36.3672 121.14 36.4306 121.14 36.4306C119.489 43.8 114.597 54.2824 104.496 53.2024C99.2862 52.6306 97.9521 48.4377 98.3968 43.3553C95.665 47.4847 91.8533 50.7247 86.7074 50.7247C82.7423 50.7247 80.5559 48.0013 79.8867 44.2048C77.2041 49.4529 72.7734 53.9265 66.0008 53.2023C54.1843 51.8047 62.3796 32.0471 65.7467 24.36C63.9679 24.4235 61.9349 24.2329 60.0926 23.28ZM182.959 33.8894C185.055 34.0165 184.484 36.4306 184.484 36.4306C182.832 43.8 177.94 54.2824 167.839 53.2024C162.63 52.6306 161.295 48.4377 161.74 43.3553C159.008 47.4847 155.197 50.7247 150.051 50.7247C136.964 50.7247 143.253 21.0565 159.517 21.0565C161.359 21.0565 165.87 21.4377 167.458 24.6777C167.668 24.258 167.839 23.8575 167.993 23.4975L167.994 23.4956C168.119 23.2025 168.233 22.9362 168.347 22.7082C168.855 21.6282 170.126 21.1835 171.587 21.1835C174.573 21.1835 178.321 22.9624 177.495 24.8047C175.272 29.8235 169.808 42.4659 174.383 42.4659C178.639 42.4659 181.561 37.1294 182.959 33.8894ZM155.705 42.8471C159.707 42.8471 162.312 37.0024 163.392 34.3977C164.281 32.3012 166.441 26.2659 163.074 25.6941C155.959 24.4235 148.145 42.8471 155.705 42.8471ZM100.049 34.3977C98.9686 37.0024 96.3639 42.8471 92.3615 42.8471C84.8015 42.8471 92.6156 24.4235 99.7309 25.6941C103.098 26.2659 100.938 32.3012 100.049 34.3977Z" fill="black"/>
</g>
</g>
<defs>
<clipPath id="clip0_162_2">
<rect width="185" height="54" fill="white" transform="translate(0 6)"/>
</clipPath>
</defs>
</svg>
