<svg width="96" height="66" viewBox="0 0 96 66" fill="none" xmlns="http://www.w3.org/2000/svg">
<path d="M64.928 9.39835C66.08 8.11307 67.36 7.05269 68.672 6.2172C70.9759 4.77126 73.408 4 75.904 4V24.9828C74.0799 18.6205 70.144 13.1579 64.928 9.39835ZM96 62H21.984C9.82399 62 0 52.103 0 39.9246C0 28.2604 9.024 18.6847 20.4481 17.8814V4C23.008 4 25.536 4.73907 27.904 6.2172C29.216 7.0205 30.496 8.08088 31.648 9.30192C36.352 5.9923 42.048 4.06424 48.224 4.06424C48.224 17.4637 43.424 33.0483 27.808 33.0803H48.064C47.488 30.4776 45.12 28.5497 42.304 28.5175H54.08C51.264 28.5175 48.896 30.4776 48.32 33.1125H67.2C70.9759 33.1125 74.7199 33.8516 78.24 35.3297C81.7279 36.7757 84.928 38.9286 87.5839 41.5956C90.2719 44.2948 92.3839 47.4759 93.824 50.9784C95.264 54.4488 96 58.2084 96 62ZM32.8961 18.2671C33.376 19.5202 34.656 20.9341 36.448 21.9623C38.24 22.9907 40.096 23.4084 41.408 23.2155C40.928 21.9623 39.6481 20.5486 37.8561 19.5202C36.0641 18.492 34.2079 18.0743 32.8961 18.2671ZM59.8399 21.9623C58.0479 22.9907 56.192 23.4084 54.8799 23.2155C55.3599 21.9623 56.64 20.5486 58.432 19.5202C60.224 18.492 62.08 18.0743 63.392 18.2671C62.944 19.5202 61.6319 20.9341 59.8399 21.9623Z" fill="black"/>
</svg>
