<svg width="123" height="67" viewBox="0 0 123 67" fill="none" xmlns="http://www.w3.org/2000/svg">
<mask id="mask0_162_28" style="mask-type:luminance" maskUnits="userSpaceOnUse" x="0" y="4" width="123" height="59">
<path d="M123 4.00012H0V62.5716H123V4.00012Z" fill="white"/>
</mask>
<g mask="url(#mask0_162_28)">
<path d="M32.0485 4.00104C32.2441 3.99356 32.4391 4.03195 32.6166 4.11307C32.7946 4.19451 32.9509 4.31784 33.0712 4.47027L35.3274 7.01869L35.5044 6.54946C35.6637 6.0671 35.9674 5.64309 36.3761 5.33376C36.7851 5.02427 37.2811 4.84359 37.7964 4.816H61.0828C61.2781 4.8125 61.4722 4.85339 61.6493 4.93451C61.8261 5.01562 61.9824 5.13596 62.1055 5.28506L69.1566 13.2777L69.0333 6.61927C69.0431 6.32607 69.1139 6.03735 69.241 5.77207C69.3685 5.50679 69.5495 5.26943 69.7734 5.07563C70.1994 4.64047 70.7812 4.38516 71.395 4.36472H78.4462C78.672 4.3579 78.8957 4.41093 79.094 4.51731C79.2919 4.62385 79.4583 4.78126 79.5744 4.97174C79.5438 4.90243 79.502 4.83843 79.451 4.78192L84.7394 10.6936L85.6387 7.7296C85.7947 7.24824 86.0963 6.82505 86.5022 6.51539C86.9083 6.2059 87.4 6.02472 87.9128 5.99596H113.65C113.847 5.98782 114.043 6.02356 114.223 6.10151C114.404 6.17963 114.564 6.29715 114.691 6.44558L122.729 15.5145L122.834 15.6347C122.921 15.765 122.975 15.9151 122.994 16.0697V16.1556C123.002 16.2826 123.002 16.4101 122.994 16.5371C123 16.6351 123 16.7344 122.994 16.8326L114.902 43.3428L114.796 43.6024L114.673 43.8281C114.673 43.8344 114.669 43.916 114.568 43.9661L114.39 44.1738L114.126 44.3994C113.985 44.5033 113.827 44.5726 113.686 44.6592C113.546 44.7455 113.527 44.7636 113.457 44.7809C113.218 44.8837 112.96 44.9368 112.699 44.9368H109.173L110.565 46.4982V46.62C110.654 46.7804 110.709 46.9571 110.724 47.1395L111.5 60.2127V60.8019C111.5 60.9233 111.376 60.9756 111.376 61.0275V61.1655C111.342 61.2439 111.301 61.3199 111.253 61.3912L111.076 61.599L110.901 61.7564C110.717 61.9099 110.508 62.0328 110.284 62.12H110.195C109.976 62.2056 109.743 62.252 109.508 62.258H102.457C102.269 62.264 102.081 62.2306 101.908 62.1589C101.735 62.0871 101.579 61.9788 101.452 61.8425L93.7483 54.0055L88.6887 61.5649L88.5831 61.7028L88.4063 61.9123H88.1076C87.9663 62.0308 87.804 62.1247 87.6304 62.1897L87.455 62.2758C87.2339 62.3551 87.0017 62.4009 86.7669 62.4137H79.7156C79.5276 62.4197 79.3403 62.3866 79.167 62.3147C78.9934 62.243 78.838 62.1348 78.7109 61.9982L76.0845 59.0342L66.8468 62.2758C66.6311 62.3712 66.3967 62.4179 66.1602 62.4137C65.8404 62.4224 65.5273 62.3183 65.2788 62.12L65.1376 61.9804L60.7306 57.0215C60.5542 57.6109 60.4131 58.2018 60.2193 58.7566L60.1138 58.9985C60.0833 59.0788 60.0401 59.1549 59.9888 59.2242L59.8832 59.3622L59.6901 59.5714L59.4434 59.7972C59.3071 59.8999 59.1583 59.9868 59.0019 60.0568L58.4907 60.6801C58.2481 60.7695 57.9913 60.8172 57.7325 60.8197H51.9507C51.7639 60.829 51.5771 60.7976 51.4037 60.7288C51.2302 60.6598 51.0738 60.5548 50.9459 60.4205L49.0419 58.2713L48.214 60.9756C48.1944 61.0676 48.1587 61.1553 48.1086 61.2353L48.0014 61.461L47.8959 61.599L47.7207 61.8084C47.6474 61.892 47.5641 61.9666 47.4738 62.0323C47.3272 62.1292 47.1732 62.2173 47.0146 62.2936L46.7857 62.4137C46.5497 62.5067 46.2995 62.561 46.0454 62.5712H35.5741C35.3833 62.5796 35.1923 62.5457 35.0158 62.4737C34.8393 62.4019 34.6805 62.2927 34.5515 62.1541L33.0177 60.4205H27.4646L27.3412 60.836C27.32 60.9251 27.2909 61.0134 27.2536 61.0973C27.2059 61.1685 27.1644 61.2432 27.1303 61.3214L27.0248 61.461L26.8477 61.6688C26.7743 61.7525 26.6915 61.8285 26.6011 61.8943C26.4546 61.9909 26.3019 62.0778 26.1433 62.1541L25.9144 62.2758C25.6787 62.3687 25.4281 62.4212 25.1743 62.4317H18.6328C18.4448 62.4375 18.2574 62.4043 18.0842 62.3326C17.9108 62.2607 17.7549 62.1525 17.6281 62.0162L15.6006 59.7436H9.41459C9.27521 59.7357 9.13722 59.7059 9.00717 59.6544C8.83378 59.5854 8.67727 59.48 8.54941 59.3459L0.318148 50.5725C0.383993 50.6378 0.461647 50.6907 0.547021 50.7282C0.394727 50.6393 0.267337 50.5145 0.176929 50.3647C0.0609084 50.142 0 49.8942 0 49.644C0.000107156 49.394 0.0610112 49.1474 0.176929 48.925C4.83287 39.5185 8.64825 29.7311 11.5816 19.6747V19.5547L11.0005 18.8957C11.0005 18.8957 11.0158 18.8972 11.0362 18.9053C10.8978 18.7479 10.7961 18.5619 10.7456 18.3583C10.6829 18.1055 10.6989 17.84 10.7894 17.5954L12.7097 11.2487C12.8701 10.7699 13.173 10.3483 13.5781 10.0393C13.9831 9.73084 14.4727 9.54867 14.9838 9.5151H22.035L23.181 5.73467C23.3436 5.25713 23.6464 4.83711 24.051 4.52861C24.4556 4.22011 24.9446 4.03677 25.4552 4.00104H32.0485ZM23.2345 11.3006H14.5082L12.5685 17.6474H21.384L10.9826 52.0106H17.5225L23.6566 31.8634L25.9665 34.1001L28.3119 26.403L26.0022 24.1142L27.976 17.6474H32.0485L33.9882 11.3006H29.9513L31.7142 5.80448H24.9974L23.2345 11.3006ZM63.1281 20.5936L61.065 27.3915H65.9834L58.4907 52.0106L71.1304 47.5728L73.4403 39.9616L68.3986 41.6952L74.833 20.5773L63.1281 20.5936ZM28.9986 25.4486H40.1224L33.9704 45.6477H29.9513L28.0116 51.9765H38.4829L46.5568 25.4486H57.3624L59.3201 19.0677H30.9383L28.9986 25.4486ZM72.0118 51.9765H79.1523L87.877 38.9211H80.826L72.0118 51.9765ZM94.5242 51.9247H101.575L100.782 38.8692H93.7483L94.5242 51.9247ZM47.5079 28.3963C47.6768 35.7389 46.6531 43.0617 44.4758 50.0871H50.2756C52.4652 43.0522 53.6519 35.752 53.8012 28.3963H47.5079ZM29.9335 28.1885C27.5108 35.8394 23.9842 43.1096 19.4623 49.7755L19.498 49.8616H26.0541C30.1671 43.0481 33.4286 35.7709 35.7674 28.1885H29.9335ZM13.4499 19.6747C10.4739 29.843 6.61142 39.74 1.90402 49.2544H7.75729C12.2985 39.7118 16.036 29.8184 18.933 19.6747H13.4499ZM79.3812 34.3259H105.119L113.227 7.69386H87.507L79.3812 34.3259ZM100.481 27.6854H88.1596L92.2143 14.3182H104.554L100.481 27.6854ZM71.1126 17.1263H78.2694L78.0583 6.04799H70.9195L71.1126 17.1263ZM35.415 12.7924H58.6675L60.5893 6.51539H37.337L35.415 12.7924Z" fill="black"/>
</g>
</svg>
