<svg width="17" height="17" viewBox="0 0 17 17" fill="none" xmlns="http://www.w3.org/2000/svg">
<path d="M2.6462 8.85378L7.14625 13.3538C7.24007 13.4476 7.36732 13.5003 7.5 13.5003C7.63268 13.5003 7.75993 13.4476 7.85375 13.3538C7.94757 13.26 8.00028 13.1327 8.00028 13C8.00028 12.8674 7.94757 12.7401 7.85375 12.6463L4.2069 9.00003H14C14.1326 9.00003 14.2598 8.94736 14.3535 8.85359C14.4473 8.75982 14.5 8.63264 14.5 8.50003C14.5 8.36743 14.4473 8.24025 14.3535 8.14648C14.2598 8.05271 14.1326 8.00003 14 8.00003H4.2069L7.85375 4.35378C7.94757 4.25996 8.00028 4.13272 8.00028 4.00003C8.00028 3.86735 7.94757 3.7401 7.85375 3.64628C7.75993 3.55246 7.63268 3.49976 7.5 3.49976C7.36732 3.49976 7.24007 3.55246 7.14625 3.64628L2.6462 8.14628C2.5998 8.19272 2.5629 8.24786 2.5377 8.30856C2.5126 8.36926 2.4996 8.43433 2.4996 8.50003C2.4996 8.56574 2.5126 8.6308 2.5377 8.6915C2.5629 8.7522 2.5998 8.80735 2.6462 8.85378Z" fill="black"/>
</svg>
