<svg width="664" height="523" viewBox="0 0 664 523" fill="none" xmlns="http://www.w3.org/2000/svg">
<path opacity="0.3" d="M83.7852 95H80.9492L75.3945 83.2578L75.3828 95H72.5352V77.9375H75.3828L80.9141 89.6445L80.9375 77.9375H83.7852V95ZM97.1562 87.3477H90.1367V92.7031H98.3516V95H87.3125V77.9375H98.2695V80.2578H90.1367V85.0742H97.1562V87.3477ZM107.141 84.2891L110.422 77.9375H113.738L108.875 86.3984L113.855 95H110.562L107.188 88.543L103.812 95H100.484L105.465 86.3984L100.613 77.9375H103.906L107.141 84.2891ZM128.07 80.2578H122.832V95H120.031V80.2578H114.828V77.9375H128.07V80.2578ZM156.336 89.7617C156.258 90.582 156.062 91.332 155.75 92.0117C155.438 92.6836 155.023 93.2617 154.508 93.7461C153.992 94.2227 153.383 94.5938 152.68 94.8594C151.984 95.1172 151.207 95.2461 150.348 95.2461C149.309 95.2461 148.402 95.0469 147.629 94.6484C146.855 94.2422 146.211 93.6953 145.695 93.0078C145.18 92.3203 144.793 91.5156 144.535 90.5938C144.277 89.6719 144.145 88.6875 144.137 87.6406V85.3086C144.145 84.2695 144.281 83.2891 144.547 82.3672C144.812 81.4375 145.203 80.6289 145.719 79.9414C146.242 79.2461 146.891 78.6992 147.664 78.3008C148.438 77.8945 149.336 77.6914 150.359 77.6914C151.258 77.6914 152.059 77.8242 152.762 78.0898C153.465 78.3555 154.066 78.7305 154.566 79.2148C155.066 79.6992 155.465 80.2891 155.762 80.9844C156.059 81.6797 156.25 82.4531 156.336 83.3047H153.523C153.477 82.8047 153.379 82.3516 153.23 81.9453C153.09 81.5312 152.895 81.1797 152.645 80.8906C152.395 80.5938 152.078 80.3672 151.695 80.2109C151.32 80.0547 150.875 79.9766 150.359 79.9766C149.727 79.9766 149.195 80.1211 148.766 80.4102C148.336 80.6992 147.988 81.0898 147.723 81.582C147.457 82.0664 147.266 82.6289 147.148 83.2695C147.039 83.9102 146.984 84.582 146.984 85.2852V87.6406C146.984 88.375 147.039 89.0664 147.148 89.7148C147.266 90.3555 147.453 90.918 147.711 91.4023C147.969 91.8867 148.312 92.2695 148.742 92.5508C149.172 92.832 149.707 92.9727 150.348 92.9727C151.332 92.9727 152.082 92.6953 152.598 92.1406C153.113 91.5781 153.418 90.7852 153.512 89.7617H156.336ZM167.504 91.0391H162.172L161 95H158.094L163.637 77.9375H166.109L171.547 95H168.652L167.504 91.0391ZM162.887 88.6367H166.801L164.867 81.9453L162.887 88.6367ZM176.727 92.7031H184.859V95H173.914V77.9375H176.727V92.7031ZM191.141 92.7031H199.273V95H188.328V77.9375H191.141V92.7031ZM211.332 90.6055C211.332 90.1992 211.246 89.8438 211.074 89.5391C210.91 89.2266 210.672 88.9531 210.359 88.7188C210.055 88.4844 209.688 88.2812 209.258 88.1094C208.836 87.9297 208.375 87.7656 207.875 87.6172C207.203 87.4219 206.539 87.1797 205.883 86.8906C205.234 86.6016 204.652 86.25 204.137 85.8359C203.629 85.4141 203.215 84.9258 202.895 84.3711C202.582 83.8086 202.426 83.1602 202.426 82.4258C202.426 81.6914 202.582 81.0352 202.895 80.457C203.215 79.8711 203.641 79.375 204.172 78.9688C204.703 78.5625 205.32 78.25 206.023 78.0312C206.727 77.8125 207.461 77.7031 208.227 77.7031C209.047 77.7031 209.812 77.832 210.523 78.0898C211.242 78.3398 211.867 78.6953 212.398 79.1562C212.938 79.6094 213.363 80.1562 213.676 80.7969C213.988 81.4297 214.148 82.1328 214.156 82.9062H211.344C211.305 82.4766 211.211 82.0859 211.062 81.7344C210.922 81.375 210.719 81.0664 210.453 80.8086C210.195 80.5508 209.879 80.3516 209.504 80.2109C209.129 80.0703 208.695 80 208.203 80C207.781 80 207.391 80.0547 207.031 80.1641C206.672 80.2734 206.359 80.4336 206.094 80.6445C205.836 80.8555 205.633 81.1094 205.484 81.4062C205.336 81.7031 205.262 82.0391 205.262 82.4141C205.262 82.8125 205.363 83.1602 205.566 83.457C205.77 83.7461 206.035 84 206.363 84.2188C206.691 84.4375 207.066 84.6289 207.488 84.793C207.918 84.9492 208.363 85.0938 208.824 85.2266C209.535 85.4375 210.215 85.6992 210.863 86.0117C211.512 86.3164 212.082 86.6875 212.574 87.125C213.066 87.5547 213.457 88.0547 213.746 88.625C214.035 89.1953 214.18 89.8477 214.18 90.582C214.18 91.3398 214.02 92.0078 213.699 92.5859C213.379 93.1641 212.949 93.6484 212.41 94.0391C211.871 94.4297 211.246 94.7266 210.535 94.9297C209.824 95.125 209.082 95.2227 208.309 95.2227C207.785 95.2227 207.266 95.1719 206.75 95.0703C206.234 94.9688 205.738 94.8164 205.262 94.6133C204.793 94.4102 204.355 94.1602 203.949 93.8633C203.543 93.5586 203.188 93.2109 202.883 92.8203C202.586 92.4219 202.352 91.9805 202.18 91.4961C202.008 91.0039 201.918 90.4648 201.91 89.8789H204.734C204.773 90.3945 204.887 90.8438 205.074 91.2266C205.262 91.6094 205.512 91.9297 205.824 92.1875C206.137 92.4375 206.5 92.6289 206.914 92.7617C207.336 92.8867 207.801 92.9492 208.309 92.9492C208.73 92.9492 209.125 92.8984 209.492 92.7969C209.859 92.6953 210.18 92.5469 210.453 92.3516C210.727 92.1484 210.941 91.9023 211.098 91.6133C211.254 91.3164 211.332 90.9805 211.332 90.6055Z" fill="white"/>
<path d="M560.657 81L555 86.6569L560.657 92.3137" stroke="white" stroke-width="2" stroke-linecap="round" stroke-linejoin="round"/>
<path d="M587.971 81L593.627 86.6569L587.971 92.3137" stroke="white" stroke-width="2" stroke-linecap="round" stroke-linejoin="round"/>
<path d="M575.578 167.131C575.487 166.324 575.112 165.699 574.453 165.256C573.794 164.807 572.964 164.582 571.964 164.582C571.249 164.582 570.629 164.696 570.107 164.923C569.584 165.145 569.178 165.452 568.888 165.844C568.604 166.23 568.462 166.67 568.462 167.165C568.462 167.58 568.558 167.937 568.751 168.239C568.95 168.54 569.209 168.793 569.527 168.997C569.851 169.196 570.197 169.364 570.567 169.5C570.936 169.631 571.291 169.739 571.632 169.824L573.337 170.267C573.893 170.403 574.464 170.588 575.05 170.821C575.635 171.054 576.178 171.361 576.678 171.741C577.178 172.122 577.581 172.594 577.888 173.156C578.2 173.719 578.357 174.392 578.357 175.176C578.357 176.165 578.101 177.043 577.589 177.81C577.084 178.577 576.348 179.182 575.382 179.625C574.422 180.068 573.26 180.29 571.896 180.29C570.589 180.29 569.459 180.082 568.504 179.668C567.55 179.253 566.803 178.665 566.263 177.903C565.723 177.136 565.425 176.227 565.368 175.176H568.01C568.061 175.807 568.266 176.332 568.624 176.753C568.987 177.168 569.45 177.477 570.013 177.682C570.581 177.881 571.203 177.98 571.879 177.98C572.624 177.98 573.286 177.864 573.865 177.631C574.45 177.392 574.911 177.062 575.246 176.642C575.581 176.216 575.749 175.719 575.749 175.151C575.749 174.634 575.601 174.21 575.305 173.881C575.016 173.551 574.621 173.278 574.121 173.062C573.626 172.847 573.067 172.656 572.442 172.491L570.379 171.929C568.982 171.548 567.874 170.989 567.055 170.25C566.243 169.511 565.837 168.534 565.837 167.318C565.837 166.312 566.109 165.435 566.655 164.685C567.2 163.935 567.939 163.352 568.871 162.938C569.803 162.517 570.854 162.307 572.024 162.307C573.206 162.307 574.249 162.514 575.152 162.929C576.061 163.344 576.777 163.915 577.3 164.642C577.822 165.364 578.095 166.193 578.118 167.131H575.578ZM589.592 174.571V166.909H592.148V180H589.643V177.733H589.506C589.205 178.432 588.722 179.014 588.058 179.48C587.398 179.94 586.577 180.17 585.594 180.17C584.754 180.17 584.009 179.986 583.362 179.616C582.719 179.241 582.214 178.688 581.844 177.955C581.481 177.222 581.299 176.315 581.299 175.236V166.909H583.847V174.929C583.847 175.821 584.094 176.531 584.589 177.06C585.083 177.588 585.725 177.852 586.515 177.852C586.992 177.852 587.467 177.733 587.938 177.494C588.415 177.256 588.81 176.895 589.123 176.412C589.441 175.929 589.597 175.315 589.592 174.571Z" fill="white"/>
<path opacity="0.3" d="M583.344 234.941H585.488V237.203H583.344V241H580.543V237.203H573.137L573.066 235.504L580.449 223.938H583.344V234.941ZM575.949 234.941H580.543V227.676L580.238 228.227L575.949 234.941Z" fill="white"/>
<path opacity="0.3" d="M574.484 302H571.66V288.395L567.301 289.988V287.527L574.309 284.938H574.484V302ZM588.898 302H586.074V288.395L581.715 289.988V287.527L588.723 284.938H588.898V302Z" fill="white"/>
<path opacity="0.3" d="M574.484 363H571.66V349.395L567.301 350.988V348.527L574.309 345.938H574.484V363ZM591.957 350.438C591.957 351.273 591.742 352.02 591.312 352.676C590.883 353.324 590.297 353.836 589.555 354.211C589.977 354.406 590.355 354.645 590.691 354.926C591.035 355.207 591.328 355.523 591.57 355.875C591.812 356.227 591.996 356.613 592.121 357.035C592.254 357.449 592.32 357.891 592.32 358.359C592.32 359.148 592.176 359.848 591.887 360.457C591.598 361.066 591.203 361.578 590.703 361.992C590.203 362.398 589.613 362.707 588.934 362.918C588.262 363.129 587.539 363.234 586.766 363.234C585.977 363.234 585.238 363.129 584.551 362.918C583.871 362.707 583.281 362.398 582.781 361.992C582.281 361.578 581.887 361.066 581.598 360.457C581.316 359.848 581.176 359.148 581.176 358.359C581.176 357.891 581.238 357.445 581.363 357.023C581.496 356.602 581.68 356.215 581.914 355.863C582.156 355.512 582.445 355.195 582.781 354.914C583.125 354.633 583.508 354.398 583.93 354.211C583.195 353.836 582.617 353.324 582.195 352.676C581.773 352.02 581.562 351.273 581.562 350.438C581.562 349.68 581.691 349.008 581.949 348.422C582.207 347.828 582.562 347.332 583.016 346.934C583.477 346.527 584.023 346.223 584.656 346.02C585.289 345.809 585.98 345.703 586.73 345.703C587.48 345.703 588.172 345.809 588.805 346.02C589.445 346.223 590 346.527 590.469 346.934C590.938 347.332 591.301 347.828 591.559 348.422C591.824 349.008 591.957 349.68 591.957 350.438ZM589.52 358.219C589.52 357.789 589.453 357.398 589.32 357.047C589.188 356.695 589 356.395 588.758 356.145C588.516 355.895 588.223 355.703 587.879 355.57C587.543 355.43 587.164 355.359 586.742 355.359C586.32 355.359 585.938 355.43 585.594 355.57C585.258 355.703 584.969 355.895 584.727 356.145C584.492 356.395 584.309 356.695 584.176 357.047C584.051 357.398 583.988 357.789 583.988 358.219C583.988 359.094 584.234 359.777 584.727 360.27C585.219 360.754 585.898 360.996 586.766 360.996C587.172 360.996 587.543 360.934 587.879 360.809C588.223 360.684 588.516 360.5 588.758 360.258C589 360.016 589.188 359.727 589.32 359.391C589.453 359.047 589.52 358.656 589.52 358.219ZM589.156 350.531C589.156 350.156 589.098 349.812 588.98 349.5C588.863 349.18 588.699 348.906 588.488 348.68C588.277 348.453 588.02 348.277 587.715 348.152C587.418 348.027 587.09 347.965 586.73 347.965C586.363 347.965 586.031 348.023 585.734 348.141C585.445 348.258 585.199 348.43 584.996 348.656C584.793 348.875 584.637 349.145 584.527 349.465C584.418 349.777 584.363 350.133 584.363 350.531C584.363 350.922 584.418 351.277 584.527 351.598C584.645 351.91 584.805 352.18 585.008 352.406C585.219 352.625 585.473 352.797 585.77 352.922C586.066 353.047 586.398 353.109 586.766 353.109C587.125 353.109 587.453 353.047 587.75 352.922C588.047 352.797 588.297 352.625 588.5 352.406C588.711 352.18 588.871 351.91 588.98 351.598C589.098 351.277 589.156 350.922 589.156 350.531Z" fill="white"/>
<path opacity="0.3" d="M577.777 424H566.316V422.066L571.871 416.008C572.34 415.484 572.73 415.023 573.043 414.625C573.363 414.219 573.617 413.848 573.805 413.512C573.992 413.176 574.125 412.863 574.203 412.574C574.281 412.285 574.32 411.992 574.32 411.695C574.32 411.305 574.258 410.945 574.133 410.617C574.016 410.281 573.844 409.996 573.617 409.762C573.398 409.52 573.129 409.332 572.809 409.199C572.496 409.066 572.145 409 571.754 409C570.738 409 569.988 409.277 569.504 409.832C569.027 410.387 568.789 411.152 568.789 412.129H565.977C565.977 411.387 566.109 410.688 566.375 410.031C566.648 409.367 567.035 408.789 567.535 408.297C568.043 407.805 568.656 407.418 569.375 407.137C570.094 406.848 570.902 406.703 571.801 406.703C572.645 406.703 573.395 406.824 574.051 407.066C574.707 407.309 575.262 407.648 575.715 408.086C576.168 408.516 576.512 409.027 576.746 409.621C576.98 410.215 577.098 410.867 577.098 411.578C577.098 412.109 577.012 412.625 576.84 413.125C576.668 413.617 576.43 414.109 576.125 414.602C575.82 415.094 575.457 415.59 575.035 416.09C574.613 416.582 574.156 417.09 573.664 417.613L569.797 421.762H577.777V424ZM581.785 415.539L582.711 406.938H591.84V409.445H585.031L584.598 413.488C584.871 413.332 585.234 413.18 585.688 413.031C586.141 412.883 586.664 412.809 587.258 412.809C588.062 412.809 588.781 412.941 589.414 413.207C590.055 413.473 590.594 413.855 591.031 414.355C591.469 414.848 591.805 415.449 592.039 416.16C592.273 416.863 592.391 417.66 592.391 418.551C592.391 419.34 592.277 420.082 592.051 420.777C591.832 421.465 591.492 422.066 591.031 422.582C590.578 423.09 590.004 423.492 589.309 423.789C588.613 424.086 587.793 424.234 586.848 424.234C586.137 424.234 585.453 424.133 584.797 423.93C584.148 423.719 583.57 423.414 583.062 423.016C582.555 422.609 582.137 422.105 581.809 421.504C581.488 420.902 581.305 420.203 581.258 419.406H583.965C584.074 420.25 584.383 420.895 584.891 421.34C585.398 421.777 586.051 421.996 586.848 421.996C587.309 421.996 587.711 421.91 588.055 421.738C588.398 421.566 588.684 421.328 588.91 421.023C589.137 420.711 589.305 420.34 589.414 419.91C589.531 419.473 589.59 418.996 589.59 418.48C589.59 417.988 589.523 417.535 589.391 417.121C589.266 416.707 589.074 416.352 588.816 416.055C588.559 415.75 588.238 415.512 587.855 415.34C587.473 415.168 587.031 415.082 586.531 415.082C586.195 415.082 585.906 415.109 585.664 415.164C585.422 415.211 585.203 415.281 585.008 415.375C584.82 415.461 584.648 415.566 584.492 415.691C584.336 415.816 584.18 415.949 584.023 416.09L581.785 415.539Z" fill="white"/>
<path d="M73.9176 162.545H77.1136L82.6705 176.114H82.875L88.4318 162.545H91.6278V180H89.1222V167.369H88.9602L83.8125 179.974H81.733L76.5852 167.361H76.4233V180H73.9176V162.545ZM100.766 180.264C99.5391 180.264 98.468 179.983 97.5533 179.42C96.6385 178.858 95.9283 178.071 95.4226 177.06C94.9169 176.048 94.6641 174.866 94.6641 173.514C94.6641 172.156 94.9169 170.969 95.4226 169.952C95.9283 168.935 96.6385 168.145 97.5533 167.582C98.468 167.02 99.5391 166.739 100.766 166.739C101.994 166.739 103.065 167.02 103.979 167.582C104.894 168.145 105.604 168.935 106.11 169.952C106.616 170.969 106.869 172.156 106.869 173.514C106.869 174.866 106.616 176.048 106.11 177.06C105.604 178.071 104.894 178.858 103.979 179.42C103.065 179.983 101.994 180.264 100.766 180.264ZM100.775 178.125C101.57 178.125 102.229 177.915 102.752 177.494C103.275 177.074 103.661 176.514 103.911 175.815C104.167 175.116 104.295 174.347 104.295 173.506C104.295 172.67 104.167 171.903 103.911 171.205C103.661 170.5 103.275 169.935 102.752 169.509C102.229 169.082 101.57 168.869 100.775 168.869C99.9737 168.869 99.3089 169.082 98.7805 169.509C98.2578 169.935 97.8686 170.5 97.6129 171.205C97.3629 171.903 97.2379 172.67 97.2379 173.506C97.2379 174.347 97.3629 175.116 97.6129 175.815C97.8686 176.514 98.2578 177.074 98.7805 177.494C99.3089 177.915 99.9737 178.125 100.775 178.125Z" fill="white"/>
<path opacity="0.3" d="M84.5781 293.539L85.5039 284.938H94.6328V287.445H87.8242L87.3906 291.488C87.6641 291.332 88.0273 291.18 88.4805 291.031C88.9336 290.883 89.457 290.809 90.0508 290.809C90.8555 290.809 91.5742 290.941 92.207 291.207C92.8477 291.473 93.3867 291.855 93.8242 292.355C94.2617 292.848 94.5977 293.449 94.832 294.16C95.0664 294.863 95.1836 295.66 95.1836 296.551C95.1836 297.34 95.0703 298.082 94.8438 298.777C94.625 299.465 94.2852 300.066 93.8242 300.582C93.3711 301.09 92.7969 301.492 92.1016 301.789C91.4062 302.086 90.5859 302.234 89.6406 302.234C88.9297 302.234 88.2461 302.133 87.5898 301.93C86.9414 301.719 86.3633 301.414 85.8555 301.016C85.3477 300.609 84.9297 300.105 84.6016 299.504C84.2812 298.902 84.0977 298.203 84.0508 297.406H86.7578C86.8672 298.25 87.1758 298.895 87.6836 299.34C88.1914 299.777 88.8438 299.996 89.6406 299.996C90.1016 299.996 90.5039 299.91 90.8477 299.738C91.1914 299.566 91.4766 299.328 91.7031 299.023C91.9297 298.711 92.0977 298.34 92.207 297.91C92.3242 297.473 92.3828 296.996 92.3828 296.48C92.3828 295.988 92.3164 295.535 92.1836 295.121C92.0586 294.707 91.8672 294.352 91.6094 294.055C91.3516 293.75 91.0312 293.512 90.6484 293.34C90.2656 293.168 89.8242 293.082 89.3242 293.082C88.9883 293.082 88.6992 293.109 88.457 293.164C88.2148 293.211 87.9961 293.281 87.8008 293.375C87.6133 293.461 87.4414 293.566 87.2852 293.691C87.1289 293.816 86.9727 293.949 86.8164 294.09L84.5781 293.539Z" fill="white"/>
<path opacity="0.3" d="M84.4844 363H81.6602V349.395L77.3008 350.988V348.527L84.3086 345.938H84.4844V363ZM102.191 363H90.7305V361.066L96.2852 355.008C96.7539 354.484 97.1445 354.023 97.457 353.625C97.7773 353.219 98.0312 352.848 98.2188 352.512C98.4062 352.176 98.5391 351.863 98.6172 351.574C98.6953 351.285 98.7344 350.992 98.7344 350.695C98.7344 350.305 98.6719 349.945 98.5469 349.617C98.4297 349.281 98.2578 348.996 98.0312 348.762C97.8125 348.52 97.543 348.332 97.2227 348.199C96.9102 348.066 96.5586 348 96.168 348C95.1523 348 94.4023 348.277 93.918 348.832C93.4414 349.387 93.2031 350.152 93.2031 351.129H90.3906C90.3906 350.387 90.5234 349.688 90.7891 349.031C91.0625 348.367 91.4492 347.789 91.9492 347.297C92.457 346.805 93.0703 346.418 93.7891 346.137C94.5078 345.848 95.3164 345.703 96.2148 345.703C97.0586 345.703 97.8086 345.824 98.4648 346.066C99.1211 346.309 99.6758 346.648 100.129 347.086C100.582 347.516 100.926 348.027 101.16 348.621C101.395 349.215 101.512 349.867 101.512 350.578C101.512 351.109 101.426 351.625 101.254 352.125C101.082 352.617 100.844 353.109 100.539 353.602C100.234 354.094 99.8711 354.59 99.4492 355.09C99.0273 355.582 98.5703 356.09 98.0781 356.613L94.2109 360.762H102.191V363Z" fill="white"/>
<path opacity="0.3" d="M84.4844 424H81.6602V410.395L77.3008 411.988V409.527L84.3086 406.938H84.4844V424ZM93.6133 421.68C94.6289 421.68 95.4805 421.562 96.168 421.328C96.8633 421.086 97.4258 420.754 97.8555 420.332C98.2852 419.91 98.6016 419.414 98.8047 418.844C99.0156 418.266 99.1484 417.641 99.2031 416.969C99.0312 417.164 98.832 417.348 98.6055 417.52C98.3867 417.684 98.1367 417.832 97.8555 417.965C97.582 418.09 97.2773 418.191 96.9414 418.27C96.6133 418.34 96.25 418.375 95.8516 418.375C95.0156 418.375 94.2891 418.219 93.6719 417.906C93.0547 417.586 92.543 417.164 92.1367 416.641C91.7305 416.109 91.4258 415.5 91.2227 414.812C91.0273 414.125 90.9297 413.406 90.9297 412.656C90.9297 411.836 91.0508 411.066 91.293 410.348C91.5352 409.621 91.8906 408.988 92.3594 408.449C92.8281 407.91 93.4023 407.484 94.082 407.172C94.7695 406.859 95.5508 406.703 96.4258 406.703C97.3711 406.703 98.1914 406.891 98.8867 407.266C99.5898 407.641 100.172 408.145 100.633 408.777C101.102 409.41 101.449 410.148 101.676 410.992C101.91 411.828 102.027 412.711 102.027 413.641V414.555C102.027 415.367 101.973 416.168 101.863 416.957C101.762 417.738 101.582 418.484 101.324 419.195C101.074 419.898 100.738 420.547 100.316 421.141C99.9023 421.734 99.3828 422.25 98.7578 422.688C98.1406 423.117 97.4062 423.457 96.5547 423.707C95.7109 423.949 94.7344 424.07 93.625 424.07H93.4023V421.68H93.6133ZM96.4258 416.16C96.7461 416.16 97.0508 416.109 97.3398 416.008C97.6367 415.906 97.9062 415.766 98.1484 415.586C98.3906 415.406 98.6055 415.191 98.793 414.941C98.9805 414.691 99.1289 414.418 99.2383 414.121V413.195C99.2383 412.508 99.1602 411.902 99.0039 411.379C98.8555 410.848 98.6523 410.406 98.3945 410.055C98.1367 409.695 97.8359 409.426 97.4922 409.246C97.1562 409.066 96.8008 408.977 96.4258 408.977C95.9883 408.977 95.6016 409.07 95.2656 409.258C94.9297 409.445 94.6445 409.703 94.4102 410.031C94.1836 410.352 94.0078 410.73 93.8828 411.168C93.7656 411.605 93.707 412.074 93.707 412.574C93.707 413.043 93.7617 413.492 93.8711 413.922C93.9805 414.352 94.1445 414.734 94.3633 415.07C94.5898 415.398 94.875 415.664 95.2188 415.867C95.5625 416.062 95.9648 416.16 96.4258 416.16Z" fill="white"/>
<path opacity="0.3" d="M87.7773 485H76.3164V483.066L81.8711 477.008C82.3398 476.484 82.7305 476.023 83.043 475.625C83.3633 475.219 83.6172 474.848 83.8047 474.512C83.9922 474.176 84.125 473.863 84.2031 473.574C84.2812 473.285 84.3203 472.992 84.3203 472.695C84.3203 472.305 84.2578 471.945 84.1328 471.617C84.0156 471.281 83.8438 470.996 83.6172 470.762C83.3984 470.52 83.1289 470.332 82.8086 470.199C82.4961 470.066 82.1445 470 81.7539 470C80.7383 470 79.9883 470.277 79.5039 470.832C79.0273 471.387 78.7891 472.152 78.7891 473.129H75.9766C75.9766 472.387 76.1094 471.688 76.375 471.031C76.6484 470.367 77.0352 469.789 77.5352 469.297C78.043 468.805 78.6562 468.418 79.375 468.137C80.0938 467.848 80.9023 467.703 81.8008 467.703C82.6445 467.703 83.3945 467.824 84.0508 468.066C84.707 468.309 85.2617 468.648 85.7148 469.086C86.168 469.516 86.5117 470.027 86.7461 470.621C86.9805 471.215 87.0977 471.867 87.0977 472.578C87.0977 473.109 87.0117 473.625 86.8398 474.125C86.668 474.617 86.4297 475.109 86.125 475.602C85.8203 476.094 85.457 476.59 85.0352 477.09C84.6133 477.582 84.1562 478.09 83.6641 478.613L79.7969 482.762H87.7773V485ZM99.6602 467.867V470.258H99.4727C98.5117 470.258 97.6836 470.395 96.9883 470.668C96.3008 470.934 95.7266 471.297 95.2656 471.758C94.8125 472.219 94.4648 472.758 94.2227 473.375C93.9883 473.984 93.8398 474.637 93.7773 475.332C93.9648 475.121 94.1797 474.922 94.4219 474.734C94.6641 474.539 94.9336 474.367 95.2305 474.219C95.5273 474.062 95.8477 473.941 96.1914 473.855C96.5352 473.762 96.9023 473.715 97.293 473.715C98.1289 473.715 98.8516 473.875 99.4609 474.195C100.078 474.516 100.586 474.941 100.984 475.473C101.383 475.996 101.68 476.602 101.875 477.289C102.07 477.969 102.168 478.676 102.168 479.41C102.168 480.23 102.043 480.996 101.793 481.707C101.551 482.41 101.195 483.023 100.727 483.547C100.258 484.07 99.6797 484.484 98.9922 484.789C98.3047 485.086 97.5234 485.234 96.6484 485.234C95.7188 485.234 94.8984 485.051 94.1875 484.684C93.4766 484.316 92.8789 483.828 92.3945 483.219C91.918 482.602 91.5547 481.891 91.3047 481.086C91.0547 480.281 90.9297 479.438 90.9297 478.555V477.465C90.9297 476.629 90.9922 475.812 91.1172 475.016C91.2422 474.211 91.4414 473.453 91.7148 472.742C91.9961 472.031 92.3555 471.379 92.793 470.785C93.2383 470.184 93.7695 469.668 94.3867 469.238C95.0117 468.809 95.7344 468.473 96.5547 468.23C97.375 467.988 98.3047 467.867 99.3438 467.867H99.6602ZM96.625 475.977C96.3047 475.977 95.9961 476.027 95.6992 476.129C95.4023 476.223 95.1289 476.359 94.8789 476.539C94.6289 476.711 94.4062 476.922 94.2109 477.172C94.0156 477.422 93.8594 477.695 93.7422 477.992V478.789C93.7422 479.484 93.8164 480.094 93.9648 480.617C94.1211 481.133 94.332 481.566 94.5977 481.918C94.8633 482.27 95.168 482.535 95.5117 482.715C95.8555 482.887 96.2227 482.973 96.6133 482.973C97.0508 482.973 97.4414 482.887 97.7852 482.715C98.1289 482.543 98.418 482.305 98.6523 482C98.8945 481.688 99.0781 481.32 99.2031 480.898C99.3281 480.469 99.3906 480 99.3906 479.492C99.3906 479.016 99.332 478.566 99.2148 478.145C99.0977 477.715 98.9219 477.34 98.6875 477.02C98.4531 476.699 98.1641 476.445 97.8203 476.258C97.4766 476.07 97.0781 475.977 96.625 475.977Z" fill="white"/>
<path d="M159.494 164.812V162.545H173.003V164.812H167.557V180H164.932V164.812H159.494ZM182.295 174.571V166.909H184.852V180H182.346V177.733H182.21C181.908 178.432 181.425 179.014 180.761 179.48C180.102 179.94 179.281 180.17 178.298 180.17C177.457 180.17 176.712 179.986 176.065 179.616C175.423 179.241 174.917 178.688 174.548 177.955C174.184 177.222 174.002 176.315 174.002 175.236V166.909H176.55V174.929C176.55 175.821 176.798 176.531 177.292 177.06C177.786 177.588 178.428 177.852 179.218 177.852C179.695 177.852 180.17 177.733 180.641 177.494C181.119 177.256 181.513 176.895 181.826 176.412C182.144 175.929 182.3 175.315 182.295 174.571Z" fill="white"/>
<path opacity="0.3" d="M175.453 284.867V287.258H175.266C174.305 287.258 173.477 287.395 172.781 287.668C172.094 287.934 171.52 288.297 171.059 288.758C170.605 289.219 170.258 289.758 170.016 290.375C169.781 290.984 169.633 291.637 169.57 292.332C169.758 292.121 169.973 291.922 170.215 291.734C170.457 291.539 170.727 291.367 171.023 291.219C171.32 291.062 171.641 290.941 171.984 290.855C172.328 290.762 172.695 290.715 173.086 290.715C173.922 290.715 174.645 290.875 175.254 291.195C175.871 291.516 176.379 291.941 176.777 292.473C177.176 292.996 177.473 293.602 177.668 294.289C177.863 294.969 177.961 295.676 177.961 296.41C177.961 297.23 177.836 297.996 177.586 298.707C177.344 299.41 176.988 300.023 176.52 300.547C176.051 301.07 175.473 301.484 174.785 301.789C174.098 302.086 173.316 302.234 172.441 302.234C171.512 302.234 170.691 302.051 169.98 301.684C169.27 301.316 168.672 300.828 168.188 300.219C167.711 299.602 167.348 298.891 167.098 298.086C166.848 297.281 166.723 296.438 166.723 295.555V294.465C166.723 293.629 166.785 292.812 166.91 292.016C167.035 291.211 167.234 290.453 167.508 289.742C167.789 289.031 168.148 288.379 168.586 287.785C169.031 287.184 169.562 286.668 170.18 286.238C170.805 285.809 171.527 285.473 172.348 285.23C173.168 284.988 174.098 284.867 175.137 284.867H175.453ZM172.418 292.977C172.098 292.977 171.789 293.027 171.492 293.129C171.195 293.223 170.922 293.359 170.672 293.539C170.422 293.711 170.199 293.922 170.004 294.172C169.809 294.422 169.652 294.695 169.535 294.992V295.789C169.535 296.484 169.609 297.094 169.758 297.617C169.914 298.133 170.125 298.566 170.391 298.918C170.656 299.27 170.961 299.535 171.305 299.715C171.648 299.887 172.016 299.973 172.406 299.973C172.844 299.973 173.234 299.887 173.578 299.715C173.922 299.543 174.211 299.305 174.445 299C174.688 298.688 174.871 298.32 174.996 297.898C175.121 297.469 175.184 297 175.184 296.492C175.184 296.016 175.125 295.566 175.008 295.145C174.891 294.715 174.715 294.34 174.48 294.02C174.246 293.699 173.957 293.445 173.613 293.258C173.27 293.07 172.871 292.977 172.418 292.977Z" fill="white"/>
<path opacity="0.3" d="M167.484 363H164.66V349.395L160.301 350.988V348.527L167.309 345.938H167.484V363ZM177.234 353.203H178.91C179.402 353.203 179.832 353.141 180.199 353.016C180.566 352.883 180.871 352.699 181.113 352.465C181.355 352.23 181.535 351.953 181.652 351.633C181.777 351.305 181.84 350.945 181.84 350.555C181.84 349.727 181.621 349.09 181.184 348.645C180.754 348.191 180.102 347.965 179.227 347.965C178.844 347.965 178.488 348.023 178.16 348.141C177.84 348.25 177.559 348.41 177.316 348.621C177.082 348.832 176.898 349.086 176.766 349.383C176.633 349.68 176.566 350.016 176.566 350.391H173.766C173.766 349.719 173.898 349.098 174.164 348.527C174.438 347.957 174.812 347.465 175.289 347.051C175.773 346.629 176.348 346.301 177.012 346.066C177.676 345.824 178.402 345.703 179.191 345.703C179.996 345.703 180.734 345.809 181.406 346.02C182.078 346.223 182.652 346.527 183.129 346.934C183.605 347.34 183.977 347.848 184.242 348.457C184.508 349.059 184.641 349.758 184.641 350.555C184.641 350.891 184.59 351.234 184.488 351.586C184.387 351.938 184.23 352.277 184.02 352.605C183.816 352.934 183.555 353.242 183.234 353.531C182.922 353.812 182.551 354.051 182.121 354.246C182.637 354.426 183.07 354.656 183.422 354.938C183.773 355.219 184.059 355.535 184.277 355.887C184.496 356.23 184.652 356.602 184.746 357C184.84 357.398 184.887 357.805 184.887 358.219C184.887 359.016 184.742 359.727 184.453 360.352C184.164 360.977 183.762 361.504 183.246 361.934C182.738 362.355 182.137 362.68 181.441 362.906C180.746 363.125 179.996 363.234 179.191 363.234C178.449 363.234 177.742 363.133 177.07 362.93C176.398 362.727 175.805 362.426 175.289 362.027C174.781 361.621 174.375 361.121 174.07 360.527C173.766 359.926 173.613 359.23 173.613 358.441H176.414C176.414 358.816 176.48 359.164 176.613 359.484C176.746 359.797 176.934 360.066 177.176 360.293C177.426 360.512 177.723 360.684 178.066 360.809C178.41 360.934 178.797 360.996 179.227 360.996C180.117 360.996 180.816 360.762 181.324 360.293C181.84 359.816 182.098 359.129 182.098 358.23C182.098 357.738 182.023 357.316 181.875 356.965C181.727 356.605 181.512 356.312 181.23 356.086C180.957 355.852 180.625 355.68 180.234 355.57C179.844 355.461 179.402 355.406 178.91 355.406H177.234V353.203Z" fill="white"/>
<path opacity="0.3" d="M170.777 424H159.316V422.066L164.871 416.008C165.34 415.484 165.73 415.023 166.043 414.625C166.363 414.219 166.617 413.848 166.805 413.512C166.992 413.176 167.125 412.863 167.203 412.574C167.281 412.285 167.32 411.992 167.32 411.695C167.32 411.305 167.258 410.945 167.133 410.617C167.016 410.281 166.844 409.996 166.617 409.762C166.398 409.52 166.129 409.332 165.809 409.199C165.496 409.066 165.145 409 164.754 409C163.738 409 162.988 409.277 162.504 409.832C162.027 410.387 161.789 411.152 161.789 412.129H158.977C158.977 411.387 159.109 410.688 159.375 410.031C159.648 409.367 160.035 408.789 160.535 408.297C161.043 407.805 161.656 407.418 162.375 407.137C163.094 406.848 163.902 406.703 164.801 406.703C165.645 406.703 166.395 406.824 167.051 407.066C167.707 407.309 168.262 407.648 168.715 408.086C169.168 408.516 169.512 409.027 169.746 409.621C169.98 410.215 170.098 410.867 170.098 411.578C170.098 412.109 170.012 412.625 169.84 413.125C169.668 413.617 169.43 414.109 169.125 414.602C168.82 415.094 168.457 415.59 168.035 416.09C167.613 416.582 167.156 417.09 166.664 417.613L162.797 421.762H170.777V424ZM185.273 417.508C185.273 418.609 185.145 419.582 184.887 420.426C184.637 421.262 184.273 421.965 183.797 422.535C183.32 423.098 182.738 423.523 182.051 423.812C181.363 424.102 180.59 424.246 179.73 424.246C178.879 424.246 178.109 424.102 177.422 423.812C176.734 423.523 176.148 423.098 175.664 422.535C175.188 421.965 174.816 421.262 174.551 420.426C174.293 419.582 174.164 418.609 174.164 417.508V413.43C174.164 412.328 174.293 411.359 174.551 410.523C174.809 409.68 175.176 408.977 175.652 408.414C176.137 407.844 176.719 407.414 177.398 407.125C178.086 406.836 178.855 406.691 179.707 406.691C180.566 406.691 181.34 406.836 182.027 407.125C182.715 407.414 183.297 407.844 183.773 408.414C184.258 408.977 184.629 409.68 184.887 410.523C185.145 411.359 185.273 412.328 185.273 413.43V417.508ZM176.977 416.441L182.438 412.375C182.375 411.211 182.117 410.352 181.664 409.797C181.219 409.234 180.566 408.953 179.707 408.953C178.793 408.953 178.109 409.277 177.656 409.926C177.203 410.574 176.977 411.57 176.977 412.914V416.441ZM182.461 414.578L177 418.645C177.141 420.879 178.051 421.996 179.73 421.996C181.551 421.996 182.461 420.664 182.461 418V414.578Z" fill="white"/>
<path opacity="0.3" d="M170.777 485H159.316V483.066L164.871 477.008C165.34 476.484 165.73 476.023 166.043 475.625C166.363 475.219 166.617 474.848 166.805 474.512C166.992 474.176 167.125 473.863 167.203 473.574C167.281 473.285 167.32 472.992 167.32 472.695C167.32 472.305 167.258 471.945 167.133 471.617C167.016 471.281 166.844 470.996 166.617 470.762C166.398 470.52 166.129 470.332 165.809 470.199C165.496 470.066 165.145 470 164.754 470C163.738 470 162.988 470.277 162.504 470.832C162.027 471.387 161.789 472.152 161.789 473.129H158.977C158.977 472.387 159.109 471.688 159.375 471.031C159.648 470.367 160.035 469.789 160.535 469.297C161.043 468.805 161.656 468.418 162.375 468.137C163.094 467.848 163.902 467.703 164.801 467.703C165.645 467.703 166.395 467.824 167.051 468.066C167.707 468.309 168.262 468.648 168.715 469.086C169.168 469.516 169.512 470.027 169.746 470.621C169.98 471.215 170.098 471.867 170.098 472.578C170.098 473.109 170.012 473.625 169.84 474.125C169.668 474.617 169.43 475.109 169.125 475.602C168.82 476.094 168.457 476.59 168.035 477.09C167.613 477.582 167.156 478.09 166.664 478.613L162.797 482.762H170.777V485ZM185.344 469.496L178.512 485H175.559L182.391 470.27H173.543V467.938H185.344V469.496Z" fill="white"/>
<path d="M242.706 180L237.865 162.545H240.635L244.036 176.062H244.198L247.735 162.545H250.479L254.016 176.071H254.178L257.57 162.545H260.348L255.499 180H252.848L249.175 166.926H249.039L245.365 180H242.706ZM266.898 180.264C265.608 180.264 264.498 179.989 263.566 179.438C262.64 178.881 261.924 178.099 261.418 177.094C260.918 176.082 260.668 174.898 260.668 173.54C260.668 172.199 260.918 171.017 261.418 169.994C261.924 168.972 262.628 168.173 263.532 167.599C264.441 167.026 265.503 166.739 266.719 166.739C267.458 166.739 268.174 166.861 268.867 167.105C269.56 167.349 270.182 167.733 270.733 168.256C271.284 168.778 271.719 169.457 272.037 170.293C272.355 171.122 272.515 172.131 272.515 173.318V174.222H262.108V172.312H270.017C270.017 171.642 269.881 171.048 269.608 170.531C269.336 170.009 268.952 169.597 268.458 169.295C267.969 168.994 267.395 168.844 266.736 168.844C266.02 168.844 265.395 169.02 264.861 169.372C264.333 169.719 263.924 170.173 263.634 170.736C263.35 171.293 263.208 171.898 263.208 172.551V174.043C263.208 174.918 263.361 175.662 263.668 176.276C263.98 176.889 264.415 177.358 264.972 177.682C265.529 178 266.179 178.159 266.924 178.159C267.407 178.159 267.847 178.091 268.245 177.955C268.642 177.812 268.986 177.602 269.276 177.324C269.566 177.045 269.787 176.702 269.941 176.293L272.353 176.727C272.159 177.437 271.813 178.06 271.313 178.594C270.819 179.122 270.196 179.534 269.446 179.83C268.702 180.119 267.853 180.264 266.898 180.264Z" fill="white"/>
<path opacity="0.3" d="M261.137 286.496L254.305 302H251.352L258.184 287.27H249.336V284.938H261.137V286.496Z" fill="white"/>
<path d="M268 332C273.523 332 278 336.477 278 342V366C278 371.523 273.523 376 268 376H244C238.477 376 234 371.523 234 366V342C234 336.477 238.477 332 244 332H268ZM249.309 345.938L242.301 348.527V350.988L246.66 349.395V363H249.484V345.938H249.309ZM262.656 345.938L255.273 357.504L255.344 359.203H262.75V363H265.551V359.203H267.695V356.941H265.551V345.938H262.656ZM262.75 356.941H258.156L262.445 350.227L262.75 349.676V356.941Z" fill="white"/>
<path opacity="0.3" d="M254.777 424H243.316V422.066L248.871 416.008C249.34 415.484 249.73 415.023 250.043 414.625C250.363 414.219 250.617 413.848 250.805 413.512C250.992 413.176 251.125 412.863 251.203 412.574C251.281 412.285 251.32 411.992 251.32 411.695C251.32 411.305 251.258 410.945 251.133 410.617C251.016 410.281 250.844 409.996 250.617 409.762C250.398 409.52 250.129 409.332 249.809 409.199C249.496 409.066 249.145 409 248.754 409C247.738 409 246.988 409.277 246.504 409.832C246.027 410.387 245.789 411.152 245.789 412.129H242.977C242.977 411.387 243.109 410.688 243.375 410.031C243.648 409.367 244.035 408.789 244.535 408.297C245.043 407.805 245.656 407.418 246.375 407.137C247.094 406.848 247.902 406.703 248.801 406.703C249.645 406.703 250.395 406.824 251.051 407.066C251.707 407.309 252.262 407.648 252.715 408.086C253.168 408.516 253.512 409.027 253.746 409.621C253.98 410.215 254.098 410.867 254.098 411.578C254.098 412.109 254.012 412.625 253.84 413.125C253.668 413.617 253.43 414.109 253.125 414.602C252.82 415.094 252.457 415.59 252.035 416.09C251.613 416.582 251.156 417.09 250.664 417.613L246.797 421.762H254.777V424ZM265.898 424H263.074V410.395L258.715 411.988V409.527L265.723 406.938H265.898V424Z" fill="white"/>
<path opacity="0.3" d="M252.94 485H241.479V483.066L247.034 477.008C247.503 476.484 247.894 476.023 248.206 475.625C248.526 475.219 248.78 474.848 248.968 474.512C249.155 474.176 249.288 473.863 249.366 473.574C249.444 473.285 249.483 472.992 249.483 472.695C249.483 472.305 249.421 471.945 249.296 471.617C249.179 471.281 249.007 470.996 248.78 470.762C248.562 470.52 248.292 470.332 247.972 470.199C247.659 470.066 247.308 470 246.917 470C245.901 470 245.151 470.277 244.667 470.832C244.19 471.387 243.952 472.152 243.952 473.129H241.14C241.14 472.387 241.272 471.688 241.538 471.031C241.812 470.367 242.198 469.789 242.698 469.297C243.206 468.805 243.819 468.418 244.538 468.137C245.257 467.848 246.065 467.703 246.964 467.703C247.808 467.703 248.558 467.824 249.214 468.066C249.87 468.309 250.425 468.648 250.878 469.086C251.331 469.516 251.675 470.027 251.909 470.621C252.144 471.215 252.261 471.867 252.261 472.578C252.261 473.109 252.175 473.625 252.003 474.125C251.831 474.617 251.593 475.109 251.288 475.602C250.983 476.094 250.62 476.59 250.198 477.09C249.776 477.582 249.319 478.09 248.827 478.613L244.96 482.762H252.94V485ZM267.12 472.438C267.12 473.273 266.905 474.02 266.476 474.676C266.046 475.324 265.46 475.836 264.718 476.211C265.14 476.406 265.519 476.645 265.854 476.926C266.198 477.207 266.491 477.523 266.733 477.875C266.976 478.227 267.159 478.613 267.284 479.035C267.417 479.449 267.483 479.891 267.483 480.359C267.483 481.148 267.339 481.848 267.05 482.457C266.761 483.066 266.366 483.578 265.866 483.992C265.366 484.398 264.776 484.707 264.097 484.918C263.425 485.129 262.702 485.234 261.929 485.234C261.14 485.234 260.401 485.129 259.714 484.918C259.034 484.707 258.444 484.398 257.944 483.992C257.444 483.578 257.05 483.066 256.761 482.457C256.479 481.848 256.339 481.148 256.339 480.359C256.339 479.891 256.401 479.445 256.526 479.023C256.659 478.602 256.843 478.215 257.077 477.863C257.319 477.512 257.608 477.195 257.944 476.914C258.288 476.633 258.671 476.398 259.093 476.211C258.358 475.836 257.78 475.324 257.358 474.676C256.937 474.02 256.726 473.273 256.726 472.438C256.726 471.68 256.854 471.008 257.112 470.422C257.37 469.828 257.726 469.332 258.179 468.934C258.64 468.527 259.187 468.223 259.819 468.02C260.452 467.809 261.144 467.703 261.894 467.703C262.644 467.703 263.335 467.809 263.968 468.02C264.608 468.223 265.163 468.527 265.632 468.934C266.101 469.332 266.464 469.828 266.722 470.422C266.987 471.008 267.12 471.68 267.12 472.438ZM264.683 480.219C264.683 479.789 264.616 479.398 264.483 479.047C264.351 478.695 264.163 478.395 263.921 478.145C263.679 477.895 263.386 477.703 263.042 477.57C262.706 477.43 262.327 477.359 261.905 477.359C261.483 477.359 261.101 477.43 260.757 477.57C260.421 477.703 260.132 477.895 259.89 478.145C259.655 478.395 259.472 478.695 259.339 479.047C259.214 479.398 259.151 479.789 259.151 480.219C259.151 481.094 259.397 481.777 259.89 482.27C260.382 482.754 261.062 482.996 261.929 482.996C262.335 482.996 262.706 482.934 263.042 482.809C263.386 482.684 263.679 482.5 263.921 482.258C264.163 482.016 264.351 481.727 264.483 481.391C264.616 481.047 264.683 480.656 264.683 480.219ZM264.319 472.531C264.319 472.156 264.261 471.812 264.144 471.5C264.026 471.18 263.862 470.906 263.651 470.68C263.44 470.453 263.183 470.277 262.878 470.152C262.581 470.027 262.253 469.965 261.894 469.965C261.526 469.965 261.194 470.023 260.897 470.141C260.608 470.258 260.362 470.43 260.159 470.656C259.956 470.875 259.8 471.145 259.69 471.465C259.581 471.777 259.526 472.133 259.526 472.531C259.526 472.922 259.581 473.277 259.69 473.598C259.808 473.91 259.968 474.18 260.171 474.406C260.382 474.625 260.636 474.797 260.933 474.922C261.229 475.047 261.562 475.109 261.929 475.109C262.288 475.109 262.616 475.047 262.913 474.922C263.21 474.797 263.46 474.625 263.663 474.406C263.874 474.18 264.034 473.91 264.144 473.598C264.261 473.277 264.319 472.922 264.319 472.531Z" fill="white"/>
<path d="M325.522 164.812V162.545H339.03V164.812H333.584V180H330.959V164.812H325.522ZM344.359 172.227V180H341.811V162.545H344.325V169.04H344.487C344.794 168.335 345.262 167.776 345.893 167.361C346.524 166.946 347.348 166.739 348.365 166.739C349.262 166.739 350.047 166.923 350.717 167.293C351.393 167.662 351.916 168.213 352.285 168.946C352.66 169.673 352.848 170.582 352.848 171.673V180H350.299V171.98C350.299 171.02 350.052 170.276 349.558 169.747C349.064 169.213 348.376 168.946 347.495 168.946C346.893 168.946 346.353 169.074 345.876 169.33C345.404 169.585 345.032 169.96 344.76 170.455C344.493 170.943 344.359 171.534 344.359 172.227Z" fill="white"/>
<path opacity="0.3" d="M341.691 241H338.867V227.395L334.508 228.988V226.527L341.516 223.938H341.691V241Z" fill="white"/>
<path opacity="0.3" d="M344.75 289.438C344.75 290.273 344.535 291.02 344.105 291.676C343.676 292.324 343.09 292.836 342.348 293.211C342.77 293.406 343.148 293.645 343.484 293.926C343.828 294.207 344.121 294.523 344.363 294.875C344.605 295.227 344.789 295.613 344.914 296.035C345.047 296.449 345.113 296.891 345.113 297.359C345.113 298.148 344.969 298.848 344.68 299.457C344.391 300.066 343.996 300.578 343.496 300.992C342.996 301.398 342.406 301.707 341.727 301.918C341.055 302.129 340.332 302.234 339.559 302.234C338.77 302.234 338.031 302.129 337.344 301.918C336.664 301.707 336.074 301.398 335.574 300.992C335.074 300.578 334.68 300.066 334.391 299.457C334.109 298.848 333.969 298.148 333.969 297.359C333.969 296.891 334.031 296.445 334.156 296.023C334.289 295.602 334.473 295.215 334.707 294.863C334.949 294.512 335.238 294.195 335.574 293.914C335.918 293.633 336.301 293.398 336.723 293.211C335.988 292.836 335.41 292.324 334.988 291.676C334.566 291.02 334.355 290.273 334.355 289.438C334.355 288.68 334.484 288.008 334.742 287.422C335 286.828 335.355 286.332 335.809 285.934C336.27 285.527 336.816 285.223 337.449 285.02C338.082 284.809 338.773 284.703 339.523 284.703C340.273 284.703 340.965 284.809 341.598 285.02C342.238 285.223 342.793 285.527 343.262 285.934C343.73 286.332 344.094 286.828 344.352 287.422C344.617 288.008 344.75 288.68 344.75 289.438ZM342.312 297.219C342.312 296.789 342.246 296.398 342.113 296.047C341.98 295.695 341.793 295.395 341.551 295.145C341.309 294.895 341.016 294.703 340.672 294.57C340.336 294.43 339.957 294.359 339.535 294.359C339.113 294.359 338.73 294.43 338.387 294.57C338.051 294.703 337.762 294.895 337.52 295.145C337.285 295.395 337.102 295.695 336.969 296.047C336.844 296.398 336.781 296.789 336.781 297.219C336.781 298.094 337.027 298.777 337.52 299.27C338.012 299.754 338.691 299.996 339.559 299.996C339.965 299.996 340.336 299.934 340.672 299.809C341.016 299.684 341.309 299.5 341.551 299.258C341.793 299.016 341.98 298.727 342.113 298.391C342.246 298.047 342.312 297.656 342.312 297.219ZM341.949 289.531C341.949 289.156 341.891 288.812 341.773 288.5C341.656 288.18 341.492 287.906 341.281 287.68C341.07 287.453 340.812 287.277 340.508 287.152C340.211 287.027 339.883 286.965 339.523 286.965C339.156 286.965 338.824 287.023 338.527 287.141C338.238 287.258 337.992 287.43 337.789 287.656C337.586 287.875 337.43 288.145 337.32 288.465C337.211 288.777 337.156 289.133 337.156 289.531C337.156 289.922 337.211 290.277 337.32 290.598C337.438 290.91 337.598 291.18 337.801 291.406C338.012 291.625 338.266 291.797 338.562 291.922C338.859 292.047 339.191 292.109 339.559 292.109C339.918 292.109 340.246 292.047 340.543 291.922C340.84 291.797 341.09 291.625 341.293 291.406C341.504 291.18 341.664 290.91 341.773 290.598C341.891 290.277 341.949 289.922 341.949 289.531Z" fill="white"/>
<path opacity="0.3" d="M334.484 363H331.66V349.395L327.301 350.988V348.527L334.309 345.938H334.484V363ZM341.785 354.539L342.711 345.938H351.84V348.445H345.031L344.598 352.488C344.871 352.332 345.234 352.18 345.688 352.031C346.141 351.883 346.664 351.809 347.258 351.809C348.062 351.809 348.781 351.941 349.414 352.207C350.055 352.473 350.594 352.855 351.031 353.355C351.469 353.848 351.805 354.449 352.039 355.16C352.273 355.863 352.391 356.66 352.391 357.551C352.391 358.34 352.277 359.082 352.051 359.777C351.832 360.465 351.492 361.066 351.031 361.582C350.578 362.09 350.004 362.492 349.309 362.789C348.613 363.086 347.793 363.234 346.848 363.234C346.137 363.234 345.453 363.133 344.797 362.93C344.148 362.719 343.57 362.414 343.062 362.016C342.555 361.609 342.137 361.105 341.809 360.504C341.488 359.902 341.305 359.203 341.258 358.406H343.965C344.074 359.25 344.383 359.895 344.891 360.34C345.398 360.777 346.051 360.996 346.848 360.996C347.309 360.996 347.711 360.91 348.055 360.738C348.398 360.566 348.684 360.328 348.91 360.023C349.137 359.711 349.305 359.34 349.414 358.91C349.531 358.473 349.59 357.996 349.59 357.48C349.59 356.988 349.523 356.535 349.391 356.121C349.266 355.707 349.074 355.352 348.816 355.055C348.559 354.75 348.238 354.512 347.855 354.34C347.473 354.168 347.031 354.082 346.531 354.082C346.195 354.082 345.906 354.109 345.664 354.164C345.422 354.211 345.203 354.281 345.008 354.375C344.82 354.461 344.648 354.566 344.492 354.691C344.336 354.816 344.18 354.949 344.023 355.09L341.785 354.539Z" fill="white"/>
<path opacity="0.3" d="M337.777 424H326.316V422.066L331.871 416.008C332.34 415.484 332.73 415.023 333.043 414.625C333.363 414.219 333.617 413.848 333.805 413.512C333.992 413.176 334.125 412.863 334.203 412.574C334.281 412.285 334.32 411.992 334.32 411.695C334.32 411.305 334.258 410.945 334.133 410.617C334.016 410.281 333.844 409.996 333.617 409.762C333.398 409.52 333.129 409.332 332.809 409.199C332.496 409.066 332.145 409 331.754 409C330.738 409 329.988 409.277 329.504 409.832C329.027 410.387 328.789 411.152 328.789 412.129H325.977C325.977 411.387 326.109 410.688 326.375 410.031C326.648 409.367 327.035 408.789 327.535 408.297C328.043 407.805 328.656 407.418 329.375 407.137C330.094 406.848 330.902 406.703 331.801 406.703C332.645 406.703 333.395 406.824 334.051 407.066C334.707 407.309 335.262 407.648 335.715 408.086C336.168 408.516 336.512 409.027 336.746 409.621C336.98 410.215 337.098 410.867 337.098 411.578C337.098 412.109 337.012 412.625 336.84 413.125C336.668 413.617 336.43 414.109 336.125 414.602C335.82 415.094 335.457 415.59 335.035 416.09C334.613 416.582 334.156 417.09 333.664 417.613L329.797 421.762H337.777V424ZM352.191 424H340.73V422.066L346.285 416.008C346.754 415.484 347.145 415.023 347.457 414.625C347.777 414.219 348.031 413.848 348.219 413.512C348.406 413.176 348.539 412.863 348.617 412.574C348.695 412.285 348.734 411.992 348.734 411.695C348.734 411.305 348.672 410.945 348.547 410.617C348.43 410.281 348.258 409.996 348.031 409.762C347.812 409.52 347.543 409.332 347.223 409.199C346.91 409.066 346.559 409 346.168 409C345.152 409 344.402 409.277 343.918 409.832C343.441 410.387 343.203 411.152 343.203 412.129H340.391C340.391 411.387 340.523 410.688 340.789 410.031C341.062 409.367 341.449 408.789 341.949 408.297C342.457 407.805 343.07 407.418 343.789 407.137C344.508 406.848 345.316 406.703 346.215 406.703C347.059 406.703 347.809 406.824 348.465 407.066C349.121 407.309 349.676 407.648 350.129 408.086C350.582 408.516 350.926 409.027 351.16 409.621C351.395 410.215 351.512 410.867 351.512 411.578C351.512 412.109 351.426 412.625 351.254 413.125C351.082 413.617 350.844 414.109 350.539 414.602C350.234 415.094 349.871 415.59 349.449 416.09C349.027 416.582 348.57 417.09 348.078 417.613L344.211 421.762H352.191V424Z" fill="white"/>
<path opacity="0.3" d="M337.777 485H326.316V483.066L331.871 477.008C332.34 476.484 332.73 476.023 333.043 475.625C333.363 475.219 333.617 474.848 333.805 474.512C333.992 474.176 334.125 473.863 334.203 473.574C334.281 473.285 334.32 472.992 334.32 472.695C334.32 472.305 334.258 471.945 334.133 471.617C334.016 471.281 333.844 470.996 333.617 470.762C333.398 470.52 333.129 470.332 332.809 470.199C332.496 470.066 332.145 470 331.754 470C330.738 470 329.988 470.277 329.504 470.832C329.027 471.387 328.789 472.152 328.789 473.129H325.977C325.977 472.387 326.109 471.688 326.375 471.031C326.648 470.367 327.035 469.789 327.535 469.297C328.043 468.805 328.656 468.418 329.375 468.137C330.094 467.848 330.902 467.703 331.801 467.703C332.645 467.703 333.395 467.824 334.051 468.066C334.707 468.309 335.262 468.648 335.715 469.086C336.168 469.516 336.512 470.027 336.746 470.621C336.98 471.215 337.098 471.867 337.098 472.578C337.098 473.109 337.012 473.625 336.84 474.125C336.668 474.617 336.43 475.109 336.125 475.602C335.82 476.094 335.457 476.59 335.035 477.09C334.613 477.582 334.156 478.09 333.664 478.613L329.797 482.762H337.777V485ZM343.613 482.68C344.629 482.68 345.48 482.562 346.168 482.328C346.863 482.086 347.426 481.754 347.855 481.332C348.285 480.91 348.602 480.414 348.805 479.844C349.016 479.266 349.148 478.641 349.203 477.969C349.031 478.164 348.832 478.348 348.605 478.52C348.387 478.684 348.137 478.832 347.855 478.965C347.582 479.09 347.277 479.191 346.941 479.27C346.613 479.34 346.25 479.375 345.852 479.375C345.016 479.375 344.289 479.219 343.672 478.906C343.055 478.586 342.543 478.164 342.137 477.641C341.73 477.109 341.426 476.5 341.223 475.812C341.027 475.125 340.93 474.406 340.93 473.656C340.93 472.836 341.051 472.066 341.293 471.348C341.535 470.621 341.891 469.988 342.359 469.449C342.828 468.91 343.402 468.484 344.082 468.172C344.77 467.859 345.551 467.703 346.426 467.703C347.371 467.703 348.191 467.891 348.887 468.266C349.59 468.641 350.172 469.145 350.633 469.777C351.102 470.41 351.449 471.148 351.676 471.992C351.91 472.828 352.027 473.711 352.027 474.641V475.555C352.027 476.367 351.973 477.168 351.863 477.957C351.762 478.738 351.582 479.484 351.324 480.195C351.074 480.898 350.738 481.547 350.316 482.141C349.902 482.734 349.383 483.25 348.758 483.688C348.141 484.117 347.406 484.457 346.555 484.707C345.711 484.949 344.734 485.07 343.625 485.07H343.402V482.68H343.613ZM346.426 477.16C346.746 477.16 347.051 477.109 347.34 477.008C347.637 476.906 347.906 476.766 348.148 476.586C348.391 476.406 348.605 476.191 348.793 475.941C348.98 475.691 349.129 475.418 349.238 475.121V474.195C349.238 473.508 349.16 472.902 349.004 472.379C348.855 471.848 348.652 471.406 348.395 471.055C348.137 470.695 347.836 470.426 347.492 470.246C347.156 470.066 346.801 469.977 346.426 469.977C345.988 469.977 345.602 470.07 345.266 470.258C344.93 470.445 344.645 470.703 344.41 471.031C344.184 471.352 344.008 471.73 343.883 472.168C343.766 472.605 343.707 473.074 343.707 473.574C343.707 474.043 343.762 474.492 343.871 474.922C343.98 475.352 344.145 475.734 344.363 476.07C344.59 476.398 344.875 476.664 345.219 476.867C345.562 477.062 345.965 477.16 346.426 477.16Z" fill="white"/>
<path d="M409.363 180V162.545H420.187V164.812H411.996V170.131H419.411V172.389H411.996V180H409.363ZM423.057 180V166.909H425.52V168.989H425.656C425.895 168.284 426.315 167.73 426.918 167.327C427.526 166.918 428.213 166.713 428.98 166.713C429.139 166.713 429.327 166.719 429.543 166.73C429.764 166.741 429.938 166.756 430.062 166.773V169.21C429.96 169.182 429.778 169.151 429.517 169.116C429.256 169.077 428.994 169.057 428.733 169.057C428.131 169.057 427.594 169.185 427.122 169.44C426.656 169.69 426.287 170.04 426.014 170.489C425.741 170.932 425.605 171.437 425.605 172.006V180H423.057Z" fill="white"/>
<path opacity="0.3" d="M424.691 241H413.23V239.066L418.785 233.008C419.254 232.484 419.645 232.023 419.957 231.625C420.277 231.219 420.531 230.848 420.719 230.512C420.906 230.176 421.039 229.863 421.117 229.574C421.195 229.285 421.234 228.992 421.234 228.695C421.234 228.305 421.172 227.945 421.047 227.617C420.93 227.281 420.758 226.996 420.531 226.762C420.312 226.52 420.043 226.332 419.723 226.199C419.41 226.066 419.059 226 418.668 226C417.652 226 416.902 226.277 416.418 226.832C415.941 227.387 415.703 228.152 415.703 229.129H412.891C412.891 228.387 413.023 227.688 413.289 227.031C413.562 226.367 413.949 225.789 414.449 225.297C414.957 224.805 415.57 224.418 416.289 224.137C417.008 223.848 417.816 223.703 418.715 223.703C419.559 223.703 420.309 223.824 420.965 224.066C421.621 224.309 422.176 224.648 422.629 225.086C423.082 225.516 423.426 226.027 423.66 226.621C423.895 227.215 424.012 227.867 424.012 228.578C424.012 229.109 423.926 229.625 423.754 230.125C423.582 230.617 423.344 231.109 423.039 231.602C422.734 232.094 422.371 232.59 421.949 233.09C421.527 233.582 421.07 234.09 420.578 234.613L416.711 238.762H424.691V241Z" fill="white"/>
<path opacity="0.3" d="M416.113 299.68C417.129 299.68 417.98 299.562 418.668 299.328C419.363 299.086 419.926 298.754 420.355 298.332C420.785 297.91 421.102 297.414 421.305 296.844C421.516 296.266 421.648 295.641 421.703 294.969C421.531 295.164 421.332 295.348 421.105 295.52C420.887 295.684 420.637 295.832 420.355 295.965C420.082 296.09 419.777 296.191 419.441 296.27C419.113 296.34 418.75 296.375 418.352 296.375C417.516 296.375 416.789 296.219 416.172 295.906C415.555 295.586 415.043 295.164 414.637 294.641C414.23 294.109 413.926 293.5 413.723 292.812C413.527 292.125 413.43 291.406 413.43 290.656C413.43 289.836 413.551 289.066 413.793 288.348C414.035 287.621 414.391 286.988 414.859 286.449C415.328 285.91 415.902 285.484 416.582 285.172C417.27 284.859 418.051 284.703 418.926 284.703C419.871 284.703 420.691 284.891 421.387 285.266C422.09 285.641 422.672 286.145 423.133 286.777C423.602 287.41 423.949 288.148 424.176 288.992C424.41 289.828 424.527 290.711 424.527 291.641V292.555C424.527 293.367 424.473 294.168 424.363 294.957C424.262 295.738 424.082 296.484 423.824 297.195C423.574 297.898 423.238 298.547 422.816 299.141C422.402 299.734 421.883 300.25 421.258 300.688C420.641 301.117 419.906 301.457 419.055 301.707C418.211 301.949 417.234 302.07 416.125 302.07H415.902V299.68H416.113ZM418.926 294.16C419.246 294.16 419.551 294.109 419.84 294.008C420.137 293.906 420.406 293.766 420.648 293.586C420.891 293.406 421.105 293.191 421.293 292.941C421.48 292.691 421.629 292.418 421.738 292.121V291.195C421.738 290.508 421.66 289.902 421.504 289.379C421.355 288.848 421.152 288.406 420.895 288.055C420.637 287.695 420.336 287.426 419.992 287.246C419.656 287.066 419.301 286.977 418.926 286.977C418.488 286.977 418.102 287.07 417.766 287.258C417.43 287.445 417.145 287.703 416.91 288.031C416.684 288.352 416.508 288.73 416.383 289.168C416.266 289.605 416.207 290.074 416.207 290.574C416.207 291.043 416.262 291.492 416.371 291.922C416.48 292.352 416.645 292.734 416.863 293.07C417.09 293.398 417.375 293.664 417.719 293.867C418.062 294.062 418.465 294.16 418.926 294.16Z" fill="white"/>
<path opacity="0.3" d="M414.398 363H411.574V349.395L407.215 350.988V348.527L414.223 345.938H414.398V363ZM429.574 345.867V348.258H429.387C428.426 348.258 427.598 348.395 426.902 348.668C426.215 348.934 425.641 349.297 425.18 349.758C424.727 350.219 424.379 350.758 424.137 351.375C423.902 351.984 423.754 352.637 423.691 353.332C423.879 353.121 424.094 352.922 424.336 352.734C424.578 352.539 424.848 352.367 425.145 352.219C425.441 352.062 425.762 351.941 426.105 351.855C426.449 351.762 426.816 351.715 427.207 351.715C428.043 351.715 428.766 351.875 429.375 352.195C429.992 352.516 430.5 352.941 430.898 353.473C431.297 353.996 431.594 354.602 431.789 355.289C431.984 355.969 432.082 356.676 432.082 357.41C432.082 358.23 431.957 358.996 431.707 359.707C431.465 360.41 431.109 361.023 430.641 361.547C430.172 362.07 429.594 362.484 428.906 362.789C428.219 363.086 427.438 363.234 426.562 363.234C425.633 363.234 424.812 363.051 424.102 362.684C423.391 362.316 422.793 361.828 422.309 361.219C421.832 360.602 421.469 359.891 421.219 359.086C420.969 358.281 420.844 357.438 420.844 356.555V355.465C420.844 354.629 420.906 353.812 421.031 353.016C421.156 352.211 421.355 351.453 421.629 350.742C421.91 350.031 422.27 349.379 422.707 348.785C423.152 348.184 423.684 347.668 424.301 347.238C424.926 346.809 425.648 346.473 426.469 346.23C427.289 345.988 428.219 345.867 429.258 345.867H429.574ZM426.539 353.977C426.219 353.977 425.91 354.027 425.613 354.129C425.316 354.223 425.043 354.359 424.793 354.539C424.543 354.711 424.32 354.922 424.125 355.172C423.93 355.422 423.773 355.695 423.656 355.992V356.789C423.656 357.484 423.73 358.094 423.879 358.617C424.035 359.133 424.246 359.566 424.512 359.918C424.777 360.27 425.082 360.535 425.426 360.715C425.77 360.887 426.137 360.973 426.527 360.973C426.965 360.973 427.355 360.887 427.699 360.715C428.043 360.543 428.332 360.305 428.566 360C428.809 359.688 428.992 359.32 429.117 358.898C429.242 358.469 429.305 358 429.305 357.492C429.305 357.016 429.246 356.566 429.129 356.145C429.012 355.715 428.836 355.34 428.602 355.02C428.367 354.699 428.078 354.445 427.734 354.258C427.391 354.07 426.992 353.977 426.539 353.977Z" fill="white"/>
<path opacity="0.3" d="M417.691 424H406.23V422.066L411.785 416.008C412.254 415.484 412.645 415.023 412.957 414.625C413.277 414.219 413.531 413.848 413.719 413.512C413.906 413.176 414.039 412.863 414.117 412.574C414.195 412.285 414.234 411.992 414.234 411.695C414.234 411.305 414.172 410.945 414.047 410.617C413.93 410.281 413.758 409.996 413.531 409.762C413.312 409.52 413.043 409.332 412.723 409.199C412.41 409.066 412.059 409 411.668 409C410.652 409 409.902 409.277 409.418 409.832C408.941 410.387 408.703 411.152 408.703 412.129H405.891C405.891 411.387 406.023 410.688 406.289 410.031C406.562 409.367 406.949 408.789 407.449 408.297C407.957 407.805 408.57 407.418 409.289 407.137C410.008 406.848 410.816 406.703 411.715 406.703C412.559 406.703 413.309 406.824 413.965 407.066C414.621 407.309 415.176 407.648 415.629 408.086C416.082 408.516 416.426 409.027 416.66 409.621C416.895 410.215 417.012 410.867 417.012 411.578C417.012 412.109 416.926 412.625 416.754 413.125C416.582 413.617 416.344 414.109 416.039 414.602C415.734 415.094 415.371 415.59 414.949 416.09C414.527 416.582 414.07 417.09 413.578 417.613L409.711 421.762H417.691V424ZM424.148 414.203H425.824C426.316 414.203 426.746 414.141 427.113 414.016C427.48 413.883 427.785 413.699 428.027 413.465C428.27 413.23 428.449 412.953 428.566 412.633C428.691 412.305 428.754 411.945 428.754 411.555C428.754 410.727 428.535 410.09 428.098 409.645C427.668 409.191 427.016 408.965 426.141 408.965C425.758 408.965 425.402 409.023 425.074 409.141C424.754 409.25 424.473 409.41 424.23 409.621C423.996 409.832 423.812 410.086 423.68 410.383C423.547 410.68 423.48 411.016 423.48 411.391H420.68C420.68 410.719 420.812 410.098 421.078 409.527C421.352 408.957 421.727 408.465 422.203 408.051C422.688 407.629 423.262 407.301 423.926 407.066C424.59 406.824 425.316 406.703 426.105 406.703C426.91 406.703 427.648 406.809 428.32 407.02C428.992 407.223 429.566 407.527 430.043 407.934C430.52 408.34 430.891 408.848 431.156 409.457C431.422 410.059 431.555 410.758 431.555 411.555C431.555 411.891 431.504 412.234 431.402 412.586C431.301 412.938 431.145 413.277 430.934 413.605C430.73 413.934 430.469 414.242 430.148 414.531C429.836 414.812 429.465 415.051 429.035 415.246C429.551 415.426 429.984 415.656 430.336 415.938C430.688 416.219 430.973 416.535 431.191 416.887C431.41 417.23 431.566 417.602 431.66 418C431.754 418.398 431.801 418.805 431.801 419.219C431.801 420.016 431.656 420.727 431.367 421.352C431.078 421.977 430.676 422.504 430.16 422.934C429.652 423.355 429.051 423.68 428.355 423.906C427.66 424.125 426.91 424.234 426.105 424.234C425.363 424.234 424.656 424.133 423.984 423.93C423.312 423.727 422.719 423.426 422.203 423.027C421.695 422.621 421.289 422.121 420.984 421.527C420.68 420.926 420.527 420.23 420.527 419.441H423.328C423.328 419.816 423.395 420.164 423.527 420.484C423.66 420.797 423.848 421.066 424.09 421.293C424.34 421.512 424.637 421.684 424.98 421.809C425.324 421.934 425.711 421.996 426.141 421.996C427.031 421.996 427.73 421.762 428.238 421.293C428.754 420.816 429.012 420.129 429.012 419.23C429.012 418.738 428.938 418.316 428.789 417.965C428.641 417.605 428.426 417.312 428.145 417.086C427.871 416.852 427.539 416.68 427.148 416.57C426.758 416.461 426.316 416.406 425.824 416.406H424.148V414.203Z" fill="white"/>
<path opacity="0.3" d="M409.734 475.203H411.41C411.902 475.203 412.332 475.141 412.699 475.016C413.066 474.883 413.371 474.699 413.613 474.465C413.855 474.23 414.035 473.953 414.152 473.633C414.277 473.305 414.34 472.945 414.34 472.555C414.34 471.727 414.121 471.09 413.684 470.645C413.254 470.191 412.602 469.965 411.727 469.965C411.344 469.965 410.988 470.023 410.66 470.141C410.34 470.25 410.059 470.41 409.816 470.621C409.582 470.832 409.398 471.086 409.266 471.383C409.133 471.68 409.066 472.016 409.066 472.391H406.266C406.266 471.719 406.398 471.098 406.664 470.527C406.938 469.957 407.312 469.465 407.789 469.051C408.273 468.629 408.848 468.301 409.512 468.066C410.176 467.824 410.902 467.703 411.691 467.703C412.496 467.703 413.234 467.809 413.906 468.02C414.578 468.223 415.152 468.527 415.629 468.934C416.105 469.34 416.477 469.848 416.742 470.457C417.008 471.059 417.141 471.758 417.141 472.555C417.141 472.891 417.09 473.234 416.988 473.586C416.887 473.938 416.73 474.277 416.52 474.605C416.316 474.934 416.055 475.242 415.734 475.531C415.422 475.812 415.051 476.051 414.621 476.246C415.137 476.426 415.57 476.656 415.922 476.938C416.273 477.219 416.559 477.535 416.777 477.887C416.996 478.23 417.152 478.602 417.246 479C417.34 479.398 417.387 479.805 417.387 480.219C417.387 481.016 417.242 481.727 416.953 482.352C416.664 482.977 416.262 483.504 415.746 483.934C415.238 484.355 414.637 484.68 413.941 484.906C413.246 485.125 412.496 485.234 411.691 485.234C410.949 485.234 410.242 485.133 409.57 484.93C408.898 484.727 408.305 484.426 407.789 484.027C407.281 483.621 406.875 483.121 406.57 482.527C406.266 481.926 406.113 481.23 406.113 480.441H408.914C408.914 480.816 408.98 481.164 409.113 481.484C409.246 481.797 409.434 482.066 409.676 482.293C409.926 482.512 410.223 482.684 410.566 482.809C410.91 482.934 411.297 482.996 411.727 482.996C412.617 482.996 413.316 482.762 413.824 482.293C414.34 481.816 414.598 481.129 414.598 480.23C414.598 479.738 414.523 479.316 414.375 478.965C414.227 478.605 414.012 478.312 413.73 478.086C413.457 477.852 413.125 477.68 412.734 477.57C412.344 477.461 411.902 477.406 411.41 477.406H409.734V475.203ZM432.188 478.508C432.188 479.609 432.059 480.582 431.801 481.426C431.551 482.262 431.188 482.965 430.711 483.535C430.234 484.098 429.652 484.523 428.965 484.812C428.277 485.102 427.504 485.246 426.645 485.246C425.793 485.246 425.023 485.102 424.336 484.812C423.648 484.523 423.062 484.098 422.578 483.535C422.102 482.965 421.73 482.262 421.465 481.426C421.207 480.582 421.078 479.609 421.078 478.508V474.43C421.078 473.328 421.207 472.359 421.465 471.523C421.723 470.68 422.09 469.977 422.566 469.414C423.051 468.844 423.633 468.414 424.312 468.125C425 467.836 425.77 467.691 426.621 467.691C427.48 467.691 428.254 467.836 428.941 468.125C429.629 468.414 430.211 468.844 430.688 469.414C431.172 469.977 431.543 470.68 431.801 471.523C432.059 472.359 432.188 473.328 432.188 474.43V478.508ZM423.891 477.441L429.352 473.375C429.289 472.211 429.031 471.352 428.578 470.797C428.133 470.234 427.48 469.953 426.621 469.953C425.707 469.953 425.023 470.277 424.57 470.926C424.117 471.574 423.891 472.57 423.891 473.914V477.441ZM429.375 475.578L423.914 479.645C424.055 481.879 424.965 482.996 426.645 482.996C428.465 482.996 429.375 481.664 429.375 479V475.578Z" fill="white"/>
<path d="M495.883 167.131C495.792 166.324 495.417 165.699 494.758 165.256C494.099 164.807 493.269 164.582 492.269 164.582C491.553 164.582 490.934 164.696 490.411 164.923C489.888 165.145 489.482 165.452 489.192 165.844C488.908 166.23 488.766 166.67 488.766 167.165C488.766 167.58 488.863 167.937 489.056 168.239C489.255 168.54 489.513 168.793 489.832 168.997C490.156 169.196 490.502 169.364 490.871 169.5C491.241 169.631 491.596 169.739 491.937 169.824L493.641 170.267C494.198 170.403 494.769 170.588 495.354 170.821C495.94 171.054 496.482 171.361 496.982 171.741C497.482 172.122 497.886 172.594 498.192 173.156C498.505 173.719 498.661 174.392 498.661 175.176C498.661 176.165 498.406 177.043 497.894 177.81C497.388 178.577 496.653 179.182 495.687 179.625C494.727 180.068 493.565 180.29 492.201 180.29C490.894 180.29 489.763 180.082 488.809 179.668C487.854 179.253 487.107 178.665 486.567 177.903C486.028 177.136 485.729 176.227 485.673 175.176H488.315C488.366 175.807 488.57 176.332 488.928 176.753C489.292 177.168 489.755 177.477 490.317 177.682C490.886 177.881 491.508 177.98 492.184 177.98C492.928 177.98 493.59 177.864 494.17 177.631C494.755 177.392 495.215 177.062 495.55 176.642C495.886 176.216 496.053 175.719 496.053 175.151C496.053 174.634 495.906 174.21 495.61 173.881C495.32 173.551 494.925 173.278 494.425 173.062C493.931 172.847 493.371 172.656 492.746 172.491L490.684 171.929C489.286 171.548 488.178 170.989 487.36 170.25C486.548 169.511 486.141 168.534 486.141 167.318C486.141 166.312 486.414 165.435 486.96 164.685C487.505 163.935 488.244 163.352 489.175 162.938C490.107 162.517 491.158 162.307 492.329 162.307C493.511 162.307 494.553 162.514 495.457 162.929C496.366 163.344 497.082 163.915 497.604 164.642C498.127 165.364 498.4 166.193 498.423 167.131H495.883ZM505.413 180.29C504.584 180.29 503.834 180.136 503.163 179.83C502.493 179.517 501.962 179.065 501.57 178.474C501.183 177.884 500.99 177.159 500.99 176.301C500.99 175.562 501.132 174.955 501.416 174.477C501.7 174 502.084 173.622 502.567 173.344C503.05 173.065 503.589 172.855 504.186 172.713C504.783 172.571 505.391 172.463 506.01 172.389C506.794 172.298 507.43 172.224 507.919 172.168C508.408 172.105 508.763 172.006 508.984 171.869C509.206 171.733 509.317 171.511 509.317 171.205V171.145C509.317 170.401 509.107 169.824 508.686 169.415C508.271 169.006 507.652 168.801 506.828 168.801C505.97 168.801 505.294 168.991 504.8 169.372C504.311 169.747 503.973 170.165 503.786 170.625L501.391 170.08C501.675 169.284 502.089 168.642 502.635 168.153C503.186 167.659 503.82 167.301 504.536 167.08C505.251 166.852 506.004 166.739 506.794 166.739C507.317 166.739 507.871 166.801 508.456 166.926C509.047 167.045 509.598 167.267 510.109 167.591C510.626 167.915 511.05 168.378 511.379 168.98C511.709 169.577 511.874 170.352 511.874 171.307V180H509.385V178.21H509.283C509.118 178.54 508.871 178.864 508.541 179.182C508.212 179.5 507.788 179.764 507.271 179.974C506.754 180.185 506.135 180.29 505.413 180.29ZM505.967 178.244C506.672 178.244 507.274 178.105 507.774 177.827C508.28 177.548 508.663 177.185 508.925 176.736C509.192 176.281 509.325 175.795 509.325 175.278V173.591C509.234 173.682 509.058 173.767 508.797 173.847C508.541 173.92 508.249 173.986 507.919 174.043C507.589 174.094 507.268 174.142 506.956 174.188C506.643 174.227 506.382 174.261 506.172 174.29C505.678 174.352 505.226 174.457 504.817 174.605C504.413 174.753 504.089 174.966 503.845 175.244C503.607 175.517 503.487 175.881 503.487 176.335C503.487 176.966 503.72 177.443 504.186 177.767C504.652 178.085 505.246 178.244 505.967 178.244Z" fill="white"/>
<path opacity="0.3" d="M496.734 231.203H498.41C498.902 231.203 499.332 231.141 499.699 231.016C500.066 230.883 500.371 230.699 500.613 230.465C500.855 230.23 501.035 229.953 501.152 229.633C501.277 229.305 501.34 228.945 501.34 228.555C501.34 227.727 501.121 227.09 500.684 226.645C500.254 226.191 499.602 225.965 498.727 225.965C498.344 225.965 497.988 226.023 497.66 226.141C497.34 226.25 497.059 226.41 496.816 226.621C496.582 226.832 496.398 227.086 496.266 227.383C496.133 227.68 496.066 228.016 496.066 228.391H493.266C493.266 227.719 493.398 227.098 493.664 226.527C493.938 225.957 494.312 225.465 494.789 225.051C495.273 224.629 495.848 224.301 496.512 224.066C497.176 223.824 497.902 223.703 498.691 223.703C499.496 223.703 500.234 223.809 500.906 224.02C501.578 224.223 502.152 224.527 502.629 224.934C503.105 225.34 503.477 225.848 503.742 226.457C504.008 227.059 504.141 227.758 504.141 228.555C504.141 228.891 504.09 229.234 503.988 229.586C503.887 229.938 503.73 230.277 503.52 230.605C503.316 230.934 503.055 231.242 502.734 231.531C502.422 231.812 502.051 232.051 501.621 232.246C502.137 232.426 502.57 232.656 502.922 232.938C503.273 233.219 503.559 233.535 503.777 233.887C503.996 234.23 504.152 234.602 504.246 235C504.34 235.398 504.387 235.805 504.387 236.219C504.387 237.016 504.242 237.727 503.953 238.352C503.664 238.977 503.262 239.504 502.746 239.934C502.238 240.355 501.637 240.68 500.941 240.906C500.246 241.125 499.496 241.234 498.691 241.234C497.949 241.234 497.242 241.133 496.57 240.93C495.898 240.727 495.305 240.426 494.789 240.027C494.281 239.621 493.875 239.121 493.57 238.527C493.266 237.926 493.113 237.23 493.113 236.441H495.914C495.914 236.816 495.98 237.164 496.113 237.484C496.246 237.797 496.434 238.066 496.676 238.293C496.926 238.512 497.223 238.684 497.566 238.809C497.91 238.934 498.297 238.996 498.727 238.996C499.617 238.996 500.316 238.762 500.824 238.293C501.34 237.816 501.598 237.129 501.598 236.23C501.598 235.738 501.523 235.316 501.375 234.965C501.227 234.605 501.012 234.312 500.73 234.086C500.457 233.852 500.125 233.68 499.734 233.57C499.344 233.461 498.902 233.406 498.41 233.406H496.734V231.203Z" fill="white"/>
<path opacity="0.3" d="M494.398 302H491.574V288.395L487.215 289.988V287.527L494.223 284.938H494.398V302ZM512.188 295.508C512.188 296.609 512.059 297.582 511.801 298.426C511.551 299.262 511.188 299.965 510.711 300.535C510.234 301.098 509.652 301.523 508.965 301.812C508.277 302.102 507.504 302.246 506.645 302.246C505.793 302.246 505.023 302.102 504.336 301.812C503.648 301.523 503.062 301.098 502.578 300.535C502.102 299.965 501.73 299.262 501.465 298.426C501.207 297.582 501.078 296.609 501.078 295.508V291.43C501.078 290.328 501.207 289.359 501.465 288.523C501.723 287.68 502.09 286.977 502.566 286.414C503.051 285.844 503.633 285.414 504.312 285.125C505 284.836 505.77 284.691 506.621 284.691C507.48 284.691 508.254 284.836 508.941 285.125C509.629 285.414 510.211 285.844 510.688 286.414C511.172 286.977 511.543 287.68 511.801 288.523C512.059 289.359 512.188 290.328 512.188 291.43V295.508ZM503.891 294.441L509.352 290.375C509.289 289.211 509.031 288.352 508.578 287.797C508.133 287.234 507.48 286.953 506.621 286.953C505.707 286.953 505.023 287.277 504.57 287.926C504.117 288.574 503.891 289.57 503.891 290.914V294.441ZM509.375 292.578L503.914 296.645C504.055 298.879 504.965 299.996 506.645 299.996C508.465 299.996 509.375 298.664 509.375 296V292.578Z" fill="white"/>
<path opacity="0.3" d="M494.398 363H491.574V349.395L487.215 350.988V348.527L494.223 345.938H494.398V363ZM512.258 347.496L505.426 363H502.473L509.305 348.27H500.457V345.938H512.258V347.496Z" fill="white"/>
<path opacity="0.3" d="M497.691 424H486.23V422.066L491.785 416.008C492.254 415.484 492.645 415.023 492.957 414.625C493.277 414.219 493.531 413.848 493.719 413.512C493.906 413.176 494.039 412.863 494.117 412.574C494.195 412.285 494.234 411.992 494.234 411.695C494.234 411.305 494.172 410.945 494.047 410.617C493.93 410.281 493.758 409.996 493.531 409.762C493.312 409.52 493.043 409.332 492.723 409.199C492.41 409.066 492.059 409 491.668 409C490.652 409 489.902 409.277 489.418 409.832C488.941 410.387 488.703 411.152 488.703 412.129H485.891C485.891 411.387 486.023 410.688 486.289 410.031C486.562 409.367 486.949 408.789 487.449 408.297C487.957 407.805 488.57 407.418 489.289 407.137C490.008 406.848 490.816 406.703 491.715 406.703C492.559 406.703 493.309 406.824 493.965 407.066C494.621 407.309 495.176 407.648 495.629 408.086C496.082 408.516 496.426 409.027 496.66 409.621C496.895 410.215 497.012 410.867 497.012 411.578C497.012 412.109 496.926 412.625 496.754 413.125C496.582 413.617 496.344 414.109 496.039 414.602C495.734 415.094 495.371 415.59 494.949 416.09C494.527 416.582 494.07 417.09 493.578 417.613L489.711 421.762H497.691V424ZM510.465 417.941H512.609V420.203H510.465V424H507.664V420.203H500.258L500.188 418.504L507.57 406.938H510.465V417.941ZM503.07 417.941H507.664V410.676L507.359 411.227L503.07 417.941Z" fill="white"/>
<path opacity="0.3" d="M489.734 475.203H491.41C491.902 475.203 492.332 475.141 492.699 475.016C493.066 474.883 493.371 474.699 493.613 474.465C493.855 474.23 494.035 473.953 494.152 473.633C494.277 473.305 494.34 472.945 494.34 472.555C494.34 471.727 494.121 471.09 493.684 470.645C493.254 470.191 492.602 469.965 491.727 469.965C491.344 469.965 490.988 470.023 490.66 470.141C490.34 470.25 490.059 470.41 489.816 470.621C489.582 470.832 489.398 471.086 489.266 471.383C489.133 471.68 489.066 472.016 489.066 472.391H486.266C486.266 471.719 486.398 471.098 486.664 470.527C486.938 469.957 487.312 469.465 487.789 469.051C488.273 468.629 488.848 468.301 489.512 468.066C490.176 467.824 490.902 467.703 491.691 467.703C492.496 467.703 493.234 467.809 493.906 468.02C494.578 468.223 495.152 468.527 495.629 468.934C496.105 469.34 496.477 469.848 496.742 470.457C497.008 471.059 497.141 471.758 497.141 472.555C497.141 472.891 497.09 473.234 496.988 473.586C496.887 473.938 496.73 474.277 496.52 474.605C496.316 474.934 496.055 475.242 495.734 475.531C495.422 475.812 495.051 476.051 494.621 476.246C495.137 476.426 495.57 476.656 495.922 476.938C496.273 477.219 496.559 477.535 496.777 477.887C496.996 478.23 497.152 478.602 497.246 479C497.34 479.398 497.387 479.805 497.387 480.219C497.387 481.016 497.242 481.727 496.953 482.352C496.664 482.977 496.262 483.504 495.746 483.934C495.238 484.355 494.637 484.68 493.941 484.906C493.246 485.125 492.496 485.234 491.691 485.234C490.949 485.234 490.242 485.133 489.57 484.93C488.898 484.727 488.305 484.426 487.789 484.027C487.281 483.621 486.875 483.121 486.57 482.527C486.266 481.926 486.113 481.23 486.113 480.441H488.914C488.914 480.816 488.98 481.164 489.113 481.484C489.246 481.797 489.434 482.066 489.676 482.293C489.926 482.512 490.223 482.684 490.566 482.809C490.91 482.934 491.297 482.996 491.727 482.996C492.617 482.996 493.316 482.762 493.824 482.293C494.34 481.816 494.598 481.129 494.598 480.23C494.598 479.738 494.523 479.316 494.375 478.965C494.227 478.605 494.012 478.312 493.73 478.086C493.457 477.852 493.125 477.68 492.734 477.57C492.344 477.461 491.902 477.406 491.41 477.406H489.734V475.203ZM508.812 485H505.988V471.395L501.629 472.988V470.527L508.637 467.938H508.812V485Z" fill="white"/>
<line x1="0.5" y1="522.5" x2="663.5" y2="522.5" stroke="white" stroke-opacity="0.24" stroke-linecap="round" stroke-linejoin="bevel"/>
<line x1="0.5" y1="126.5" x2="663.5" y2="126.5" stroke="white" stroke-opacity="0.24" stroke-linecap="round" stroke-linejoin="bevel"/>
</svg>
