<svg xmlns="http://www.w3.org/2000/svg" width="497" height="276" viewBox="0 0 497 276" fill="none"><g id="Group 1707478491"><path id="Vector 1" d="M4 267.954V271.954H8H488.15H492.15V267.954V19.4795C492.15 10.9304 485.22 4 476.671 4H19.4795C10.9304 4 4 10.9304 4 19.4795V267.954Z" stroke="#3A3A3A" stroke-opacity="0.1" stroke-width="8"></path><path id="Vector 2" d="M8 267.954V19.4795C8 13.1395 13.1395 8 19.4795 8H476.671C483.011 8 488.15 13.1395 488.15 19.4795V267.954H8Z" fill="url(#paint0_linear_2066_154)" stroke="#252525" stroke-width="0.680324"></path><line id="Line 1" x1="8.15771" y1="35.6046" x2="487.992" y2="35.6046" stroke="#252525" stroke-width="0.478311"></line><g id="Group 51"><circle id="Ellipse 8" cx="29.9449" cy="21.8155" r="4.17004" fill="#252525"></circle><circle id="Ellipse 9" cx="41.0045" cy="21.8155" r="4.17004" fill="#252525"></circle><circle id="Ellipse 10" cx="52.0646" cy="21.8155" r="4.17004" fill="#252525"></circle></g><rect id="Rectangle 13" x="146.086" y="13.1338" width="203.979" height="17.3635" rx="1.91324" fill="#232323"></rect><g id="Rectangle 14"><rect x="262.941" y="68.4058" width="186.77" height="139.142" rx="6.69635" fill="#1F1F1F"></rect><rect x="261.441" y="66.9058" width="189.77" height="142.142" rx="8.19635" stroke="#373737" stroke-opacity="0.06" stroke-width="3"></rect></g><g id="Group 52"><rect id="Rectangle 15" x="58.6699" y="108.751" width="170.23" height="15.9193" rx="7.95963" fill="#1F1F1F"></rect><rect id="Rectangle 19" x="58.6699" y="87.4849" width="176.546" height="15.9193" rx="7.95963" fill="#1F1F1F"></rect><rect id="Rectangle 16" x="58.6699" y="130.017" width="161.981" height="15.9193" rx="7.95963" fill="#1F1F1F"></rect><rect id="Rectangle 17" x="58.6699" y="151.283" width="148.031" height="15.9193" rx="7.95963" fill="#1F1F1F"></rect><rect id="Rectangle 18" x="58.6699" y="172.549" width="102.772" height="15.9193" rx="7.95963" fill="#1F1F1F"></rect></g></g><defs><linearGradient id="paint0_linear_2066_154" x1="248.075" y1="8" x2="248.075" y2="267.954" gradientUnits="userSpaceOnUse"><stop offset="0.691067" stop-color="#1A1A1A"></stop><stop offset="1" stop-color="#1A1A1A" stop-opacity="0"></stop></linearGradient></defs></svg>