<svg xmlns="http://www.w3.org/2000/svg" width="1623" height="933" viewBox="0 0 1623 933" fill="none"><path id="Vector 4" d="M784.83 214.704C586.814 79.6626 502.969 1.62176 355.578 0.0249929C352.527 -0.00805791 349.307 0.378797 346.337 1.0794C-131.25 113.759 -44.2118 340.176 185.829 413.419C490.784 494.554 411.675 669.779 327.565 754.966C322.129 760.47 317.153 766.707 313.6 773.579C224.817 945.271 396.092 944.096 495.915 921.223C496.691 921.045 497.448 920.774 498.166 920.432C798.795 777.289 896.795 785.385 984.024 828.431C1221.15 945.451 1352.42 912.794 1418.2 855.645C1487.92 829.792 1466.75 648.819 1504.86 563.095C1749.59 330.92 1557.65 253.997 1425.07 243.619C1420.47 243.26 1415.87 243.556 1411.33 244.342C1120.14 294.796 881.713 252.916 793.531 219.316C790.439 218.138 787.563 216.568 784.83 214.704Z" fill="#2A42F0"></path></svg>