<svg xmlns="http://www.w3.org/2000/svg" width="283" height="253" viewBox="0 0 283 253" fill="none"><path id="Vector 4" d="M133.29 54.6068C103.937 23.1681 89.3271 3.93275 68.0796 0.540398C63.4952 -0.191549 58.8122 0.774861 54.5122 2.52495C-22.1107 33.7102 -6.74206 92.61 32.3474 111.975C81.1247 132.168 73.4548 173.879 60.5302 198.414C57.5382 204.094 54.3159 209.729 52.6618 215.932C42.2614 254.932 68.3522 255.414 84.9989 249.968C86.0167 249.635 86.9846 249.101 87.8468 248.466C139.293 210.562 156.215 212.807 171.29 224.382C212.567 256.077 235.417 247.232 246.867 231.753C259.004 224.751 255.318 175.734 261.952 152.516C299.038 97.7699 278.516 74.8936 257.355 68.0342C250.604 65.8455 243.374 66.9235 236.436 68.4226C194.127 77.5649 159.292 69.6569 142.527 61.72C138.984 60.0423 135.965 57.4727 133.29 54.6068Z" fill="#5A6DFA"></path></svg>